/* XPM */
static char *_84e28b2faff4f6eb853db425655999fxOVs6tgaxZ9vQewM[] = {
/* columns rows colors chars-per-pixel */
"64 64 220 2 ",
"   c #000000",
".  c #01000B",
"X  c #08000C",
"o  c #020013",
"O  c #0F0014",
"+  c #03001C",
"@  c #100017",
"#  c #11001C",
"$  c #050023",
"%  c #070129",
"&  c #09012E",
"*  c #140126",
"=  c #1A0021",
"-  c #0B0133",
";  c #0E013C",
":  c #1C0136",
">  c #22002A",
",  c #290135",
"<  c #31013E",
"1  c #0F0140",
"2  c #110143",
"3  c #1A0141",
"4  c #14024B",
"5  c #160253",
"6  c #190256",
"7  c #1A035B",
"8  c #230248",
"9  c #33024A",
"0  c #23035D",
"q  c #290258",
"w  c #3B0257",
"e  c #1D0364",
"r  c #1F0469",
"t  c #230364",
"y  c #2C0362",
"u  c #21046D",
"i  c #2B046B",
"p  c #33046C",
"a  c #39036B",
"s  c #230473",
"d  c #2B0474",
"f  c #25057B",
"g  c #2C057C",
"h  c #3A0473",
"j  c #32057C",
"k  c #3A0579",
"l  c #25147B",
"z  c #440254",
"x  c #460367",
"c  c #56036F",
"v  c #48057A",
"b  c #570478",
"n  c #270680",
"m  c #290683",
"M  c #2C078B",
"N  c #330684",
"B  c #3B0684",
"V  c #32068B",
"C  c #3A068C",
"Z  c #2E0791",
"A  c #2F0894",
"S  c #340792",
"D  c #3C0794",
"F  c #310897",
"G  c #3C0897",
"H  c #33099C",
"J  c #3A099C",
"K  c #341A91",
"L  c #2E3492",
"P  c #3709A0",
"I  c #3C09A1",
"U  c #3614A0",
"Y  c #3628A2",
"T  c #470584",
"R  c #44078C",
"E  c #4B068C",
"W  c #560689",
"Q  c #430793",
"!  c #4B0792",
"~  c #460896",
"^  c #43089D",
"/  c #4B089B",
"(  c #540794",
")  c #5A0797",
"_  c #5B079A",
"`  c #53089C",
"'  c #660587",
"]  c #640799",
"[  c #74069A",
"{  c #4309A3",
"}  c #4C09A5",
"|  c #5309A4",
" . c #5C08A4",
".. c #540AA9",
"X. c #5B0AAC",
"o. c #561EAB",
"O. c #6C07A2",
"+. c #6308A3",
"@. c #6B08A6",
"#. c #6109AC",
"$. c #6D0AAD",
"%. c #7308A5",
"&. c #7808A9",
"*. c #650AB1",
"=. c #6B0AB2",
"-. c #730AB4",
";. c #7C09B4",
":. c #760BB9",
">. c #7B0BBC",
",. c #6715B2",
"<. c #7517B8",
"1. c #5538AB",
"2. c #6C2BB6",
"3. c #354FA9",
"4. c #3361AB",
"5. c #5650B2",
"6. c #6B41BB",
"7. c #7149BE",
"8. c #7E36C4",
"9. c #7849C5",
"0. c #6A5BC2",
"q. c #7856C8",
"w. c #5568C4",
"e. c #4B76C4",
"r. c #5876CB",
"t. c #706ACD",
"y. c #6C77D3",
"u. c #7577D7",
"i. c #8508AC",
"p. c #8409B5",
"a. c #8B09B4",
"s. c #830ABB",
"d. c #8B0ABD",
"f. c #9409B8",
"g. c #890BC4",
"h. c #8C0BC4",
"j. c #930BC4",
"k. c #9A0AC4",
"l. c #930CCA",
"z. c #9C0CCD",
"x. c #8915C5",
"c. c #951ACB",
"v. c #9D0CD1",
"b. c #9D14D1",
"n. c #A30BCD",
"m. c #A30DD4",
"M. c #AA0CD6",
"N. c #A70DD8",
"B. c #AC0DDB",
"V. c #B20DDE",
"C. c #A816D8",
"Z. c #B113DF",
"A. c #8B28C7",
"S. c #873AC9",
"D. c #9832CE",
"F. c #9639D3",
"G. c #A326D7",
"H. c #A734DC",
"J. c #B50EE1",
"K. c #BA0EE5",
"L. c #BE0EE9",
"P. c #B919E4",
"I. c #BC24E8",
"U. c #AF32E2",
"Y. c #B939E9",
"T. c #C40EEC",
"R. c #C80FEF",
"E. c #C415ED",
"W. c #C31AEB",
"Q. c #CD0FF3",
"!. c #D00FF6",
"~. c #CC14F3",
"^. c #C71BF0",
"/. c #CE1AF5",
"(. c #D014F6",
"). c #D018F6",
"_. c #C227ED",
"`. c #C133ED",
"'. c #CD23F5",
"]. c #C52BF0",
"[. c #CC2CF6",
"{. c #C536F2",
"}. c #CA34F6",
"|. c #C63DF4",
" X c #C93CF6",
".X c #8843CB",
"XX c #8754CF",
"oX c #9945D5",
"OX c #9F4EDD",
"+X c #9B55DD",
"@X c #8667D8",
"#X c #8C6CDB",
"$X c #B74BEC",
"%X c #B849ED",
"&X c #AA5BE8",
"*X c #B456ED",
"=X c #BD54F3",
"-X c #B659F0",
";X c #BC5CF5",
":X c #9968E3",
">X c #9977E9",
",X c #A967EC",
"<X c #AA6EEF",
"1X c #B564F3",
"2X c #BA63F6",
"3X c #B46BF5",
"4X c #AD75F4",
"5X c #A77DF5",
"6X c #AA7BF6",
"7X c #B171F6",
"8X c #C543F5",
"9X c #C44BF6",
"0X c #C153F6",
"qX c #5482CF",
"wX c #5C83D3",
"eX c #6484D8",
"rX c #7A83E0",
"tX c #8E8EF0",
"yX c #9B89F4",
"uX c #A384F6",
/* pixels */
"                                                                                                                                ",
"                                                        . o . o + * , * o o                                                     ",
"                                                  . + % - - 3 z q q q 8 3 8 * + o o .                                           ",
"                                            . - 2 2 4 6 r s k [ &.v T v p b x 8 2 - & $ o .                                     ",
"                                    o - 1 4 4 r n n m m S G C @.f.) %.] E ] W h p t 6 4 - % +                                   ",
"                                + - 4 6 r s m F H H F }  .X.| ) ] T %.] ] ] T E E v t 7 5 4 ; & o                               ",
"                            + - 7 f n f M F H P { P ^ s.z.j.z.l.@.E E R R / ] a.&.v t e 6 5 6 4 - o .                           ",
"                        $ 2 6 e n F A A F H H P } I { ;.j.m.J.J.m.l.s.;.>.:.&.k.%.v s e 6 4 e e 5 ; & o                         ",
"                      $ 4 r f f A H H H H H H { ..*.} =.v.V.K.L.N.M.K.T.K.V.h.-.` N M Z s 6 t f s e 4 & .                       ",
"                    % 5 s m M H H H H H H H I I } *.g.>.V.L.Q.L.l.g.T.~.T.T.N.;.$.( S H A e e M M s e 4 % .                     ",
"                . ; u m A F H H P H P P { ..*.*.N.L.T.T.Q.Q.Q.L.K.T.T.T.Q.Q.T.N.;.~ S F F s u s s s r e 5 & .                   ",
"              o 4 f A H H P H P P H { :.l.N.L.Q.Q.T.N.Z.R.Q.Q.Q.R.Q.Q.Q.Q.T.B.l.z.;.^ V C B T a y e u s r 5 &                   ",
"              4 n H H H F H H H P P :.J.J.T.Q.!.Q.T.J.K.Q.Q.L.R.Q.R.R.Q.Q.T.L.V.T.z.X.Q S G ( ' v t u f f 7 ; o                 ",
"            2 f H H H A H H H H I P :.J.L.Q.!.!.!.L.V.J.L.Q.L.J.T.T.Q.Q.Q.Q.Q.V.B.g.../ F J g t e e u f m s 6 & o               ",
"          ; f F H H F F H H P P P P X.v.T.!.Q.!.Q.L.B.L.Q.Q.L.v.M.T.Q.Q.Q.Q.Q.J.V.:.^ H S S S j u u f f S V s 5 - o             ",
"        $ e M A A A H H I :.:...P P X.x.Y.{./.R.K.V.K.Q.Q.Q.K.v.s.M.T.R.Q.Q.T.T.T.N.$./ M m V m j j M m m A M r 3 $             ",
"        4 f M Z Z A H { l.V.v.:.P P :.H.,X<XY.J.P.v.V.L.R.R.K.>.| &.d.B.K.T.T.Q.T.T.z._ ( C f f d i Z M m F P m e 1 o           ",
"      - s M A F H P ..v.T.Q.J.>.I I X.F.u.>X+XA.l.>.g.v.Z.N.x.c.s.j.=.z.M.K.R.Q.Q.Q.K.z.B.$.E ) E k m m M F F F f 7 & .         ",
"    + 7 n M F H P ..m.Q.L.v.>.X.I I { 2.0.rXy.8.>.>.:.:.>.<.9.OXH.b.g.N.K.J.R.!.Q.Q.!.K.L.g.p.&.) ! _ Q H F n M n r 4 +         ",
"    2 r s A J s.K.L.L.L.v.>.X.X.:.....g.F.u.u.OXP.K.g.:.c.8.t.>X&XI.m.M.J.T.!.!.!.!.Q.L.K.K.T.V.s.+.Q V F n s f m s 7 &         ",
"    7 f m H { l.L.L.L.v.*...v.>.X.*.>.g.A.@X>X7X}.!.T.b.U.&X6XuX4XY.m.z.K.R.!.!.!.!.Q.N.m.B.K.K.B.d.@.~ m j d f M m e 2 o       ",
"  o r M F I X.>.Z.N.K.N.:.=.J.N.v.N.l.:.G.%X5X5X9X).!.'.0X4X3X6XuX;XI.Z.R.(.!.(.).(.Q.m.=.+.-.d.j.p.] ~ R N g M M f e 4 +       ",
"  % s F P ..=.#.>.v.l.>.*.l.L.K.K.L.L.N.K.[.3X5X0X[.).8X7X7X9X2XuX7X8XI.'././.}. X[.R.B.g.#...) ! G J .. .G M M m f r 7 -       ",
"  4 m H P { { I I ..{ ....*.J.L.Q.!.Q.Q.Q./.8X;X9X'. X3X7X;X[.9X6XyX4X1X0X[.}.;X2X8X~.K.N.g.z.j.-.| ^ G C C m m m f f r 1 o     ",
". e A H H P P P H I I ......B.K.J.Q.!.Q.Q.(./.[.'.'.;X7X2X}.(. X6XtXtXyX3X X0X7X3X|.R.E.P.C.E.E.K.N.s.$.( G M s s f f s 4 +     ",
"+ e M A H H P H H P I X.X...N.K.K.~./.'./.!.(././.[.0X2X X).!.[.7XyXuX2X9X9X3X4X=X_.P.I.H.S.Y.].E.K.B.z.j.j.#.N j m s e 4 $     ",
"& 7 s A H H H P H P { ....:.>.J.Q.'.8X=X[.(.'.8X9X}.[.[.).!.!.). X0X9X X|.1X4X;X`.U..X&Xt.y.t.F.C.l.h.;.;.g.>._ R N r 7 4 +     ",
"; 4 6 A H H H H ..*...X.*.l.v.J.~. X3X3X X(.}.2X7X9X'.!.!.).).!.(.).).'.9X3X1X8X;X<X,X>XtXr.w.9.,. ./ R R ! X.) E G j t 0 *     ",
"2 4 7 Z H H P P I ..I l.l.g.B.K.].;X6X1X].!.'.;XuX3X}.).}.8X8X}.8X9X9X9X9X0X X}.3XuX3X0X$X$XH.C.>.| K K l d C j j F M j p :     ",
"; 4 5 Z F H H I X.:.:.v.J.J.K.L.Y.4X4X%X^.!.(.8X6X6X9X}.2X6XuX7X6XuXyX6X8X).!.'.;XuX3X}.Q.K.K.V.j.<.1.3.L l M s f M M g 0 % > O ",
"2 6 5 Z H F H =.N.Z.v.N.B.B.J.L.;X6X;X[.!.!.!.[.2X7X9X9XuXtXyXuXuXuXtXuX9X(.(./.9X5X6X|.'.I.W.T.V.G.7.e.4.L H Z M f m f 6 $ O   ",
"6 f m F H H H X.:.*.X.:.>.>.J.K.-X2X8X~.!.!.!./.[. X}.0XuX6X2X9X9X0X5X5X0X/.[.8X0X7X4X;X;X*XY.W.J.G.XXqXe.L H I I M m m 7 $     ",
"e M A F H H H P H P I { { *.N.B.{.Y./.Q.!.!.'.).).).8X3X4X0X'.).).}.2X6X2X[.9X3X6XuXuXuXuX>X*XP.z.c.9.r.r.5.^ { } J H m e %     ",
"6 m m A F P H H H H P I P } g.g.K.R.~.!.!.'.8X0X X).9X7X2X}.!.!.!.).|.;X=X[.;X7X6X6X7X7X3X&XU.M.l.:.2.w.e.5.E / { I I n 6 +     ",
"4 f m A H H H H H P I J P P X.>.V.T.Q.!.!.'.;X7X3X9X9X0X8X).(.!.).).).'././.[.}.}.[.'.(.~.V.M.M.l.>.<.7.5.5.Q Q I { { g 4 +     ",
"& e s Z H H F H F P { I H H H *.v.J.(.!.!.).}.2X7X7X0X X'.(.~.[.}. X[.).Q.!.Q.R.Q.!.Q.(.R.T.V.M.k.>.-.,.,.,.*.X.X...} d 2 o     ",
"o 2 r M A H H H H P I I J F F } >.B.Q.!.!.!.~.[.9X3X7X3X8X'.}.;X3X2X=X X/.(.!.Q.R.Q.Q.Q.R.R.T.V.N.m.l.s.s.*.X.....X.#.W w #     ",
"  2 s m A H H H F H ..I H F H I X.g.L.Q.!.!.!.(.[.0X3X6X7X0X9X5XuX7X4X1X9X[.~.R.T././.(.R.T.T.T.K.V.J.B.k.@.X.} { } X.W w O     ",
"  5 f M F P H H F F ^ { I H H H I *.J.R.L.E.I.Y.+X:X,X2X3X3X;XuX5X*X1X4X3X=XY.P.W.{.8X}.).!.Q.T.K.M.B.v.@._ _  .} G Q k :       ",
"  5 s s M H H F F F I } { H I I P I =.g.A.S.#Xy.qXeX<X X8X=X-X>X#XD.U.&X4X4X1XH.D.&X3X9X(.!.!.Q.K.j.h.g.h.a.( / ..S g q >       ",
"  - e s M H H F H A H P I { H P P P I o.5.r.wXqX#X-X|.)./.].*XyXu.8.A.oX&X4X4X:Xq.@XtX*X^.Q.Q.T.k.-.:.l.p.] v (  ./ p , @       ",
"    7 m M F H H H H H H P } H H I P H Y 3.r.w.q.U.'.~.Q.~.^.*X>Xt.9.t.t.#X*X1X,X:Xt.eXXXz.V.B.k.] ` #.X.T h p T } E q : O       ",
"    4 s n Z A A H H P H P P H J I } P U Y 1.2.<.V.Q.Q.Q.Q.W.oXq.w.eXrXwX@X8X[.|.&X#Xy.7.d.s.d.a.@. . ...Q C m C N i ; #         ",
"    $ 1 e f m M M H H H H H J F ..#.^ F | / =.=.v.T.Q.Q.Q.P.9.r.wXy.t.6.A.R.R.P.oXy.t..X;.-.;.p.a.+.^ ..} J I S d 4 +           ",
"      + e m Z m m H H H H J J J ^ } J F ^ ^ +.@.p.z.T.T.R.G.7.7.&X.X<.h.P.R.Q.B.S.q.q.2.s.,.=.g.M.n.a.+.~ D J V i - .           ",
"      o e m M Z F H H H F A F F H P F F F F G $. .+.d.z.k.n.,.x.T.T.h.z.R.!.!.K.c.G.A.x.z.g.#.d.B.V.k._ B C V s 5 +             ",
"        2 f m Z H H H H H F F F H P H H F F V / D V +.+.f.z.;.-.L.T.f.d.R.!.Q.V.a.p.<.=.x.+.! ] ;.;.] E N V R q - .             ",
"        o 6 n Z Z H H H H H A A A F F J F F V N M V ] ) ;.k.;.` n.T.K.V.M.T.!.K.i.' R ^ h._ j j C ) ( B g s p ; o               ",
"          - s M Z F P H H H H F Z n m S V ^ C N n C O.( ! C N f W n.K.n.%.d.K.B.%.B g M $.R u s s j T d r 0 8 #                 ",
"            - s M A F F H H H H A m M m N _ ! m n C +.;./ M n m m ] i.W p v ] +.R m f m Q k d s s s t h a 3 #                   ",
"              - s m m A H H H H H H F A M M N f s m ` +.Q m m M V k a y p i M S V n t T %.a.E V g d 0 q 9 =                     ",
"                ; e s Z H H A H H H H H S M f r 6 i g g t e g M N u t p h g M M M m u v [ f.i.E ) ' v 9 > X @                   ",
"                  & 7 m A H H H H H H F M s r 6 5 0 t e 7 6 M M M f d d s m m n n M s T a.f.f.' [ [ c < > O = O                 ",
"                    & 6 n A H H H H H F f e e e e p 0 0 t u Z F M n g g m m m n s s s v [ f.i.' ' x > > X X                     ",
"                      o 2 r n A A H H H M s r s s i t 7 q r M F Z m s f M n s r e e e x b b w z b b z > , = = O                 ",
"                          $ 1 e f M F F Z n n M s t u e 2 6 n M M m m m s e e 6 6 6 4 3 9 > . X z z < O = = O                   ",
"                              o ; 6 s n n f m m r e r s e u f m f f s e e 7 4 4 2 ; - % .             z z =                     ",
"                                    % 2 6 7 e u 7 4 5 7 u r e 6 4 ; 1 2 4 2 & $ o                     O .                       ",
"                                          + & - % .   & 2 2 & +         .                                                       ",
"                                                                                                                                ",
"                                                                                                                                ",
"                                                                                                                                ",
"                                                                                                                                ",
"                                                                                                                                "
};
