/* XPM */
static char *_e6eb9e8e00d4520e76a6740244265e92wWB1q692MrlSBJV[] = {
/* columns rows colors chars-per-pixel */
"64 64 153 2 ",
"   c black",
".  c #0D0A0D",
"X  c #161416",
"o  c #1C1B1C",
"O  c #222022",
"+  c #262526",
"@  c #2A292A",
"#  c #2E2D2E",
"$  c #323132",
"%  c #353435",
"&  c #383738",
"*  c #3B3A3B",
"=  c gray24",
"-  c #4D151A",
";  c #592A2D",
":  c #403F40",
">  c gray26",
",  c #454445",
"<  c #494849",
"1  c #4B4B4B",
"2  c gray30",
"3  c gray31",
"4  c #515051",
"5  c #535253",
"6  c #565656",
"7  c #585858",
"8  c #5B5B5B",
"9  c #5D5D5D",
"0  c #755A5B",
"q  c #785E60",
"w  c #606060",
"e  c #626162",
"r  c gray39",
"t  c #656465",
"y  c #676767",
"u  c #6A6A6A",
"i  c #6D6D6D",
"p  c gray45",
"a  c #777777",
"s  c gray47",
"d  c #797979",
"f  c #7C7C7C",
"g  c #990F21",
"h  c #8A1723",
"j  c #9A1726",
"k  c #9A1D2A",
"l  c #A81124",
"z  c #9D2B34",
"x  c #9F363D",
"c  c #AA2430",
"v  c #AB2834",
"b  c #A72F38",
"n  c #B5333D",
"m  c #CA1A30",
"M  c #E21531",
"N  c #E51532",
"B  c #E01C34",
"V  c #DD2639",
"C  c #E42138",
"Z  c #E5263B",
"A  c #CF3945",
"S  c #D43744",
"D  c #DF3443",
"F  c #D53F4A",
"G  c #E53142",
"H  c #E53444",
"J  c #E43A49",
"K  c #E53F4D",
"L  c #944045",
"P  c #9D5357",
"I  c #A4454B",
"U  c #A54A4F",
"Y  c #B84149",
"T  c #B44A50",
"R  c #A85054",
"E  c #B9595E",
"W  c #D0464F",
"Q  c #E6424F",
"!  c #E34652",
"~  c #E74652",
"^  c #E85861",
"/  c #D46167",
"(  c #D7666B",
")  c #C97A7D",
"_  c #DB7378",
"`  c #E8666D",
"'  c #E96E74",
"]  c #EA797E",
"[  c #EB7D83",
"{  c #808080",
"}  c #838383",
"|  c #848484",
" . c gray54",
".. c #8B8B8B",
"X. c gray56",
"o. c gray57",
"O. c #959595",
"+. c #979797",
"@. c gray60",
"#. c #9E9D9E",
"$. c #A2A1A2",
"%. c #A5A5A5",
"&. c #A6A5A6",
"*. c gray67",
"=. c #ACABAC",
"-. c #AEAEAE",
";. c #B9ACAC",
":. c gray70",
">. c gray71",
",. c #BCBBBC",
"<. c gray74",
"1. c #D38387",
"2. c #D69194",
"3. c #E98387",
"4. c #E98488",
"5. c #EB8589",
"6. c #EC898D",
"7. c #EC8B8F",
"8. c #E69497",
"9. c #ED9699",
"0. c #EE9B9E",
"q. c #DE9EA0",
"w. c #E39FA2",
"e. c #EFA2A5",
"r. c #E7ABAD",
"t. c #F0ABAE",
"y. c #F0ADB0",
"u. c #EDB4B6",
"i. c #F1B4B6",
"p. c #F2BBBD",
"a. c #F2BCBE",
"s. c #F3BDBF",
"d. c #C3C2C3",
"f. c gray77",
"g. c #C6C6C6",
"h. c #CBCBCB",
"j. c #CDCDCD",
"k. c #D7D7D7",
"l. c #D8D8D8",
"z. c #DFDEDF",
"x. c #EEC2C4",
"c. c #F4C3C5",
"v. c #F5CBCD",
"b. c #E1D6D7",
"n. c #F7D7D8",
"m. c #F8DFE0",
"M. c #E1E1E1",
"N. c #E9E9E9",
"B. c #FAE8E8",
"V. c #FAE9EA",
"C. c #F4F4F4",
"Z. c #FDF4F4",
"A. c white",
/* pixels */
"A.A.A.A.A.A.A.A.A.A.A.A.A.A.A.A.A.A.A.A.A.A.A.A.A.A.A.A.A.A.A.A.A.A.A.A.A.A.A.A.A.A.A.A.A.A.A.A.A.A.A.A.A.A.A.A.A.A.A.A.A.A.A.A.",
"A.A.A.A.A.A.A.A.A.A.A.A.A.A.A.A.A.A.A.A.A.A.A.A.A.A.A.A.A.A.A.A.A.A.A.A.A.A.A.A.A.A.A.A.A.A.A.A.A.A.A.A.A.A.A.A.A.A.A.A.A.A.A.A.",
"A.A.A.A.A.A.A.A.A.A.A.A.A.A.A.A.A.A.A.A.A.A.A.A.A.A.A.A.A.A.A.A.A.A.A.A.A.A.A.A.A.A.A.A.A.A.A.A.A.A.A.A.A.A.A.A.A.A.A.A.A.A.A.A.",
"A.A.A.A.A.A.A.A.A.A.A.A.A.A.A.A.A.A.A.A.A.A.A.A.A.A.A.A.A.A.A.A.A.A.A.A.A.A.A.A.A.A.A.A.A.A.A.A.A.A.A.A.A.A.A.A.A.A.A.A.A.A.A.A.",
"A.A.A.A.A.A.A.A.A.A.A.A.A.A.A.A.A.A.A.A.A.A.A.A.A.A.A.A.A.A.A.A.A.A.A.A.A.A.A.A.A.A.A.A.A.A.A.A.A.A.A.A.A.A.A.A.A.A.A.A.A.A.A.A.",
"A.A.A.A.A.A.A.A.A.A.A.A.A.A.A.A.A.A.A.A.A.A.A.A.A.A.A.C.k.*.} i t t t t t t d o.f.M.A.A.A.A.A.A.A.A.A.A.A.A.A.A.A.A.A.A.A.A.A.A.",
"A.A.A.A.A.A.A.A.A.A.A.A.A.A.A.A.A.A.A.A.A.A.A.A.A.C.k.#.i < # . . . . . . . . < < i } :.M.A.A.A.A.A.A.A.A.A.A.A.A.A.A.A.A.A.A.A.",
"A.A.A.A.A.A.A.A.A.A.A.A.A.A.A.A.A.A.A.A.A.A.A.A.A.,.f < # < 8 t t t t t t t t < < . # < d &.M.A.A.A.A.A.A.A.A.A.A.A.A.A.A.A.A.A.",
"A.A.A.A.A.A.A.A.A.A.A.A.A.A.A.A.A.A.A.A.A.A.A.f.&.d * 2 } *.k.C.            M.f.o.d 9 < . * u -.A.A.A.A.A.A.A.A.A.A.A.A.A.A.A.A.",
"A.A.A.A.A.A.A.A.A.A.A.A.A.A.A.A.A.A.A.A.A.A.h.d % < #.:.M.                        C.k.#.u o X 6 ,.A.A.A.A.A.A.A.A.A.A.A.A.A.A.A.",
"A.A.A.A.A.A.A.A.A.A.A.A.A.A.A.A.A.A.A.A.k.<.O.$ > | M.                                  f.8 O .  .,.A.A.A.A.A.A.A.A.A.A.A.A.A.A.",
"A.A.A.A.A.A.A.A.A.A.A.A.A.A.A.A.A.A.A.M.d * * d &.l.                                      f.o.9 .  .M.A.A.A.A.A.A.A.A.A.A.A.A.A.",
"A.A.A.A.A.A.A.A.A.A.A.A.A.A.A.A.A.A.h.O.* o < <.                                              &.2 < &.C.A.A.A.A.A.A.A.A.A.A.A.A.",
"A.A.A.A.A.A.A.A.A.A.A.A.A.A.A.A.C.:.| # , p #.M.                                              M.O.# i >.A.A.A.A.A.A.A.A.A.A.A.A.",
"A.A.A.A.A.A.A.A.A.A.A.A.A.A.A.k.| 6 . i &.M.                                                    h.d . | M.A.A.A.A.A.A.A.A.A.A.A.",
"A.A.A.A.A.A.A.A.A.A.A.A.A.C.&.u # o p :.C.                                                        o.< < f.A.A.A.A.A.A.A.A.A.A.A.",
"A.A.A.A.A.A.A.A.A.A.A.A.C.:.9 X o i :.                                                            f.< < o.A.A.A.A.A.A.A.A.A.A.A.",
"A.A.A.A.A.A.A.A.A.A.A.A.f.5 X @ a h.                                                              M.d . d M.A.A.A.A.A.A.A.A.A.A.",
"A.A.A.A.A.A.A.A.A.A.A.M.i O X d M.                                                                  #.< < :.A.A.A.A.A.A.A.A.A.A.",
"A.A.A.A.A.A.A.A.A.A.M.&.= X 8 :.                                          f.-.{ d t d &.M.          k.t # } C.A.A.A.A.A.A.A.A.A.",
"A.A.A.A.A.A.A.A.A.M.o.2 = } :.                                        f.-.9 # % . . . < d &.M.      C.} # r k.A.A.A.A.A.A.A.A.A.",
"A.A.A.A.A.A.A.A.A.:., @ d M.                                        f.8 O O + v T T t < . 2 O.j.      #.< < <.A.A.A.A.A.A.A.A.A.",
"A.A.A.A.A.A.A.A.h.} + < &.                                        M.d o X $ } ( N 9.b.) E x #  .h.    <.< < #.A.A.A.A.A.A.A.A.A.",
"A.A.A.A.A.A.&. .t & i &.M.                                        &.> o 3 @.M.7.~ 6.V.[ J / 6 # X.k.  k.r # } C.A.A.A.A.A.A.A.A.",
"A.A.A.A.A.M.d . : X.:.C.                                          d . I 2.a.Z.a.t.a.V.[ Q 8.#.& % a C.C.a # r N.A.A.A.A.A.A.A.A.",
"A.A.A.A.A.:.: % i l.C.                                            i . R K [ i.Z.Z.Z.Z.a.a.v.M.5 . * <.A.X.# 8 j.A.A.A.A.A.A.A.A.",
"A.A.A.A.A.} # 8 k.                                                i # U 5.N 5.a.A.M.f.f.M.A.Z.0 - X p A.#.< < <.A.A.A.A.A.A.A.A.",
"A.A.A.A.A.i . t C.                                                } . t q.7.N u.X.X . . 2 w.6.F g . 2 A.-.< < -.A.A.A.A.A.A.A.A.",
"A.A.A.A.A.t . t                                                   #.< < :.a.a.u.+ . . . X w.N D j . = A.<.< < #.A.A.A.A.A.A.A.A.",
"A.A.A.A.A.t . t                                                   k.r # } C.A.C.+ . . . O w.9./ h . , C.j.8 # X.A.A.A.A.A.A.A.A.",
"A.A.A.A.A.i . t C.                                                C.a # q r.0.e.L . . . t A.A.#.@ X 9 C.z.8 # f A.A.A.A.A.A.A.A.",
"A.A.A.A.A.} # 8 k.                                                  X.# Y ! Z ~ x.=.=.;.a.a.v.} + > #.C.z.9 # } A.A.A.A.A.A.A.A.",
"A.A.A.A.A.*.< < -.                                                  #.< n C C ` c.Z.Z.B.[ Q [ u . | C.  z.8 # f A.A.A.A.A.A.A.A.",
"A.A.A.A.A.j.9 # X.                                                  d., b W 3.a.c.y.a.m.^ C V k 2 >.    z.8 # } A.A.A.A.A.A.A.A.",
"A.A.A.A.A.N.r # a C.                                                M.r o 3 k.n.' Q ] V.4.N M g i C.    d.> O p A.A.A.A.A.A.A.A.",
"A.A.A.A.A.C.} # r k.                            C.C.                  } + % #.a.J C [ Z.1.A m z o.      >.# o f A.A.A.A.A.A.A.A.",
"A.A.A.A.A.A.*.< < *.                          M.:.>.M.                f.d . P 1.G H _ X.i . .  .M.    C. .% * #.A.A.A.A.A.A.A.A.",
"A.A.A.A.A.A.k.8 # }                         &.d 2 6 o.&.                <. .* x B S P # . t  .,.      N.i # a M.A.A.A.A.A.A.A.A.",
"A.A.A.A.A.A.C.i . i C.                      d . * 6 . < &.M.              <.1 g l c ; 8  .,.          =.8 # $.A.A.A.A.A.A.A.A.A.",
"A.A.A.A.A.A.A.} # 8 k.                  C.&.2 . t t X X $ &.C.            M.o.u 8 r X.d.C.        M. .r .  .h.A.A.A.A.A.A.A.A.A.",
"A.A.A.A.A.A.A.O.% % +.                  d.5 X < &.&.$ . . 2 :.                  C.C.C.            f.< . u ,.A.A.A.A.A.A.A.A.A.A.",
"A.A.A.A.A.A.A.>.# o f                   @.o X % &.&.% o . . r X.>.                              M.o.% : o.A.A.A.A.A.A.A.A.A.A.A.",
"A.A.A.A.A.A.A.j., O t C.              #.> X @ @ = r < % 9 t O . r f.                            &.8 < &.M.A.A.A.A.A.A.A.A.A.A.A.",
"A.A.A.A.A.A.A.C.} # t k.            C., . . # O . 2 < < -.<.5 . X 5 <.C.                      M.d . d M.A.A.A.A.A.A.A.A.A.A.A.A.",
"A.A.A.A.A.A.A.A.*.< < *.            j.O . . . o O 5 < < -.C. .O . . , #.                    f.} * 2 &.A.A.A.A.A.A.A.A.A.A.A.A.A.",
"A.A.A.A.A.A.A.A.k.r # } C.           .o . X 5 8 f p < < >.d.X.X . . . 5 O.j.C.            C.| + + O.M.A.A.A.A.A.A.A.A.A.A.A.A.A.",
"A.A.A.A.A.A.A.A.C.} # t l.        :.< X O O f j.N.f # = i 6 $ 2 X . X X @ < a <.        k.| : o i h.A.A.A.A.A.A.A.A.A.A.A.A.A.A.",
"A.A.A.A.A.A.A.A.A.:.< < #.      C.t . X + @ , >.A.a . # o O f t $ @ < + O . X = :.M.    <.: X i d.A.A.A.A.A.A.A.A.A.A.A.A.A.A.A.",
"A.A.A.A.A.A.A.A.A.M.a . d M.    <.O . . . O O } A.i O o $ u d.f . 2 r < o . . X , &.  C. .% * #.A.A.A.A.A.A.A.A.A.A.A.A.A.A.A.A.",
"A.A.A.A.A.A.A.A.A.A.&.8 6 f.    &.X . o > % . O.A.O.. = O.k.A.a + * $ . + . . . . d M.k.i # } M.A.A.A.A.A.A.A.A.A.A.A.A.A.A.A.A.",
"A.A.A.A.A.A.A.A.A.A.M. .6 o.M.j.9 o o . u u o.<.A.,.&.&.M.A.A.O.# O 6 d > . $ < + % -.=.< < *.A.A.A.A.A.A.A.A.A.A.A.A.A.A.A.A.A.",
"A.A.A.A.A.A.A.A.A.A.A.,.t 5 } i O . = < . > o.M.A.A.A.A.A.A.A.,.f a :.<.< . u -.+ O 6 8 @ r k.A.A.A.A.A.A.A.A.A.A.A.A.A.A.A.A.A.",
"A.A.A.A.A.A.A.A.A.A.A.M.&.8 # % X o o % + o < ,.A.A.A.A.A.A.A.C.N.N.C.-.+ + } d.< X X o @ O.C.A.A.A.A.A.A.A.A.A.A.A.A.A.A.A.A.A.",
"A.A.A.A.A.A.A.A.A.A.A.A.M.&.i , * o < < : = 8 <.A.A.A.A.A.A.A.A.A.A.C.} % % #.*.> . . + | h.A.A.A.A.A.A.A.A.A.A.A.A.A.A.A.A.A.A.",
"A.A.A.A.A.A.A.A.A.A.A.A.A.C.k.d.X.@.@.<.-.-.f.M.A.A.A.A.A.A.A.A.A.M.*.w # 8 r 8 . o * f l.A.A.A.A.A.A.A.A.A.A.A.A.A.A.A.A.A.A.A.",
"A.A.A.A.A.A.A.A.A.A.A.A.A.A.A.A.A.A.A.A.A.A.A.A.A.A.A.A.A.A.A.A.A.z.r # @ @ + # u  .<.C.A.A.A.A.A.A.A.A.A.A.A.A.A.A.A.A.A.A.A.A.",
"A.A.A.A.A.A.A.A.A.A.A.A.A.A.A.A.A.A.A.A.A.A.A.A.A.A.A.A.A.A.A.A.A.M. .# o o 9 $.h.A.A.A.A.A.A.A.A.A.A.A.A.A.A.A.A.A.A.A.A.A.A.A.",
"A.A.A.A.A.A.A.A.A.A.A.A.A.A.A.A.A.A.A.A.A.A.A.A.A.A.A.A.A.A.A.A.A.A.h.@.t | :.A.A.A.A.A.A.A.A.A.A.A.A.A.A.A.A.A.A.A.A.A.A.A.A.A.",
"A.A.A.A.A.A.A.A.A.A.A.A.A.A.A.A.A.A.A.A.A.A.A.A.A.A.A.A.A.A.A.A.A.A.A.A.A.A.A.A.A.A.A.A.A.A.A.A.A.A.A.A.A.A.A.A.A.A.A.A.A.A.A.A.",
"A.A.A.A.A.A.A.A.A.A.A.A.A.A.A.A.A.A.A.A.A.A.A.A.A.A.A.A.A.A.A.A.A.A.A.A.A.A.A.A.A.A.A.A.A.A.A.A.A.A.A.A.A.A.A.A.A.A.A.A.A.A.A.A.",
"A.A.A.A.A.A.A.A.A.A.A.A.A.A.A.A.A.A.A.A.A.A.A.A.A.A.A.A.A.A.A.A.A.A.A.A.A.A.A.A.A.A.A.A.A.A.A.A.A.A.A.A.A.A.A.A.A.A.A.A.A.A.A.A.",
"A.A.A.A.A.A.A.A.A.A.A.A.A.A.A.A.A.A.A.A.A.A.A.A.A.A.A.A.A.A.A.A.A.A.A.A.A.A.A.A.A.A.A.A.A.A.A.A.A.A.A.A.A.A.A.A.A.A.A.A.A.A.A.A.",
"A.A.A.A.A.A.A.A.A.A.A.A.A.A.A.A.A.A.A.A.A.A.A.A.A.A.A.A.A.A.A.A.A.A.A.A.A.A.A.A.A.A.A.A.A.A.A.A.A.A.A.A.A.A.A.A.A.A.A.A.A.A.A.A.",
"A.A.A.A.A.A.A.A.A.A.A.A.A.A.A.A.A.A.A.A.A.A.A.A.A.A.A.A.A.A.A.A.A.A.A.A.A.A.A.A.A.A.A.A.A.A.A.A.A.A.A.A.A.A.A.A.A.A.A.A.A.A.A.A."
};
