/* XPM */
static char *_45bdee762a44cabe197b2e875a76d3arFXNc1dcUilVZpvL[] = {
/* columns rows colors chars-per-pixel */
"64 64 157 2 ",
"   c black",
".  c #0D0A0D",
"X  c #161416",
"o  c #1C1B1C",
"O  c #222022",
"+  c #262526",
"@  c #2A292A",
"#  c #2E2D2E",
"$  c #323132",
"%  c #353435",
"&  c #383738",
"*  c #3B3A3B",
"=  c gray24",
"-  c #4D151A",
";  c #592A2D",
":  c #403F40",
">  c gray26",
",  c #454445",
"<  c #474647",
"1  c #494849",
"2  c #4B4B4B",
"3  c gray30",
"4  c gray31",
"5  c #515051",
"6  c #535253",
"7  c #555455",
"8  c #565656",
"9  c #585858",
"0  c #5B5B5B",
"q  c #5D5D5D",
"w  c #755A5B",
"e  c #785E60",
"r  c #606060",
"t  c gray39",
"y  c #656465",
"u  c #676767",
"i  c #6A6A6A",
"p  c gray43",
"a  c gray45",
"s  c #747474",
"d  c #777777",
"f  c gray47",
"g  c #7C7C7C",
"h  c #990F21",
"j  c #8A1723",
"k  c #9A1726",
"l  c #9A1D2A",
"z  c #A81124",
"x  c #9D2B34",
"c  c #9F363D",
"v  c #AA2430",
"b  c #AB2834",
"n  c #A72F38",
"m  c #B32834",
"M  c #B5333D",
"N  c #CA1A30",
"B  c #E21531",
"V  c #E51532",
"C  c #E01C34",
"Z  c #DD2639",
"A  c #E42138",
"S  c #E52138",
"D  c #E5263B",
"F  c #CF3945",
"G  c #D43744",
"H  c #DF3443",
"J  c #D53F4A",
"K  c #E53142",
"L  c #E53444",
"P  c #E43A49",
"I  c #E63A49",
"U  c #E53F4D",
"Y  c #944045",
"T  c #9D5357",
"R  c #A4454B",
"E  c #A54A4F",
"W  c #B84149",
"Q  c #B44A50",
"!  c #A85054",
"~  c #B9595E",
"^  c #D0464F",
"/  c #E6424F",
"(  c #E34652",
")  c #E74652",
"_  c #E85861",
"`  c #D46167",
"'  c #D7666B",
"]  c #C97A7D",
"[  c #DB7378",
"{  c #DC7479",
"}  c #E8666D",
"|  c #E96E74",
" . c #EA797E",
".. c #EB7D83",
"X. c #808080",
"o. c #838383",
"O. c #848484",
"+. c #888888",
"@. c gray54",
"#. c #8B8B8B",
"$. c gray56",
"%. c gray57",
"&. c #959595",
"*. c #9A9A9A",
"=. c #9E9D9E",
"-. c #9F9F9F",
";. c #A2A1A2",
":. c #A5A5A5",
">. c gray65",
",. c gray67",
"<. c #ACABAC",
"1. c #AEAEAE",
"2. c #B9ACAC",
"3. c gray70",
"4. c gray71",
"5. c #BCBBBC",
"6. c gray74",
"7. c #D38387",
"8. c #DC8084",
"9. c #D69194",
"0. c #E98387",
"q. c #EB8589",
"w. c #EC898D",
"e. c #EC8B8F",
"r. c #E69497",
"t. c #ED9699",
"y. c #EE9B9E",
"u. c #DE9EA0",
"i. c #E39EA1",
"p. c #EFA2A5",
"a. c #E7ABAD",
"s. c #F0ABAE",
"d. c #F0ADB0",
"f. c #EDB4B6",
"g. c #F1B4B6",
"h. c #F2BABC",
"j. c #F3BDBF",
"k. c #C3C2C3",
"l. c gray77",
"z. c #C6C6C6",
"x. c #CBCBCB",
"c. c #CDCDCD",
"v. c #D7D7D7",
"b. c #D8D8D8",
"n. c #DFDEDF",
"m. c #EEC2C4",
"M. c #F4C3C5",
"N. c #F5CBCD",
"B. c #F7D7D8",
"V. c #F8DFE0",
"C. c #E1E1E1",
"Z. c #E9E9E9",
"A. c #FAE8E8",
"S. c #FAE9EA",
"D. c #F4F4F4",
"F. c #FDF4F4",
"G. c white",
/* pixels */
"G.G.G.G.G.G.G.G.G.G.G.G.G.G.G.G.G.G.G.G.G.G.G.G.G.G.G.G.G.G.G.G.G.G.G.G.G.G.G.G.G.G.G.G.G.G.G.G.G.G.G.G.G.G.G.G.G.G.G.G.G.G.G.G.",
"G.G.G.G.G.G.G.G.G.G.G.G.G.G.G.G.G.G.G.G.G.G.G.G.G.G.G.G.G.G.G.G.G.G.G.G.G.G.G.G.G.G.G.G.G.G.G.G.G.G.G.G.G.G.G.G.G.G.G.G.G.G.G.G.",
"G.G.G.G.G.G.G.G.G.G.G.G.G.G.G.G.G.G.G.G.G.G.G.G.G.G.G.G.G.G.G.G.G.G.G.G.G.G.G.G.G.G.G.G.G.G.G.G.G.G.G.G.G.G.G.G.G.G.G.G.G.G.G.G.",
"G.G.G.G.G.G.G.G.G.G.G.G.G.G.G.G.G.G.G.G.G.G.G.G.G.G.G.G.G.G.G.G.G.G.G.G.G.G.G.G.G.G.G.G.G.G.G.G.G.G.G.G.G.G.G.G.G.G.G.G.G.G.G.G.",
"G.G.G.G.G.G.G.G.G.G.G.G.G.G.G.G.G.G.G.G.G.G.G.G.G.G.G.G.G.G.G.G.G.G.G.G.G.G.G.G.G.G.G.G.G.G.G.G.G.G.G.G.G.G.G.G.G.G.G.G.G.G.G.G.",
"G.G.G.G.G.G.G.G.G.G.G.G.G.G.G.G.G.G.G.G.G.G.G.G.G.G.G.G.G.G.G.G.G.G.G.G.G.G.G.G.G.G.G.G.G.G.G.G.G.G.G.G.G.G.G.G.G.G.G.G.G.G.G.G.",
"G.G.G.G.G.G.G.G.G.G.G.G.G.G.G.G.G.G.G.G.G.G.G.G.G.G.G.G.G.G.G.G.G.G.G.G.G.G.G.G.G.G.G.G.G.G.G.G.G.G.G.G.G.G.G.G.G.G.G.G.G.G.G.G.",
"G.G.G.G.G.G.G.G.G.G.G.G.G.G.G.G.G.G.G.G.G.G.G.G.G.G.G.G.G.G.G.G.G.G.G.G.G.G.G.G.G.G.G.G.G.G.G.G.G.G.G.G.G.G.G.G.G.G.G.G.G.G.G.G.",
"G.G.G.G.G.G.G.G.G.G.G.G.G.G.G.G.G.G.G.G.G.G.G.G.G.G.C.=.g a g o.X.X.@.-.1.6.c.Z.D.G.G.G.G.G.G.G.G.G.G.G.G.G.G.G.G.G.G.G.G.G.G.G.",
"G.G.G.G.G.G.G.G.G.G.G.G.G.G.G.G.G.G.G.G.G.G.G.G.x.;.d * o O # # # # @ 2 < 2 0 u o.=.5.v.D.G.G.G.G.G.G.G.G.G.G.G.G.G.G.G.G.G.G.G.",
"G.G.G.G.G.G.G.G.G.G.G.G.G.G.G.G.G.G.G.G.G.G.G.5.@.# # % # > 0 0 0 q q < 2 < # # @ 2 < r o.3.C.G.G.G.G.G.G.G.G.G.G.G.G.G.G.G.G.G.",
"G.G.G.G.G.G.G.G.G.G.G.G.G.G.G.G.G.G.G.G.G.C.%.i . 0 p @.4.z.n.n.n.n.c.6.1.=.@.d u < 2 # $ < f %.z.C.G.G.G.G.G.G.G.G.G.G.G.G.G.G.",
"G.G.G.G.G.G.G.G.G.G.G.G.G.G.G.G.G.G.G.G.C.:.= . q <.Z.D.        D.D.D.G.G.G.G.D.v.6.=.O.u < . < < o.3.D.G.G.G.G.G.G.G.G.G.G.G.G.",
"G.G.G.G.G.G.G.G.G.G.G.G.G.G.G.G.G.G.C.:.f < % 2 @.            D.=.0 < : 3 d 6.D.      D.v.=.f 2 2 . p :.C.G.G.G.G.G.G.G.G.G.G.G.",
"G.G.G.G.G.G.G.G.G.G.G.G.G.G.G.G.G.x.&.4 . q %.z.C.        D.3.o.> X . . . X * d v.          C.z.%.f # < @.5.G.G.G.G.G.G.G.G.G.G.",
"G.G.G.G.G.G.G.G.G.G.G.G.G.G.G.G.k.p + * f :.C.        C.%.i 4 . + @ j k h - . % #.c.              c.&.4 . @.5.G.G.G.G.G.G.G.G.G.",
"G.G.G.G.G.G.G.G.G.G.G.G.G.G.C.=.p o + o.C.          5.@.x h l p o.=.` L J w 6 & # @.x.              C.:.q . 0 1.G.G.G.G.G.G.G.G.",
"G.G.G.G.G.G.G.G.G.G.G.D.v.,.O.* X : O.k.            @.. N B Z 8.N.G.t.V e.F.C.=.8 # &.C.                #.O X i C.G.G.G.G.G.G.G.",
"G.G.G.G.G.G.G.G.G.G.c.&.r < # % : O.D.            5.u . F V S / h.G.i.i.i.G.N.r.` c 5 :.                z.0 o % :.G.G.G.G.G.G.G.",
"G.G.G.G.G.G.G.G.G.b.O.@ @ 2 p @.6.b.            D.@.. p 7.q._ ..h.u O X 4 n.h.) I ~ . f C.                z.i . f C.G.G.G.G.G.G.",
"G.G.G.G.G.G.G.G.D.f + o 0 ,.v.D.                k.0 # $.F.A.V.A.2.. . . . z.h.....] 2 2 :.                  =.2 2 3.G.G.G.G.G.G.",
"G.G.G.G.G.G.G.G.5.* . X 8 1.C.                D.$.; T [ .. .h.F.,.. . . . z.F.A.A.b.y . f                   b.q @ o.G.G.G.G.G.G.",
"G.G.G.G.G.G.G.G.@.o . X O % f :.C.            D.r v G L S ) d.F.,.. . . X C.F.h.e.t.Q . u                   D.f . p C.G.G.G.G.G.",
"G.G.G.G.G.G.G.x.i . > 2 + + . , 3.            D.0 z C K I | M.M.m.Y + + @.G.F.s.) B Q . f                     %.< 2 z.G.G.G.G.G.",
"G.G.G.G.G.G.G.;.# 0 <.z.1., . X : 6.            i h m [ j.B.h.} ) p.D.f.f.j.F.j.e.' b % o.                    z.2 < %.G.G.G.G.G.",
"G.G.G.G.G.G.3.q + r =.o.i $ . . X a D.          %.2 $ o.=.v.0.S D y.G.h.B q.g.F.C.g + # 1.                    C.y . f G.G.G.G.G.",
"G.G.G.G.G.G.o.o @ q % + . . . . . 2 c.          C.5.@.. % 4 ^ C ( a.D.j.e.B ..h.*.$ O q z.                      y . y G.G.G.G.G.",
"G.G.G.G.G.G.u o @ # % + 2 > + o O @ &.              6.f + o n M W e o.3.u.q.U 9.4 X O 1.                        y . y G.G.G.G.G.",
"G.G.G.G.G.G.*.# # r o.1.5.f . 2 + X 4 =.D.            z.o.r < 2 # # # < u E ! R o o 0 z.                        y . y G.G.G.G.G.",
"G.G.G.G.G.G.x.@.r 1.D.D.3.8 % r 3 X . , 5.                C.z.=.@.d y 2 . @ . . > f z.                          y . y G.G.G.G.G.",
"G.G.G.G.G.G.G.C.C.C.G.Z.d O % 5 + . . . 5 k.                      D.b.=.o.p p f :.C.                            y . y G.G.G.G.G.",
"G.G.G.G.G.G.G.G.G.G.G.Z.g # + . % X . . X r 3.                                                                  y . u G.G.G.G.G.",
"G.G.G.G.G.G.G.G.G.G.G.D.5.&.f f u 6 X O . . $.                                                                D.u . p G.G.G.G.G.",
"G.G.G.G.G.G.G.G.G.G.G.G.G.G.G.z.g @ $.+.4 O u 4.D.                                                            b.q @ o.G.G.G.G.G.",
"G.G.G.G.G.G.G.G.G.G.G.G.G.G.v.u + 6 z.D.5.u . 4 :.C.                                                          <.< 2 ,.G.G.G.G.G.",
"G.G.G.G.G.G.G.G.G.G.G.G.G.n.&.$ o p 3.1.1.0 . . % :.                                                        C.o.# p v.G.G.G.G.G.",
"G.G.G.G.G.G.G.G.G.G.G.G.G.:.= o @ : < 2 2 % o . X 2 :.                                                      4.4 , =.D.G.G.G.G.G.",
"G.G.G.G.G.G.G.G.G.G.G.G.G.:.. O . # 2 < < < % # X . %.C.                                                  C.=.& g v.G.G.G.G.G.G.",
"G.G.G.G.G.G.G.G.G.G.G.G.G.5.&.p f g a 4 4 y :.:.u 6 8 4.D.                                              b.O.2 f 5.D.G.G.G.G.G.G.",
"G.G.G.G.G.G.G.G.G.G.G.G.G.G.G.G.G.Z.g O . = :.:.y * 4 3.D.                                              :.> % :.G.G.G.G.G.G.G.G.",
"G.G.G.G.G.G.G.G.G.C.5.6.C.5.&.o.3.c.0 o + @ % 3 . . d C.                                            C.5.f $ f z.G.G.G.G.G.G.G.G.",
"G.G.G.G.G.G.G.G.G.z.0 , %.%.. O < g 6 . @ @ X X 4 f :.                                              =.< * &.x.G.G.G.G.G.G.G.G.G.",
"G.G.G.G.G.G.G.G.G.1.> o > i % O + O X . . X o 4 :.                                                C.d o * 6.G.G.G.G.G.G.G.G.G.G.",
"G.G.G.G.G.G.G.G.G.1.: + . i > . + O . . . > *.k.D.                                              D.:., * f b.G.G.G.G.G.G.G.G.G.G.",
"G.G.G.G.G.G.G.G.G.6.2 % < . o . X X o O , =.                                                    4.p @ &.C.G.G.G.G.G.G.G.G.G.G.G.",
"G.G.G.G.G.G.G.G.G.*.< o * o . . . 2 @.c.D.                                                    3.a . O.c.G.G.G.G.G.G.G.G.G.G.G.G.",
"G.G.G.G.G.G.G.G.G.*.o o . o X O i 3.                                                        c.p o 8 3.G.G.G.G.G.G.G.G.G.G.G.G.G.",
"G.G.G.G.G.G.G.G.G.#.* X O q :.6.D.                                                        C.d o # O.D.G.G.G.G.G.G.G.G.G.G.G.G.G.",
"G.G.G.G.G.G.G.G.G.k., % p c.                                                            3.g @ X i v.G.G.G.G.G.G.G.G.G.G.G.G.G.G.",
"G.G.G.G.G.G.G.G.G.v.p @ O.C.                                                          3.9 X X 0 :.G.G.G.G.G.G.G.G.G.G.G.G.G.G.G.",
"G.G.G.G.G.G.G.G.G.D.:.0 4 %.z.C.                                                    C.o.X O 4 4.D.G.G.G.G.G.G.G.G.G.G.G.G.G.G.G.",
"G.G.G.G.G.G.G.G.G.G.C.:.u 8 0 f =.v.D.                                          C.:.f = = p z.D.G.G.G.G.G.G.G.G.G.G.G.G.G.G.G.G.",
"G.G.G.G.G.G.G.G.G.G.G.C.5.@.8 . < r o.1.v.D.                                  D.:.2 + 4 :.C.G.G.G.G.G.G.G.G.G.G.G.G.G.G.G.G.G.G.",
"G.G.G.G.G.G.G.G.G.G.G.G.G.C.:.f 2 # # 2 r i g &.v.D.                        D.3.p + , %.C.G.G.G.G.G.G.G.G.G.G.G.G.G.G.G.G.G.G.G.",
"G.G.G.G.G.G.G.G.G.G.G.G.G.G.G.C.3.o.r < # O o % 0 p o.,.v.D.                v.$.& o.4.n.G.G.G.G.G.G.G.G.G.G.G.G.G.G.G.G.G.G.G.G.",
"G.G.G.G.G.G.G.G.G.G.G.G.G.G.G.G.G.D.v.,.o.2 # % # . # 2 r f @.1.v.D.    D.v.p = u x.G.G.G.G.G.G.G.G.G.G.G.G.G.G.G.G.G.G.G.G.G.G.",
"G.G.G.G.G.G.G.G.G.G.G.G.G.G.G.G.G.G.G.G.D.c.4.&.o.p q < # # # 2 0 u y y y q % . @.G.G.G.G.G.G.G.G.G.G.G.G.G.G.G.G.G.G.G.G.G.G.G.",
"G.G.G.G.G.G.G.G.G.G.G.G.G.G.G.G.G.G.G.G.G.G.G.G.G.D.v.,.o.r 0 < @ . . . . @ : f :.G.G.G.G.G.G.G.G.G.G.G.G.G.G.G.G.G.G.G.G.G.G.G.",
"G.G.G.G.G.G.G.G.G.G.G.G.G.G.G.G.G.G.G.G.G.G.G.G.G.G.G.G.D.Z.c.,.O.p u y p o.3.C.G.G.G.G.G.G.G.G.G.G.G.G.G.G.G.G.G.G.G.G.G.G.G.G.",
"G.G.G.G.G.G.G.G.G.G.G.G.G.G.G.G.G.G.G.G.G.G.G.G.G.G.G.G.G.G.G.G.G.G.G.G.G.G.G.G.G.G.G.G.G.G.G.G.G.G.G.G.G.G.G.G.G.G.G.G.G.G.G.G.",
"G.G.G.G.G.G.G.G.G.G.G.G.G.G.G.G.G.G.G.G.G.G.G.G.G.G.G.G.G.G.G.G.G.G.G.G.G.G.G.G.G.G.G.G.G.G.G.G.G.G.G.G.G.G.G.G.G.G.G.G.G.G.G.G.",
"G.G.G.G.G.G.G.G.G.G.G.G.G.G.G.G.G.G.G.G.G.G.G.G.G.G.G.G.G.G.G.G.G.G.G.G.G.G.G.G.G.G.G.G.G.G.G.G.G.G.G.G.G.G.G.G.G.G.G.G.G.G.G.G.",
"G.G.G.G.G.G.G.G.G.G.G.G.G.G.G.G.G.G.G.G.G.G.G.G.G.G.G.G.G.G.G.G.G.G.G.G.G.G.G.G.G.G.G.G.G.G.G.G.G.G.G.G.G.G.G.G.G.G.G.G.G.G.G.G.",
"G.G.G.G.G.G.G.G.G.G.G.G.G.G.G.G.G.G.G.G.G.G.G.G.G.G.G.G.G.G.G.G.G.G.G.G.G.G.G.G.G.G.G.G.G.G.G.G.G.G.G.G.G.G.G.G.G.G.G.G.G.G.G.G."
};
