/* XPM */
static char *_3586819cf03488cde29afa51538e345ExAz9zRZwtCaQlvM[] = {
/* columns rows colors chars-per-pixel */
"64 64 150 2 ",
"   c black",
".  c #0D0A0D",
"X  c #161416",
"o  c #1C1B1C",
"O  c #222022",
"+  c #262526",
"@  c #2A292A",
"#  c #2E2D2E",
"$  c #323132",
"%  c #353435",
"&  c #383738",
"*  c #3B3A3B",
"=  c gray24",
"-  c #4D151A",
";  c #592A2D",
":  c #403F40",
">  c gray26",
",  c #454445",
"<  c #474647",
"1  c #494849",
"2  c #4B4B4B",
"3  c gray31",
"4  c #515051",
"5  c #555455",
"6  c #565656",
"7  c #585858",
"8  c #5B5B5B",
"9  c #5D5D5D",
"0  c #755A5B",
"q  c #606060",
"w  c #626162",
"e  c gray39",
"r  c #656465",
"t  c #676767",
"y  c #6A6A6A",
"u  c #6D6D6D",
"i  c gray45",
"p  c #777777",
"a  c #797979",
"s  c #7C7C7C",
"d  c #7E7D7E",
"f  c #990F21",
"g  c #8A1723",
"h  c #9A1726",
"j  c #9A1D2A",
"k  c #A81124",
"l  c #9D2B34",
"z  c #9F363D",
"x  c #AA2430",
"c  c #AB2834",
"v  c #A72F38",
"b  c #B32834",
"n  c #B5333D",
"m  c #CA1A30",
"M  c #E21531",
"N  c #E51532",
"B  c #E01C34",
"V  c #DD2639",
"C  c #E42138",
"Z  c #E52138",
"A  c #E5263B",
"S  c #CF3945",
"D  c #D43744",
"F  c #D53F4A",
"G  c #E53142",
"H  c #E53444",
"J  c #E43A49",
"K  c #944045",
"L  c #9D5357",
"P  c #A4454B",
"I  c #A54A4F",
"U  c #B84149",
"Y  c #B44A50",
"T  c #A85054",
"R  c #B9595E",
"E  c #D0464F",
"W  c #E6424F",
"Q  c #E34652",
"!  c #E74652",
"~  c #E85861",
"^  c #CF646A",
"/  c #D46167",
"(  c #D7666B",
")  c #C97A7D",
"_  c #DB7378",
"`  c #DC7479",
"'  c #E8666D",
"]  c #E96E74",
"[  c #EB7D83",
"{  c #808080",
"}  c #838383",
"|  c #848484",
" . c gray54",
".. c #8B8B8B",
"X. c gray56",
"o. c gray57",
"O. c #959595",
"+. c gray60",
"@. c #9A9A9A",
"#. c #9E9D9E",
"$. c #A2A1A2",
"%. c #A5A5A5",
"&. c #A6A5A6",
"*. c gray67",
"=. c #ACABAC",
"-. c #AEAEAE",
";. c #B9ACAC",
":. c gray70",
">. c gray71",
",. c #BCBBBC",
"<. c gray74",
"1. c #D38387",
"2. c #DC8084",
"3. c #D69194",
"4. c #E98387",
"5. c #EB8589",
"6. c #EC8B8F",
"7. c #E69497",
"8. c #ED9699",
"9. c #EE9B9E",
"0. c #E39EA1",
"q. c #EFA2A5",
"w. c #E7ABAD",
"e. c #F0ABAE",
"r. c #EDB4B6",
"t. c #F1B4B6",
"y. c #F2BABC",
"u. c #F2BBBD",
"i. c #F2BCBE",
"p. c #F3BDBF",
"a. c #C3C2C3",
"s. c #C6C6C6",
"d. c #CBCBCB",
"f. c #CDCDCD",
"g. c #D7D7D7",
"h. c #D8D8D8",
"j. c #DFDEDF",
"k. c #EEC2C4",
"l. c #F4C3C5",
"z. c #F5CBCD",
"x. c #E1D6D7",
"c. c #F7D7D8",
"v. c #E1E1E1",
"b. c #E9E9E9",
"n. c #FAE8E8",
"m. c #FAE9EA",
"M. c #F4F4F4",
"N. c #FDF4F4",
"B. c #FDF5F5",
"V. c white",
/* pixels */
"V.V.V.V.V.V.V.V.V.V.V.V.V.V.V.V.V.V.V.V.V.V.V.V.V.V.V.V.V.V.V.V.V.V.V.V.V.V.V.V.V.V.V.V.V.V.V.V.V.V.V.V.V.V.V.V.V.V.V.V.V.V.V.V.",
"V.V.V.V.V.V.V.V.V.V.V.V.V.V.V.V.V.V.V.V.V.V.V.V.V.V.V.V.V.V.V.V.V.V.V.V.V.V.V.V.V.V.V.V.V.V.V.V.V.V.V.V.V.V.V.V.V.V.V.V.V.V.V.V.",
"V.V.V.V.V.V.V.V.V.V.V.V.V.V.V.V.V.V.V.V.V.V.V.V.V.V.V.V.V.V.V.V.V.V.V.V.V.V.V.V.V.V.V.V.V.V.V.V.V.V.V.V.V.V.V.V.V.V.V.V.V.V.V.V.",
"V.V.V.V.V.V.V.V.V.V.V.V.V.V.V.V.V.V.V.V.V.V.V.V.V.V.V.V.V.V.V.V.V.V.V.V.V.V.V.V.V.V.V.V.V.V.V.V.V.V.V.V.V.V.V.V.V.V.V.V.V.V.V.V.",
"V.V.V.V.V.V.V.V.V.V.V.V.V.V.V.V.V.V.V.V.V.V.V.V.V.V.V.V.V.V.V.V.V.V.V.V.V.V.V.V.V.V.V.V.V.V.V.V.V.V.V.V.V.V.V.V.V.V.V.V.V.V.V.V.",
"V.V.V.V.V.V.V.V.V.V.V.V.V.V.V.V.V.V.V.V.V.V.V.V.V.V.V.V.V.V.V.V.V.V.V.V.V.V.V.V.V.V.V.V.V.V.V.V.V.V.V.V.V.V.V.V.V.V.V.V.V.V.V.V.",
"V.V.V.V.V.V.V.V.V.V.V.V.V.V.V.V.V.V.V.V.V.V.V.V.V.V.V.V.V.V.V.V.V.V.V.V.V.V.V.V.V.V.V.V.V.V.V.V.V.V.V.V.V.V.V.V.V.V.V.V.V.V.V.V.",
"V.V.V.V.V.V.V.V.V.V.V.V.V.V.V.V.V.V.V.V.V.V.V.V.V.V.V.V.V.V.V.V.V.V.V.V.V.V.V.V.V.V.V.V.V.V.V.V.V.V.V.V.V.V.V.V.V.V.V.V.V.V.V.V.",
"V.V.V.V.V.V.V.V.V.V.V.V.V.V.V.V.V.V.V.V.V.V.V.M.b.f.<.-.#.X.d } } d i a #.v.V.V.V.V.V.V.V.V.V.V.V.V.V.V.V.V.V.V.V.V.V.V.V.V.V.V.",
"V.V.V.V.V.V.V.V.V.V.V.V.V.V.V.V.V.V.V.M.g.<.#.} w 8 1 1 1 # # # # # O o * p $.d.V.V.V.V.V.V.V.V.V.V.V.V.V.V.V.V.V.V.V.V.V.V.V.V.",
"V.V.V.V.V.V.V.V.V.V.V.V.V.V.V.V.V.v.:.| w 1 1 # # # 1 1 1 8 8 8 8 8 > # % # #  .,.V.V.V.V.V.V.V.V.V.V.V.V.V.V.V.V.V.V.V.V.V.V.V.",
"V.V.V.V.V.V.V.V.V.V.V.V.V.V.v.s.o.a 1 # # 1 1 r p X.#.-.<.f.j.j.j.j.s.>. .u 8 . y o.v.V.V.V.V.V.V.V.V.V.V.V.V.V.V.V.V.V.V.V.V.V.",
"V.V.V.V.V.V.V.V.V.V.V.V.M.:.| 1 1 . 1 w } #.<.g.M.V.V.V.V.M.M.M.        M.b.=.w . = &.v.V.V.V.V.V.V.V.V.V.V.V.V.V.V.V.V.V.V.V.V.",
"V.V.V.V.V.V.V.V.V.V.V.v.&.u . 1 1 a #.g.M.      M.<.i 3 : < 8 #.M.             .1 % 1 a &.v.V.V.V.V.V.V.V.V.V.V.V.V.V.V.V.V.V.V.",
"V.V.V.V.V.V.V.V.V.V.,. .1 # a o.s.v.          g.p * X . . . X > | :.M.        v.s.o.8 . 3 O.d.V.V.V.V.V.V.V.V.V.V.V.V.V.V.V.V.V.",
"V.V.V.V.V.V.V.V.V.,. .. 3 O.d.              d.X.% . - f h g @ + . 3 y o.v.        v.&.a * + u a.V.V.V.V.V.V.V.V.V.V.V.V.V.V.V.V.",
"V.V.V.V.V.V.V.V.-.8 . 9 &.v.              d. .# & 4 0 F H / #.} u j f l  .<.          v.} + o u #.v.V.V.V.V.V.V.V.V.V.V.V.V.V.V.",
"V.V.V.V.V.V.V.v.y X O X.                v.O.# 6 #.v.N.6.M 8.V.z.2.V M m .  .            a.} > X * } *.g.M.V.V.V.V.V.V.V.V.V.V.V.",
"V.V.V.V.V.V.V.&.% o 8 s.                &.3 z ^ 7.z.V.0.0.0.V.i.W C N S . r ,.            M.| > % # 1 w O.d.V.V.V.V.V.V.V.V.V.V.",
"V.V.V.V.V.V.v.a . y s.                v.a . R J W i.v.3 X O r i.[ ~ 5.1.u .  .M.            g.<. .u 1 @ @ | h.V.V.V.V.V.V.V.V.V.",
"V.V.V.V.V.V.:.1 1 #.                  &.1 1 ) [ [ i.s.. . . . ;.m.c.m.N.X.# 8 a.                M.h.*.8 o + d M.V.V.V.V.V.V.V.V.",
"V.V.V.V.V.V.} # 8 g.                  a . r x.m.m.N.s.. . . . =.N.y.[ 4._ L ; X.M.                v.-.6 X . % <.V.V.V.V.V.V.V.V.",
"V.V.V.V.V.v.u . a M.                  r . Y 8.6.i.N.v.X . . . =.N.e.W C G D x w M.            v.&.a % O X . o  .V.V.V.V.V.V.V.V.",
"V.V.V.V.V.s.1 1 o.                    a . Y N W e.N.V. .+ + K k.l.l.] J G B k 8 M.            :.< . + + 1 > . y d.V.V.V.V.V.V.V.",
"V.V.V.V.V.o.1 1 s.                    } % c ( 6.i.N.i.r.r.M.q.! ' y.c.p.` b f y             <.= X . < -.s.*.8 # $.V.V.V.V.V.V.V.",
"V.V.V.V.V.a . r v.                    -.# + } j.N.t.5.N i.V.9.A C 4.h.#.} % 1 X.          M.p X . . $ y } #.w + 9 :.V.V.V.V.V.V.",
"V.V.V.V.V.r . r                       s.9 O $ +.i.[ N 6.i.M.w.Q C E 3 % .  .,.v.          f.1 . . . . . + % 9 @ o | V.V.V.V.V.V.",
"V.V.V.V.V.r . r                         -.O X 4 3.W 6.3.>.| 0 U n v o + a ,.              O.@ O o + > 1 + % # @ o r V.V.V.V.V.V.",
"V.V.V.V.V.r . r                         s.8 o o P T I r 1 # # # 1 < w } s.            M.#.4 X + 1 . a <.-.} w # # +.V.V.V.V.V.V.",
"V.V.V.V.V.r . r                           s.a : . . # . 1 r p X.#.s.v.                <.1 . X 1 w $ 6 >.M.M.*.9  .d.V.V.V.V.V.V.",
"V.V.V.V.V.r . r                             v.&.a u u | #.g.M.                      a.3 . . . @ 4 % O p b.V.v.v.v.V.V.V.V.V.V.V.",
"V.V.V.V.V.r . r                                                                   :.q X . . X $ . + # d b.V.V.V.V.V.V.V.V.V.V.V.",
"V.V.V.V.V.u . r M.                                                                X.. . O X 3 e d p O.,.M.V.V.V.V.V.V.V.V.V.V.V.",
"V.V.V.V.V.} # 8 g.                                                            M.>.w O 4  .o.$ d a.V.V.V.V.V.V.V.V.V.V.V.V.V.V.V.",
"V.V.V.V.V.*.1 1 *.                                                          v.&.3 . e ,.M.a.6 O r g.V.V.V.V.V.V.V.V.V.V.V.V.V.V.",
"V.V.V.V.V.g.u # } v.                                                        &.$ . . 9 -.-.>.u o $ O.v.V.V.V.V.V.V.V.V.V.V.V.V.V.",
"V.V.V.V.V.M.#.1 3 :.                                                      &.1 X . o % 1 1 1 = # o = &.V.V.V.V.V.V.V.V.V.V.V.V.V.",
"V.V.V.V.V.V.g.d & #.v.                                                  v.o.. X $ % 1 1 1 1 # . O . &.V.V.V.V.V.V.V.V.V.V.V.V.V.",
"V.V.V.V.V.V.M.<.a 1 | g.                                              M.:.6 6 r &.&.w 3 4 i a a u O.,.V.V.V.V.V.V.V.V.V.V.V.V.V.",
"V.V.V.V.V.V.V.V.&.% > &.                                              M.:.3 * r &.&.= . O d b.V.V.V.V.V.V.V.V.V.V.V.V.V.V.V.V.V.",
"V.V.V.V.V.V.V.V.s.a $ a <.v.                                            v.a . . 1 % @ O o 9 f.:.} O.,.v.,.,.v.V.V.V.V.V.V.V.V.V.",
"V.V.V.V.V.V.V.V.V.d.O.* 1 #.                                              &.a 3 X X @ # . 3 d < O . o.o.< 8 s.V.V.V.V.V.V.V.V.V.",
"V.V.V.V.V.V.V.V.V.V.<.* o i v.                                                &.4 o X . . X O @ O % y > o = -.V.V.V.V.V.V.V.V.V.",
"V.V.V.V.V.V.V.V.V.V.g.a * < &.M.                                              M.a.+.> . . . O + . > y . + > -.V.V.V.V.V.V.V.V.V.",
"V.V.V.V.V.V.V.V.V.V.V.v.O.# u :.                                                    #.< O o X X . o . 1 % 1 <.V.V.V.V.V.V.V.V.V.",
"V.V.V.V.V.V.V.V.V.V.V.V.d.| . i :.                                                    M.f.| 3 . . . o * o 1 +.V.V.V.V.V.V.V.V.V.",
"V.V.V.V.V.V.V.V.V.V.V.V.V.:.6 o u d.                                                        >.r O X o . o o +.V.V.V.V.V.V.V.V.V.",
"V.V.V.V.V.V.V.V.V.V.V.V.V.M.| # o p v.                                                        M.<.&.9 O X * X.V.V.V.V.V.V.V.V.V.",
"V.V.V.V.V.V.V.V.V.V.V.V.V.V.g.y X @ d :.                                                            d.u % < a.V.V.V.V.V.V.V.V.V.",
"V.V.V.V.V.V.V.V.V.V.V.V.V.V.V.&.9 X X 8 :.                                                          v.| # u g.V.V.V.V.V.V.V.V.V.",
"V.V.V.V.V.V.V.V.V.V.V.V.V.V.V.M.:.4 O X } v.                                                    v.s.o.3 8 &.M.V.V.V.V.V.V.V.V.V.",
"V.V.V.V.V.V.V.V.V.V.V.V.V.V.V.V.M.a.u = = a &.v.                                          M.g.#.a 6 8 r &.v.V.V.V.V.V.V.V.V.V.V.",
"V.V.V.V.V.V.V.V.V.V.V.V.V.V.V.V.V.V.v.&.3 @ 1 &.M.                                  M.g.*.} w 1 . 6  .,.v.V.V.V.V.V.V.V.V.V.V.V.",
"V.V.V.V.V.V.V.V.V.V.V.V.V.V.V.V.V.V.V.v.X.< + u :.M.                        M.g.O.d t e 1 # # 1 a &.v.V.V.V.V.V.V.V.V.V.V.V.V.V.",
"V.V.V.V.V.V.V.V.V.V.V.V.V.V.V.V.V.V.V.V.v.:.} & X.h.                M.g.*.} u 8 % o O # 1 w } :.v.V.V.V.V.V.V.V.V.V.V.V.V.V.V.V.",
"V.V.V.V.V.V.V.V.V.V.V.V.V.V.V.V.V.V.V.V.V.V.d.r : u g.M.    M.g.*.X.p e 1 # . # % # < } *.g.M.V.V.V.V.V.V.V.V.V.V.V.V.V.V.V.V.V.",
"V.V.V.V.V.V.V.V.V.V.V.V.V.V.V.V.V.V.V.V.V.V.V. .. % 8 r r r r 8 1 # # # 1 8 u } O.:.f.M.V.V.V.V.V.V.V.V.V.V.V.V.V.V.V.V.V.V.V.V.",
"V.V.V.V.V.V.V.V.V.V.V.V.V.V.V.V.V.V.V.V.V.V.V.&.a : # . . . . # 1 8 w } *.g.M.V.V.V.V.V.V.V.V.V.V.V.V.V.V.V.V.V.V.V.V.V.V.V.V.V.",
"V.V.V.V.V.V.V.V.V.V.V.V.V.V.V.V.V.V.V.V.V.V.V.V.v.:.} u r r u } *.f.b.M.V.V.V.V.V.V.V.V.V.V.V.V.V.V.V.V.V.V.V.V.V.V.V.V.V.V.V.V.",
"V.V.V.V.V.V.V.V.V.V.V.V.V.V.V.V.V.V.V.V.V.V.V.V.V.V.V.V.V.V.V.V.V.V.V.V.V.V.V.V.V.V.V.V.V.V.V.V.V.V.V.V.V.V.V.V.V.V.V.V.V.V.V.V.",
"V.V.V.V.V.V.V.V.V.V.V.V.V.V.V.V.V.V.V.V.V.V.V.V.V.V.V.V.V.V.V.V.V.V.V.V.V.V.V.V.V.V.V.V.V.V.V.V.V.V.V.V.V.V.V.V.V.V.V.V.V.V.V.V.",
"V.V.V.V.V.V.V.V.V.V.V.V.V.V.V.V.V.V.V.V.V.V.V.V.V.V.V.V.V.V.V.V.V.V.V.V.V.V.V.V.V.V.V.V.V.V.V.V.V.V.V.V.V.V.V.V.V.V.V.V.V.V.V.V.",
"V.V.V.V.V.V.V.V.V.V.V.V.V.V.V.V.V.V.V.V.V.V.V.V.V.V.V.V.V.V.V.V.V.V.V.V.V.V.V.V.V.V.V.V.V.V.V.V.V.V.V.V.V.V.V.V.V.V.V.V.V.V.V.V.",
"V.V.V.V.V.V.V.V.V.V.V.V.V.V.V.V.V.V.V.V.V.V.V.V.V.V.V.V.V.V.V.V.V.V.V.V.V.V.V.V.V.V.V.V.V.V.V.V.V.V.V.V.V.V.V.V.V.V.V.V.V.V.V.V."
};
