/* XPM */
static char *c8922be52fb348178f6d8a5707c4f6d4UES2Okii33EE6sBN[] = {
/* columns rows colors chars-per-pixel */
"64 64 155 2 ",
"   c black",
".  c #0D0A0D",
"X  c #161416",
"o  c #1C1B1C",
"O  c #222022",
"+  c #262526",
"@  c #2A292A",
"#  c #2E2D2E",
"$  c #323132",
"%  c #353435",
"&  c #383738",
"*  c #3B3A3B",
"=  c gray24",
"-  c #4D151A",
";  c #592A2D",
":  c #403F40",
">  c gray26",
",  c #454445",
"<  c #474647",
"1  c #494849",
"2  c #4B4B4B",
"3  c gray31",
"4  c #535253",
"5  c #555455",
"6  c #585858",
"7  c #5B5B5B",
"8  c #5D5D5D",
"9  c #755A5B",
"0  c #785E60",
"q  c #606060",
"w  c #626162",
"e  c gray39",
"r  c #656465",
"t  c #6A6A6A",
"y  c #6D6D6D",
"u  c gray43",
"i  c #717071",
"p  c gray45",
"a  c #747474",
"s  c #777777",
"d  c gray47",
"f  c #797979",
"g  c #7C7C7C",
"h  c #990F21",
"j  c #8A1723",
"k  c #9A1726",
"l  c #9A1D2A",
"z  c #A81124",
"x  c #9D2B34",
"c  c #9F363D",
"v  c #AA2430",
"b  c #AB2834",
"n  c #A72F38",
"m  c #B32834",
"M  c #B5333D",
"N  c #CA1A30",
"B  c #E21531",
"V  c #E51532",
"C  c #E01C34",
"Z  c #DD2639",
"A  c #E52138",
"S  c #E5263B",
"D  c #CF3945",
"F  c #D43744",
"G  c #DF3443",
"H  c #D53F4A",
"J  c #E53142",
"K  c #E53444",
"L  c #E43A49",
"P  c #E63A49",
"I  c #E53F4D",
"U  c #944045",
"Y  c #9D5357",
"T  c #A4454B",
"R  c #A54A4F",
"E  c #B84149",
"W  c #B44A50",
"Q  c #A85054",
"!  c #B9595E",
"~  c #D0464F",
"^  c #E6424F",
"/  c #E34652",
"(  c #E74652",
")  c #E85861",
"_  c #CF646A",
"`  c #D46167",
"'  c #D7666B",
"]  c #C97A7D",
"[  c #DB7378",
"{  c #E8666D",
"}  c #E96E74",
"|  c #EB7D83",
" . c #808080",
".. c #838383",
"X. c #848484",
"o. c gray54",
"O. c #8B8B8B",
"+. c #8E8E8E",
"@. c gray56",
"#. c gray57",
"$. c gray59",
"%. c #979797",
"&. c #9A9A9A",
"*. c gray62",
"=. c #A2A1A2",
"-. c #A6A5A6",
";. c gray67",
":. c #ACABAC",
">. c #AEAEAE",
",. c #B9ACAC",
"<. c gray70",
"1. c gray71",
"2. c #BCBBBC",
"3. c gray74",
"4. c #D38387",
"5. c #DC8084",
"6. c #D69194",
"7. c #E98387",
"8. c #E98488",
"9. c #EB8589",
"0. c #EC8B8F",
"q. c #E69497",
"w. c #ED9699",
"e. c #EE9B9E",
"r. c #DE9EA0",
"t. c #E39EA1",
"y. c #EFA2A5",
"u. c #E7ABAD",
"i. c #F0ABAE",
"p. c #F0ADB0",
"a. c #EDB4B6",
"s. c #F1B4B6",
"d. c #F2BABC",
"f. c #F3BDBF",
"g. c #C3C2C3",
"h. c gray77",
"j. c #C6C6C6",
"k. c #CBCBCB",
"l. c #CDCDCD",
"z. c #D7D7D7",
"x. c #D8D8D8",
"c. c #DFDEDF",
"v. c #EEC2C4",
"b. c #F4C3C5",
"n. c #F5CBCD",
"m. c #E1D6D7",
"M. c #F7D7D8",
"N. c #E1E1E1",
"B. c #E9E9E9",
"V. c #FAE8E8",
"C. c #FAE9EA",
"Z. c #F4F4F4",
"A. c #FDF4F4",
"S. c #FDF5F5",
"D. c white",
/* pixels */
"D.D.D.D.D.D.D.D.D.D.D.D.D.D.D.D.D.D.D.D.D.D.D.D.D.D.D.D.D.D.D.D.D.D.D.D.D.D.D.D.D.D.D.D.D.D.D.D.D.D.D.D.D.D.D.D.D.D.D.D.D.D.D.D.",
"D.D.D.D.D.D.D.D.D.D.D.D.D.D.D.D.D.D.D.D.D.D.D.D.D.D.D.D.D.D.D.D.D.D.D.D.D.D.D.D.D.D.D.D.D.D.D.D.D.D.D.D.D.D.D.D.D.D.D.D.D.D.D.D.",
"D.D.D.D.D.D.D.D.D.D.D.D.D.D.D.D.D.D.D.D.D.D.D.D.D.D.D.D.D.D.D.D.D.D.D.D.D.D.D.D.D.D.D.D.D.D.D.D.D.D.D.D.D.D.D.D.D.D.D.D.D.D.D.D.",
"D.D.D.D.D.D.D.D.D.D.D.D.D.D.D.D.D.D.D.D.D.D.D.D.D.D.D.D.D.D.D.D.D.D.D.D.D.D.D.D.D.D.D.D.D.D.D.D.D.D.D.D.D.D.D.D.D.D.D.D.D.D.D.D.",
"D.D.D.D.D.D.D.D.D.D.D.D.D.D.D.D.D.D.D.D.D.D.D.D.D.D.D.D.D.D.D.D.D.D.D.D.D.D.D.D.D.D.D.D.D.D.D.D.D.D.D.D.D.D.D.D.D.D.D.D.D.D.D.D.",
"D.D.D.D.D.D.D.D.D.D.D.D.D.D.D.D.D.D.D.D.D.D.D.D.D.D.D.D.D.D.D.D.D.D.D.D.D.D.D.D.D.D.D.D.D.D.D.D.D.D.D.D.D.D.D.D.D.D.D.D.D.D.D.D.",
"D.D.D.D.D.D.D.D.D.D.D.D.D.D.D.D.D.D.D.D.D.D.D.D.D.D.D.D.D.D.D.D.D.D.k.&.r ..<.D.D.D.D.D.D.D.D.D.D.D.D.D.D.D.D.D.D.D.D.D.D.D.D.D.",
"D.D.D.D.D.D.D.D.D.D.D.D.D.D.D.D.D.D.D.D.D.D.D.D.D.D.D.D.D.D.D.D.D.N.o.# o o 8 =.k.D.D.D.D.D.D.D.D.D.D.D.D.D.D.D.D.D.D.D.D.D.D.D.",
"D.D.D.D.D.D.D.D.D.D.D.D.D.D.D.D.D.D.D.D.D.D.D.D.D.D.D.D.D.D.D.D.D.N.w # @ @ + # t +.3.Z.D.D.D.D.D.D.D.D.D.D.D.D.D.D.D.D.D.D.D.D.",
"D.D.D.D.D.D.D.D.D.D.D.D.D.Z.z.g.+.&.&.3.:.:.j.N.D.D.D.D.D.D.D.D.D.N.;.w # 8 w 6 . o * g x.D.D.D.D.D.D.D.D.D.D.D.D.D.D.D.D.D.D.D.",
"D.D.D.D.D.D.D.D.D.D.D.D.N.-.y , * o 2 2 > > 5 2.D.D.D.D.D.D.D.D.D.D.Z...% % =.:.> . . + ..k.D.D.D.D.D.D.D.D.D.D.D.D.D.D.D.D.D.D.",
"D.D.D.D.D.D.D.D.D.D.D.N.-.6 # % X o o $ + o 2 2.D.D.D.D.D.D.D.Z.B.B.Z.:.+ + ..j.2 X X o @ $.Z.D.D.D.D.D.D.D.D.D.D.D.D.D.D.D.D.D.",
"D.D.D.D.D.D.D.D.D.D.D.2.r 3 ..y O . * 2 . > #.c.D.D.D.D.D.D.D.2.g s 1.3.2 . t :.+ O 5 8 @ w z.D.D.D.D.D.D.D.D.D.D.D.D.D.D.D.D.D.",
"D.D.D.D.D.D.D.D.D.D.N.o.6 #.N.l.8 o o . t t #.2.D.2.-.-.N.D.D.$.# O 5 f = . $ , + $ :.;.2 2 ;.D.D.D.D.D.D.D.D.D.D.D.D.D.D.D.D.D.",
"D.D.D.D.D.D.D.D.D.D.-.6 6 j.    -.X . o > % . $.D.$.. = $.x.D.f + % $ . + . . . . f N.z.t # ..N.D.D.D.D.D.D.D.D.D.D.D.D.D.D.D.D.",
"D.D.D.D.D.D.D.D.D.N.f . f N.    3.O . . . O O ..D.y O o $ r g.g . 3 r 2 o . . X , -.  Z.o.% * *.D.D.D.D.D.D.D.D.D.D.D.D.D.D.D.D.",
"D.D.D.D.D.D.D.D.D.<.2 2 &.      Z.r . X + @ , <.D.s . # o O g r $ @ 2 + O . X : <.N.    3.: X y g.D.D.D.D.D.D.D.D.D.D.D.D.D.D.D.",
"D.D.D.D.D.D.D.D.Z...# w z.        1.2 X O O g l.B.g # = y 5 $ 3 X . X X @ 2 p 3.        z.X.> o y k.D.D.D.D.D.D.D.D.D.D.D.D.D.D.",
"D.D.D.D.D.D.D.D.z.q # ..Z.          o.o . X 4 6 g a 2 < 1.j.+.X . . . 4 $.l.Z.            Z.X.+ + $.N.D.D.D.D.D.D.D.D.D.D.D.D.D.",
"D.D.D.D.D.D.D.D.;.2 2 ;.            l.O . . . o O 3 < < :.Z.o.O . . , *.                    g...* 3 -.D.D.D.D.D.D.D.D.D.D.D.D.D.",
"D.D.D.D.D.D.D.Z.X.# r x.            Z., . . # O . 2 2 2 :.3.4 . X 4 2.Z.                      N.f . f N.D.D.D.D.D.D.D.D.D.D.D.D.",
"D.D.D.D.D.D.D.l., O r Z.              *., X @ @ > w < % 8 r O . 8 g.                            -.5 2 -.N.D.D.D.D.D.D.D.D.D.D.D.",
"D.D.D.D.D.D.D.1.# o g                   &.o X % -.-.% o . . w @.<.                              N.#.% : #.D.D.D.D.D.D.D.D.D.D.D.",
"D.D.D.D.D.D.D.$.% % $.                  g.3 X 2 -.-.$ . . 4 <.                  Z.Z.Z.            j.2 . t 2.D.D.D.D.D.D.D.D.D.D.",
"D.D.D.D.D.D.D...# 6 x.                  Z.-.3 . w r X X $ -.Z.            N.#.t 6 w #.j.Z.        N.o.w . o.k.D.D.D.D.D.D.D.D.D.",
"D.D.D.D.D.D.Z.y . y Z.                      f . * 5 . 2 -.N.              2.2 h z v ; 6 o.2.          :.6 # =.D.D.D.D.D.D.D.D.D.",
"D.D.D.D.D.D.x.5 # X.                        -.f 3 5 @.-.                3.o.% m C F Y # . r o.2.      B.y # f N.D.D.D.D.D.D.D.D.",
"D.D.D.D.D.D.:.2 2 :.                          N.<.<.N.                j.f . g [ J K [ +.y . . o.N.    Z.o.% * *.D.D.D.D.D.D.D.D.",
"D.D.D.D.D.Z...# w z.                            Z.Z.                  X.+ $ *.f.P C | S.4.D N x #.      1.# o f D.D.D.D.D.D.D.D.",
"D.D.D.D.D.B.w # s Z.                                                N.8 o 4 z.M.} ( | V.9.V B h t Z.    j.> O i D.D.D.D.D.D.D.D.",
"D.D.D.D.D.l.6 # +.                                                  j., n ~ 7.d.b.p.f.M.) A Z l 3 1.    N.6 # X.D.D.D.D.D.D.D.D.",
"D.D.D.D.D.;.2 2 ;.                                                  *.2 M A A { b.S.S.V.| ( 5.y . X.Z.  N.6 # f D.D.D.D.D.D.D.D.",
"D.D.D.D.D.X.# 8 z.                                                  +.# E / S ( v.;.;.,.f.d.n...+ > *.Z.c.6 # g D.D.D.D.D.D.D.D.",
"D.D.D.D.D.y . r Z.                                                Z.f # 9 u.t.y.U . . . r D.D.*.@ X 6 Z.c.8 # X.D.D.D.D.D.D.D.D.",
"D.D.D.D.D.r . r                                                   z.w # ..Z.D.Z.+ . . . O t.w.` j . < Z.l.6 # +.D.D.D.D.D.D.D.D.",
"D.D.D.D.D.r . r                                                   *.2 < <.f.d.s.+ . . . X t.V G k . : D.2.2 2 *.D.D.D.D.D.D.D.D.",
"D.D.D.D.D.y . r Z.                                                X.. w r.0.V a.o.X . . 3 t.0.H h . 3 D.;.2 < :.D.D.D.D.D.D.D.D.",
"D.D.D.D.D...# 6 z.                                                y # R 9.V 8.f.D.N.j.j.N.D.S.9 - X s D.*., 2 3.D.D.D.D.D.D.D.D.",
"D.D.D.D.D.<.= % y x.Z.                                            y . Q I | s.S.S.A.S.d.d.n.c.4 . * 3.D.+.# 6 l.D.D.D.D.D.D.D.D.",
"D.D.D.D.D.N.f . > +.<.Z.                                          f . T 6.f.S.d.i.f.V.| ^ q.*.* % f Z.Z.s # r B.D.D.D.D.D.D.D.D.",
"D.D.D.D.D.D.-.o.w * y -.N.                                        -.> o 4 &.N.0.^ 0.V.| P _ 5 # +.z.  z.q # ..Z.D.D.D.D.D.D.D.D.",
"D.D.D.D.D.D.D.D.k...+ 2 -.                                        N.f o X $ ..' B w.m.] ! c # o.k.    3.2 2 *.D.D.D.D.D.D.D.D.D.",
"D.D.D.D.D.D.D.D.D.<.> @ f N.                                        j.6 O O + b W W r 2 . 3 $.k.      *.< 2 2.D.D.D.D.D.D.D.D.D.",
"D.D.D.D.D.D.D.D.D.N.#.3 = ..<.                                        j.:.8 # % . . . , f -.N.      Z.X.# q z.D.D.D.D.D.D.D.D.D.",
"D.D.D.D.D.D.D.D.D.D.N.-.= X 6 1.                                          j.:...f r f -.N.          z.w # ..Z.D.D.D.D.D.D.D.D.D.",
"D.D.D.D.D.D.D.D.D.D.D.N.y O X f N.                                                                  *.2 2 <.D.D.D.D.D.D.D.D.D.D.",
"D.D.D.D.D.D.D.D.D.D.D.D.j.4 X # s k.                                                              N.f . f N.D.D.D.D.D.D.D.D.D.D.",
"D.D.D.D.D.D.D.D.D.D.D.D.Z.<.6 X o y <.                                                            j.< 2 #.D.D.D.D.D.D.D.D.D.D.D.",
"D.D.D.D.D.D.D.D.D.D.D.D.D.Z.-.t # o p <.Z.                                                        #.2 2 j.D.D.D.D.D.D.D.D.D.D.D.",
"D.D.D.D.D.D.D.D.D.D.D.D.D.D.D.z...5 . y -.N.                                                    k.f . ..N.D.D.D.D.D.D.D.D.D.D.D.",
"D.D.D.D.D.D.D.D.D.D.D.D.D.D.D.D.Z.<...# , p *.c.                                              N.$.# y <.D.D.D.D.D.D.D.D.D.D.D.D.",
"D.D.D.D.D.D.D.D.D.D.D.D.D.D.D.D.D.D.k.$.* o 2 2.                                              -.3 < -.Z.D.D.D.D.D.D.D.D.D.D.D.D.",
"D.D.D.D.D.D.D.D.D.D.D.D.D.D.D.D.D.D.D.N.f * * f -.z.                                      j.#.8 . o.N.D.D.D.D.D.D.D.D.D.D.D.D.D.",
"D.D.D.D.D.D.D.D.D.D.D.D.D.D.D.D.D.D.D.D.z.3.$.$ > X.N.                                  j.6 O . o.2.D.D.D.D.D.D.D.D.D.D.D.D.D.D.",
"D.D.D.D.D.D.D.D.D.D.D.D.D.D.D.D.D.D.D.D.D.D.k.f % 2 *.<.N.                        Z.z.*.t o X 6 2.D.D.D.D.D.D.D.D.D.D.D.D.D.D.D.",
"D.D.D.D.D.D.D.D.D.D.D.D.D.D.D.D.D.D.D.D.D.D.D.j.-.f & 3 X.;.z.Z.            N.j.#.f 6 2 . & t :.D.D.D.D.D.D.D.D.D.D.D.D.D.D.D.D.",
"D.D.D.D.D.D.D.D.D.D.D.D.D.D.D.D.D.D.D.D.D.D.D.D.D.2.g 2 # 2 6 r r r r r r r r 2 2 . # < f -.N.D.D.D.D.D.D.D.D.D.D.D.D.D.D.D.D.D.",
"D.D.D.D.D.D.D.D.D.D.D.D.D.D.D.D.D.D.D.D.D.D.D.D.D.Z.z.&.y 2 # . . . . . . . . 2 < y ..<.N.D.D.D.D.D.D.D.D.D.D.D.D.D.D.D.D.D.D.D.",
"D.D.D.D.D.D.D.D.D.D.D.D.D.D.D.D.D.D.D.D.D.D.D.D.D.D.D.Z.z.;...y r r r r w w s #.j.N.D.D.D.D.D.D.D.D.D.D.D.D.D.D.D.D.D.D.D.D.D.D.",
"D.D.D.D.D.D.D.D.D.D.D.D.D.D.D.D.D.D.D.D.D.D.D.D.D.D.D.D.D.D.D.D.D.D.D.D.D.D.D.D.D.D.D.D.D.D.D.D.D.D.D.D.D.D.D.D.D.D.D.D.D.D.D.D.",
"D.D.D.D.D.D.D.D.D.D.D.D.D.D.D.D.D.D.D.D.D.D.D.D.D.D.D.D.D.D.D.D.D.D.D.D.D.D.D.D.D.D.D.D.D.D.D.D.D.D.D.D.D.D.D.D.D.D.D.D.D.D.D.D.",
"D.D.D.D.D.D.D.D.D.D.D.D.D.D.D.D.D.D.D.D.D.D.D.D.D.D.D.D.D.D.D.D.D.D.D.D.D.D.D.D.D.D.D.D.D.D.D.D.D.D.D.D.D.D.D.D.D.D.D.D.D.D.D.D.",
"D.D.D.D.D.D.D.D.D.D.D.D.D.D.D.D.D.D.D.D.D.D.D.D.D.D.D.D.D.D.D.D.D.D.D.D.D.D.D.D.D.D.D.D.D.D.D.D.D.D.D.D.D.D.D.D.D.D.D.D.D.D.D.D.",
"D.D.D.D.D.D.D.D.D.D.D.D.D.D.D.D.D.D.D.D.D.D.D.D.D.D.D.D.D.D.D.D.D.D.D.D.D.D.D.D.D.D.D.D.D.D.D.D.D.D.D.D.D.D.D.D.D.D.D.D.D.D.D.D."
};
