/* XPM */
static char *_965c568643c4380a591acb65f73879adCLZUmWKld5Ni3Tf[] = {
/* columns rows colors chars-per-pixel */
"64 64 219 2 ",
"   c #6A097D",
".  c #661C77",
"X  c #6A137D",
"o  c #6B1B7E",
"O  c #5E3667",
"+  c #5D3866",
"@  c #5F3669",
"#  c #5F3868",
"$  c #632F6F",
"%  c #603D67",
"&  c #63366D",
"*  c #62396B",
"=  c #652C72",
"-  c #6B217E",
";  c #682978",
":  c #663671",
">  c #693675",
",  c #663A71",
"<  c #693C74",
"1  c #6D357B",
"2  c #6E3D7A",
"3  c #713A7E",
"4  c #63426B",
"5  c #6C4876",
"6  c #72457E",
"7  c #73597A",
"8  c #79647E",
"9  c #6D0B81",
"0  c #740D89",
"q  c #6D1780",
"w  c #741888",
"e  c #7D1A92",
"r  c #6E2380",
"t  c #6F2C80",
"y  c #712C83",
"u  c #78288B",
"i  c #743583",
"p  c #753D85",
"a  c #7B348C",
"s  c #7B398C",
"d  c #7F2494",
"f  c #7E3293",
"g  c #774287",
"h  c #754E80",
"j  c #7A448A",
"k  c #7C4B8B",
"l  c #785582",
"z  c #7F518C",
"x  c #7E4090",
"c  c #7D6684",
"v  c #85199C",
"b  c #84289A",
"n  c #853A97",
"m  c #87339A",
"M  c #89339D",
"N  c #8A14A2",
"B  c #8C1BA4",
"V  c #9116AA",
"C  c #931CAB",
"Z  c #9D1CB6",
"A  c #A31BBE",
"S  c #8E26A5",
"D  c #8E2DA4",
"F  c #932BAA",
"G  c #8D38A2",
"H  c #9131A6",
"J  c #9432AA",
"K  c #963BAB",
"L  c #9924B2",
"P  c #9C2DB4",
"I  c #9B35B3",
"U  c #A123BC",
"Y  c #A32DBC",
"T  c #A434BD",
"R  c #81558F",
"E  c #82598F",
"W  c #864998",
"Q  c #845493",
"!  c #845A91",
"~  c #8D549E",
"^  c #8C5A9C",
"/  c #856E8C",
"(  c #8A6397",
")  c #896596",
"_  c #8E6C9A",
"`  c #916B9E",
"'  c #8E7299",
"]  c #92749D",
"[  c #947A9D",
"{  c #8E4BA2",
"}  c #9346A8",
"|  c #9458A6",
" . c #9E4EB3",
".. c #A246B9",
"X. c #A455BA",
"o. c #9869A7",
"O. c #967AA1",
"+. c #997DA4",
"@. c #9B75A9",
"#. c #A868BB",
"$. c #A779B6",
"%. c #AB1EC7",
"&. c #A928C5",
"*. c #AD2BC9",
"=. c #B124CE",
"-. c #B12CCD",
";. c #AA34C5",
":. c #AA35C5",
">. c #B23ACE",
",. c #B422D3",
"<. c #B529D2",
"1. c #B929D7",
"2. c #BD25DC",
"3. c #BD2CDB",
"4. c #B533D2",
"5. c #B63CD2",
"6. c #B93CD6",
"7. c #BD34DB",
"8. c #BD39DB",
"9. c #C024DF",
"0. c #C02CDF",
"q. c #C039DF",
"w. c #C224E2",
"e. c #C229E1",
"r. c #C232E1",
"t. c #C23BE1",
"y. c #AC43C5",
"u. c #AE4BC7",
"i. c #B54FCF",
"p. c #AD59C4",
"a. c #B458CC",
"s. c #BA47D6",
"d. c #BB54D6",
"f. c #AE69C2",
"g. c #B56BCA",
"h. c #B677C9",
"j. c #BB64D4",
"k. c #BD79D2",
"l. c #C143DF",
"z. c #C14BDE",
"x. c #C257DD",
"c. c #C26ADB",
"v. c #C579DB",
"b. c #C444E1",
"n. c #C44BE2",
"m. c #C65AE2",
"M. c #CB78E4",
"N. c #998C9D",
"B. c #9C83A6",
"V. c #9F87A7",
"C. c #A285AD",
"Z. c #A38CAC",
"A. c #A795AE",
"S. c #AA88B6",
"D. c #B188BF",
"F. c #A995B1",
"G. c #AE9AB5",
"H. c #AD91B8",
"J. c #B296BC",
"K. c #B29CBA",
"L. c #B4A3BB",
"P. c #B8A9BD",
"I. c #BAB4BC",
"U. c #B785C7",
"Y. c #B899C3",
"T. c #BE85D1",
"R. c #BBA5C4",
"E. c #BCACC2",
"W. c #BFB1C4",
"Q. c #BFB8C1",
"!. c #C099CE",
"~. c #C588D9",
"^. c #C798D7",
"/. c #C2A8CB",
"(. c #C1B4C6",
"). c #C2BBC4",
"_. c #C4B4CA",
"`. c #C5B9CA",
"'. c #C9BECD",
"]. c #CBA6D8",
"[. c #D1ABDF",
"{. c #CAB3D3",
"}. c #CBBCD2",
"|. c #D2B9DB",
" X c #CC81E2",
".X c #D296E5",
"XX c #D8A9E8",
"oX c #D7B8E3",
"OX c #E0B5EF",
"+X c #CAC2CD",
"@X c #CEC4D2",
"#X c #D2CAD6",
"$X c #D5C8DA",
"%X c #D5CDD9",
"&X c #D7D2DA",
"*X c #DAD4DD",
"=X c #DBC6E3",
"-X c #DCCCE3",
";X c #DDD6E1",
":X c #DFD9E1",
">X c #E2CBEA",
",X c #E2DCE4",
"<X c #E3D6E9",
"1X c #E6DBEB",
"2X c #E6C8F2",
"3X c #E9D2F2",
"4X c #ECDCF3",
"5X c #F0DEF7",
"6X c #E5E1E7",
"7X c #E7E2E9",
"8X c #EAE5EB",
"9X c #EDEAEE",
"0X c #EFECF0",
"qX c #F1EEF2",
"wX c #F3E7F8",
"eX c #F5F3F5",
"rX c #F7F6F8",
"tX c #F9F6FA",
"yX c #FFFFFF",
/* pixels */
"yXyXyXyXyXyXyXyXyXyXyXyXyXyXyXyXyXyXyXyXyXyXyXyXyXyXyXyXyXyXyXyXyXyXyXyXyXyXyXyXyXyXyXyXyXyXyXyXyXyXyXyXyXyXyXyXyXyXyXyXyXyXyXyX",
"yXyXyXyXyXyXyXyXyXyXyXyXyXyXyXyXyXyXyXyXyXyXyXyXyXyXyXyXtXqXrXyXyXyXyXyXrX8X9X9XeXyXyXyXyXyXyXyXyXyXyXyXyXyXyXyXyXyXyXyXyXyXyXyX",
"yXyXyXyXyXyXyXyXyXyXyXyXyXyXyXyXyXyXyXyXyXyXyXyXyXyXtX9X@XeX8XeX7XrXqX*X7XeXrXqX&X9X*XtXyXyXyXyXyXyXyXyXyXyXyXyXyXyXyXyXyXyXyXyX",
"yXyXyXyXyXyXyXyXyXyXyXyXyXyXyXyXyXyXyXyXyXyXyXyXrX6X*XZ.=X^.,X8X*XK.*X,X) O.B.A.,X#X#X7X0XyXyXyXyXyXyXyXyXyXyXyXyXyXyXyXyXyXyXyX",
"yXyXyXyXyXyXyXyXyXyXyXyXyXyXyXyXyXyXyXyXyXyXyXqX@X(.@.,X|.T./.|.oX{ s S.Y.V.F.L.Q ' (.E.#X*X@XtXyXyXyXyXyXyXyXyXyXyXyXyXyXyXyXyX",
"yXyXyXyXyXyXyXyXyXyXyXyXyXyXyXyXyXyXyXyXyXyX<X}.eX%X}./ P.0XL.` k.h.{ U.E.k Q O.g _ g G.! g _ A.,XyXeXyXyXyXyXyXyXyXyXyXyXyXyXyX",
"yXyXyXyXyXyXyXyXyXyXyXyXyXyXyXyXyXyXyXyX5XOXXXoXoX-XE.# # G.E.W X.{ b a < u n s V.] ( B.W.G.g ) yXyXyXyXyXyXyXyXyXyXyXyXyXyXyXyX",
"yXyXyXyXyXyXyXyXyXyXyXyXyXyXyXyXyXtX5X2XM.b.t.s.6.a.^.Y.% # Q W v d u + + a.H a Z.,X@XB.z ' ) Z.yXyXyXyXyXyXyXyXyXyXyXyXyXyXyXyX",
"yXyXyXyXyXyXyXyXyXyXyXyXyXyXyXyXyX5XM.m.8.<.,.2.9.3.s.h.X.< + J ;...# @ 7.l.h.@.F.A.V.+ [ g ] ,XyXyXyXyXyXyXyXyXyXyXyXyXyXyXyXyX",
"yXyXyXyXyXyXyXyXyXyXyXyX,X7X,X,X<Xv.7.0.4.* O 2.e.9.w.2.<.=.i * D > @ d.l.x.XX/.K.[ + + [ ! V.rXyXyXyXyXyXyXyXyXyXyXyXyXyXyXyXyX",
"yXyXyXyXyXyXyXyXyX0X9X9X9X8X8X(.1XM.9.7.y.1 + i ,.2.w.w.w.2.=.s + O ;.l.n.l.c./.L.% + B.) p ' 0XeX/.tXyXyX%XrXtXrXyXyXyXyXyXyXyX",
"yXyXyXyXyXyXyXtXyXtXrXeX*X9X>X]. Xt.q.q.>.a a + i 9.w.2.2.%.&.F + O a r.0.9.6.y.& + p z Q Q [ qX<X+.`.@XG.G.'.yXyXyXyXyXyXyXyXyX",
"yXyXyXyXyXyXyXtX9X0XtXrX8X.Xr.w.e.e.x.a.K L ,.F + 1 w.w.w.2.&.+ i J + i e.w.2.3 # Y ;.! R.H.S.[.<XH.! q E 9X7XrXtXyXyXyXyXyXyXyX",
"yXyXyXyXtXrXtX0X*XrXyX0X/.r.: > e.e.q.7.5.&.&.=.P + 1 2.2.1.& & w.e.P # i w.J # P 0.-.o.J.Y.Y.o.* +.@XZ.P.yXtX8XyXyXyXyXyXyXyXyX",
"yXyXyXyXrX9XyXeXtX6X;X7XoXr.Y # < 7.0.0.4.&.2.%.%.U * & 7.2 % 3.w.w.w.Y + & # m 9.2.-.o.R.J.S.# * O.qXqX1XtXtX#XeXyXyXyXyXyXyXyX",
"yXyXyXyXrXyXyXyXyXrX%X%X].z.l.p.+ & 1.9.2.,.,.%.C i.-.* + + ;.9.w.e.e.e.Y + # 2.e.e.i.D.J.K.+ 4 #X,XwXrX{.8X9XyX8X@X8XyXyXyXyXyX",
"yXyXyXyXyXyXyXyXyXrX7X,Xp.s.n.j.y.* # <.e.2.<.&.U P 3.J # # *.e.e.e.t.q.& & + & 9.z.~.U.h.4 % >X|.}.eX_.{ ^ #.Y.G.+.rXyXyXyXyXyX",
"yXyXyXyXyXyXyXyX:X[ / _ ;.e.e.2.e.2.: # &.2.&.U L F ;.# p , O Y e.r.0.& # 1.2.& * k.].H.% % [.XXoX^ ` ! 0 0 B N   ` yXyXyXyXyXyX",
"yXyXyXyXyXeX;X&XI.# # n <.w.w.w.w.w.2.1 + H L v B P * & t.e.i * J e.i & <.e.e.1.% % f.5 # |.].^.Y.0 9 Q 9 0 0 0   n *XyXyXyXyXyX",
"yXyXyXyXyXtX#XF.G.z # & <.w.w.w.w.w.w.w.m % ; w Y > + 2.e.w.w.a + i + P w.e.e.9.6.& # # X.XXk.j.~.N       9 9 R.@.g #XyXyXyXyXyX",
"yXyXyXyXyXyX,X&XF.f.-.* O *.9.w.w.w.w.w.w.D # > a % Y 9.w.w.w.w.i + > 9.w.w.r.e.e.H + + i. X5.c.#.d 9 : O X w -X^.X $XtXyXyXyXyX",
"yXyXyXyXyXyX,X`.G.p.9.2.> + P w.w.w.w.w.w.9.F + + M 9.9.w.w.w.<.* > * 3 w.w.e.w.Y # m 2 + X.q.d.Z N = + + X r 7X5XS.`.yXyXyXyXyX",
"yXyXyXyXyXtX*XG.E.k.2.w.e.a + m w.9.9.w.w.w.<.# + & 9.w.w.w.1.+ & 9.Y * > 2.e.=.+ i e.e.i % K =.Z a O = q Z.E.:X5X}.%XyXyXyXyXyX",
"yXyXyXyXyXtXeX`.G.^.n.w.w.w.J + i w.w.w.w.w.* & =.* * <.w.w.& & 9.w.w.&.& & *.+ > e.e.e.q.s # M D + 2 #.Y.:X$X-X2X8XyXyXyXyXyXyX",
"yXyXyXtX7X*X,X7X}.v.t.e.w.w.w.Y * & 1.9.9.> # 2.w.9.& + =.i * <.w.w.w.w.,.* + & w.9.e.e.q.m.~ + # 2 c.s.y.{.<XwX].;XyXyXyXyXyXyX",
"yXyXrXqX&X@X#XN.+ .Xr.e.w.w.w.w.<.& * <.m # -.e.w.w.w.> + + Y 9.w.w.w.9.w.& + * *.e.e.0.x.x.i.% + f s.j.o.E.$XH.}.eXyXyXtXyXyXyX",
"yXeX6X7X9X*X@XA.+ 4 >.e.w.w.w.w.w.2.& + + H w.w.w.w.w.Y + + m w.w.w.w.9., # -.> # T r.e.0.s.+ * W % 2 U.@.Y.qX+ N.yXyXyXyXyXyXyX",
"yXtX9X7X9XeX`.L.[ 4 * I e.w.w.e.w.w.*.+ + D w.w.w.w.*.* i H + 1 w.w.w.n * -.0.l.3 + K 9.3.* * T.j.} # 5 f.{.7 + ,X0X8XyXyXyXyXyX",
"yXyXtX,X,X@X%XV.i W : # H r.r.e.w.2.& : D + i 9.w.<.* > e.w.Y * > 2.F + J w.e.m.8.a % m > + -.7.7.s.o.+ % 7 + $XtXrX1XyXtXyXyXyX",
"yXeXyXeXW.A.+.z - I } i + p r.9.e.> % 2.e.P + & 9.& * 3.e.e.w.-.+ & % a 9.w.w.e.w.w.H + + *.w.w.2.=.#.E.+ + {.3XtXyXyXyXtXtXyXyX",
"yX7XrX8X(.j [ o i Q h.P | * * 7.a + *.w.e.w.<.* + * <.9.e.e.w.e.Y + + <.w.w.w.e.e.w.a # + a e.w.2.*.L l + % 4 eXyXyXyXyXwXwXyXyX",
"yXtX).:Xg y Z.g o ' eX$X>X~.* # * J w.w.w.w.w.a + + Y 9.e.w.w.<.+ > : % &.w.w.w.9.m # J P + i e.e.2.m + V.*X4 4 1XyXyXyXyXyXyXyX",
"yX`.V.E.c g k L.p ) eX%X=XM.;.O + H 9.w.9.9.P + F i * F w.e.2.& & 2.9.1 * I 9.e.H + H e.0.*.+ > 2.H + i #.S.,X7 * 9XyXyXyXyXyXyX",
":X#X@XZ.-X) k B.k @.qXG.3Xc.+ 2 n + a e.e.&.+ a e.w.m + i 9.& + 1.w.w.w.a + m Y + m w.e.0.9.*.* # + i 5.y.X.^ @X7 % &XyXyXyXyXyX",
"0XyX6XW.W._ t t J @.tXG.1X5 O 3.3.J # & 2.+ 1 w.e.w.w.Y & + + <.w.w.w.w.9.K # # 1 w.w.w.e.9.<.H + + P 6.p.@.g Z.6Xc + &XyXyXyXyX",
"yXyX:XB._ i o r F ^ G.$.l + g.s.4.<.=.& + * 2.9.w.e.e.w.3 + * <.w.w.w.w.e.-.# + > e.e.e.0.0.I + 3 & * X.U.`.Z.R.6X*X/ % I.yXyXyX",
"yXyXL.) z r X X a i } n + W ~.s.4.7.2., + + M 9.e.t.r.J % J & # &.e.w.w.1.* & *.+ & 2.e.3.&.+ , J o.< # @.Z.G.E.` F.6XN.+ + &XyX",
"yXeXV.z g q r X w y D O a ;.T.a.4.9.i # &.m + i l.0...* M w.w.i # F w.2.& * 1.e.<.* * -.>.% : 2.4.;.d.g + 5 k ^ ] @X*XyX+X8 eXyX",
"yX:XV.B.i o X   q w O : ,.=.u.y.s.H % D =.d.P % , g.+ i n.e.w.w.a # i > & ,.e.w.w.9.& * # * 2.9.7.1.e.1.s # , s F.W.&XyXyXyXyXyX",
"yX;XZ.z p r y   q O # L %...Y y.J % Q ;.Z U 2.-.* % 4 3.r.e.w.w.e.P + + ;.e.e.e.w.9.7.+ + K 9.2.-.1.<.>.u.i + % ] ] %XyXyXyXyXyX",
"rX:XF.E.p y y q @ O - r w d h.f.% & |  .b B &.4.* + + H w.9.t.e.w.a + * & 2.9.t.e.0.* % 5 % s 1.2.q.7.L D b ; O 4 G.[ '.yXyXyXyX",
"yX;XQ.E.O.p r + + 5 i z x y.j.* # b G C P U Y * & 3.m + i e.e.e.H + J 2.& * p.x.z.2 % h.#.6 * 2 y.;.*.S f b j W + * ] ).tXyXyXyX",
"yXeX6XV.Z.O.O.+ 5 A.( ) W.K > + v } A &.Z %.& % ;.w.9.P & & 2.F + m 9.e.t., * @.6 + D.].K.|._ + , n D F f y { s.H + + *XyXyXyXyX",
"yXyX6X+XeXeXQ.A.L.7XB.X r > + D Z %.A C B > # Y 2.w.w.w.-.& % + m e.w.w.9.t.Q + # U.oX>XH.$.o.m O * s o.u i Q @.^ 2 + A.yXyXyXyX",
"yXyXyX:XtXyXqX+Xz B.Q o $ + f U C C b w 1 & P ,.w.w.w.w.9.&.+ % } n.s.e.e.t.R + + 5 ~.p.J U i.*.@.O O B.) _ ) p i i k +XtXyXyXyX",
"yXyXyXrXtXyXyXE.z O.i = + : N f.D m s = O ; %.,.2.w.w.w.-.+ 6 E % s M.q.e.G # S.S.% & <.=.7.3.s.R.| O O / z i k ) j L.*XyXyXyXyX",
"yXyXyXyX0XyXyXW.E ! ; + O e G } B W y # & 0 B K =.e.e.2.# , [.^.o.# , 6.G + M v.f.X.& O I i.s.k.h.Y.U.4 + + h [ z z E.eXyXyXyXyX",
"yXyXyXyXyXqX&XL.] i # + e C L b b w # & w q u a C 2.9.* & g.].#.h.K # + # n e.q.j.| p.& + ~ k.~.].-X-XW.5 O ' ) g ) k @XyXyXyXyX",
"yXyXyXyXyXtXW.] +.i + l ^ S &.=.L + * q i r X u B =.& * 6.j.U.{ G K M # + } e.q.i.T j.$.2 + ) {.-X7X7X8XG.) ] z ) ) Z.yXyXyXyXyX",
"yXyXyXyXyXyXW.).qX(.g [ +.W B Z * * C e 9 q v v B & O X.q.5.#.| ` E + 6 n % s d.8.4.X.R.o./ * 8 8X9X;X;X`.z B.[ L.K.`.tXyXyXyXyX",
"yXyXyXyXyXyXeX@XyXyXL.E ) Z.y & + K ..w   9 b v & + } <.7.s.g.o.G.+ & a.l.H + * <.1.~ E.*X$X+X% + ).R.@XG.Z.] W.G.Q.%XeXyXyXyXyX",
"yXyXyXyXyXyXyX9X*X0X#X! g p * @ - b ..B 0   9 = % u w e v | C.^ # # @.^.x.q.>.* # y.I !.9X7X9X0X4 O #XP.`.L.G.E.*X+X7XyXyXyXyXyX",
"yXyXyXyXyXyXyXyX&X;XG.[ g r O + q C ,.9.2.V = # ; 0 0 w r [ ] + * m C.|.~.c.7.2., # $.XX5XeX3X4X:X:XW.L.%X#X'.&X9X+XyXyXyXyXyXyX",
"yXyXyXyXyXyXyXyXqX#XP.V.R t ; = X X N ,.,.F + $ q 9 q X o ) # % $.W E.}.S.k.5.0.8.6 + 7 3X5X2X].R.*XK.@X:X@X;XyXyXyXyXyXyXyXyXyX",
"yXyXyXyXyXyXyXyXyX,X(.] R p i o o   X 9 v + %   9 9 w q q * + @XK.E.eX%X_.!.~.m.x.S.5 + @X$X>X_.%X_.#X8X9X*X6XyXyXyXyXyXyXyXyXyX",
"yXyXyXyXyXyXyXyXyXyX_.(.A.) k g X   o . + +     X X _   % % ] rX&X@XrXtXeX$X^.M.^.C.-X0X$X}.|.|.R.@X$X0X7XtXyXyXyXyXyXyXyXyXyXyX",
"yXyXyXyXyXyXyXyXyXyX0X:X@XO.k j - X = + + _ n G.i p G.4 + }.$X1XqX*X,XqXqX7X~.^.<X*X$X%X*XZ.E.H.$X8XeXyXyXyXyXyXyXyXyXyXyXyXyXyX",
"yXyXyXyXyXyXyXyXyXyXyXqX'.P._ j ] g + + Z.H.i E L.L.7 + U.XX=X1XZ.F.-XqX1X=XXX^.%X@XL.(.`.C.+.#XyXtXtXyXyXyXyXyXyXyXyXyXyXyXyXyX",
"yXyXyXyXyXyXyXyXyXyXyXrX@X%XK.Q.P.`./ ' Z.Z.p - #X/ + E.2X!.{.6X1X$X4X;X8X1X`.=X#X%XV.P.(.`.9XyXyXyXyXyXyXyXyXyXyXyXyXyXyXyXyXyX",
"yXyXyXyXyXyXyXyXyXyXyXyXyX:XqX@XeX9X`.E E 6X+X%XQ.# P.yXtXeX6X9XrXrXqX7X`.P.*X_.W.@X%X@X6XrXyXyXyXyXyXyXyXyXyXyXyXyXyXyXyXyXyXyX",
"yXyXyXyXyXyXyXyXyXyXyXyXyXyXyXyX*X7XtX9X8X9XeX*X8 + yXtXrXyXyXyXyX6X*X,X(.#X,X0X,X%X,X,XtXyXyXyXyXyXyXyXyXyXyXyXyXyXyXyXyXyXyXyX",
"yXyXyXyXyXyXyXyXyXyXyXyXyXyXyXyXyXyXtXtX*X(.8XrX6X+XyXyXyXyXyXyXeX,XeX).E.&X6X8X9XrXrXyXyXyXyXyXyXyXyXyXyXyXyXyXyXyXyXyXyXyXyXyX",
"yXyXyXyXyXyXyXyXyXyXyXyXyXyXyXyXyXrX*XeXyX9X*XrXeX0XyXyXyXyXyXyX:X*X8X7XrX0XeX0XyXyXyXyXyXyXyXyXyXyXyXyXyXyXyXyXyXyXyXyXyXyXyXyX",
"yXyXyXyXyXyXyXyXyXyXyXyXyXyXyXyXyXyXyX9XyXrXrXtXqXyXyXyXyXyXyXtXeXyXrXtXtXyXyXyXyXyXyXyXyXyXyXyXyXyXyXyXyXyXyXyXyXyXyXyXyXyXyXyX"
};
