/* XPM */
static char *e12e67dfb61c428bbf412c179bff45f8iPOjuG1NRZ9lcOU0[] = {
/* columns rows colors chars-per-pixel */
"64 64 228 2 ",
"   c #000000",
".  c #0B0000",
"X  c #130000",
"o  c #1B0000",
"O  c #080212",
"+  c #180416",
"@  c #230000",
"#  c #2C0101",
"$  c #340101",
"%  c #3B0101",
"&  c #3C030F",
"*  c #270315",
"=  c #0E0826",
"-  c #170929",
";  c #1B0F35",
":  c #1A113C",
">  c #240926",
",  c #370A29",
"<  c #250938",
"1  c #340F34",
"2  c #29113B",
"3  c #39113A",
"4  c #440202",
"5  c #4B0202",
"6  c #47030D",
"7  c #540303",
"8  c #5C0303",
"9  c #5F040A",
"0  c #480418",
"q  c #4C061A",
"w  c #590515",
"e  c #630404",
"r  c #6B0404",
"t  c #63050B",
"y  c #6C050C",
"u  c #710505",
"i  c #72050C",
"p  c #630612",
"a  c #6C0614",
"s  c #6F051D",
"d  c #63081C",
"f  c #6C081B",
"g  c #710513",
"h  c #730816",
"j  c #70051A",
"k  c #72091B",
"l  c #4A0B2B",
"z  c #5A0928",
"x  c #470B38",
"c  c #580B31",
"v  c #5F063F",
"b  c #4B1138",
"n  c #5B1034",
"m  c #59143E",
"M  c #6D0523",
"N  c #6C0A23",
"B  c #6A062B",
"V  c #630928",
"C  c #6C0D2B",
"Z  c #700721",
"A  c #720B23",
"S  c #710D2B",
"D  c #660634",
"F  c #680630",
"G  c #640C34",
"H  c #6B0C33",
"J  c #62063B",
"K  c #680D3D",
"L  c #700E30",
"P  c #641135",
"I  c #6C1135",
"U  c #64143D",
"Y  c #6D133C",
"T  c #711133",
"R  c #71143C",
"E  c #1F1648",
"W  c #2A0648",
"Q  c #380747",
"!  c #241648",
"~  c #381747",
"^  c #330759",
"/  c #37085F",
"(  c #3A085E",
")  c #251B54",
"_  c #2A1C54",
"`  c #2E135D",
"'  c #261E5B",
"]  c #2D1C5D",
"[  c #391C57",
"{  c #2E205F",
"}  c #33205E",
"|  c #350861",
" . c #390E61",
".. c #2C1961",
"X. c #331364",
"o. c #391868",
"O. c #3A1C73",
"+. c #2B2263",
"@. c #2E256A",
"#. c #352263",
"$. c #32266C",
"%. c #3B256B",
"&. c #322973",
"*. c #3C2974",
"=. c #3C227A",
"-. c #362D7B",
";. c #3A2C7B",
":. c #48084B",
">. c #5C0643",
",. c #540B47",
"<. c #54074C",
"1. c #580748",
"2. c #48164A",
"3. c #561748",
"4. c #460756",
"5. c #4B0754",
"6. c #440759",
"7. c #40085B",
"8. c #4B0C58",
"9. c #500750",
"0. c #520950",
"q. c #491B55",
"w. c #4C1C54",
"e. c #561955",
"r. c #5B1E59",
"t. c #630C42",
"y. c #641644",
"u. c #6C1643",
"i. c #6B1847",
"p. c #65164B",
"a. c #6D1A4B",
"s. c #711743",
"d. c #721846",
"f. c #71194A",
"g. c #661D54",
"h. c #6C1C53",
"j. c #611B58",
"k. c #6B1F5A",
"l. c #701E56",
"z. c #4F205C",
"x. c #5B215E",
"c. c #63215D",
"v. c #6C205D",
"b. c #71215D",
"n. c #461867",
"m. c #511D6C",
"M. c #472467",
"N. c #5C2363",
"B. c #572568",
"V. c #462A76",
"C. c #5C2A73",
"Z. c #5A2A77",
"A. c #552D7C",
"S. c #652465",
"D. c #6B2363",
"F. c #63266C",
"G. c #6B266B",
"H. c #62286F",
"J. c #6C286E",
"K. c #702568",
"L. c #642A74",
"P. c #6C2A74",
"I. c #642D7B",
"U. c #6B2D7C",
"Y. c #3B2D82",
"T. c #3F2C8A",
"R. c #373084",
"E. c #3B3084",
"W. c #3C338B",
"Q. c #3E3692",
"!. c #452C85",
"~. c #473186",
"^. c #43348C",
"/. c #5D3184",
"(. c #523288",
"). c #5D338B",
"_. c #452F92",
"`. c #433693",
"'. c #4A3692",
"]. c #423896",
"[. c #453A9C",
"{. c #4A389A",
"}. c #5A3692",
"|. c #553999",
" X c #5B3A9B",
".X c #662F81",
"XX c #653184",
"oX c #6C3183",
"OX c #65348C",
"+X c #6B348B",
"@X c #633692",
"#X c #6B3792",
"$X c #673896",
"%X c #633B9B",
"&X c #6A3B9C",
"*X c #473DA2",
"=X c #4B3EA4",
"-X c #4B3EA8",
";X c #553DA3",
":X c #5A3FA8",
">X c #633EA3",
",X c #6A3EA4",
"<X c #4D41AC",
"1X c #5341AB",
"2X c #5A40A9",
"3X c #4E43B2",
"4X c #5244B4",
"5X c #5C44B4",
"6X c #5447BA",
"7X c #5B47BA",
"8X c #5448BD",
"9X c #5A49BE",
"0X c #6541AC",
"qX c #6942AD",
"wX c #6544B3",
"eX c #6746B7",
"rX c #554BC2",
"tX c #5A4BC4",
"yX c #574DC8",
"uX c #5A4ECA",
"iX c #5C50CE",
"pX c #5E52D3",
"aX c #5F54D9",
"sX c #634CC5",
"dX c #644ECB",
"fX c #6250CF",
"gX c #6252D3",
"hX c #6155DA",
/* pixels */
"                                                                                                                                ",
"                                                          . .                                                                   ",
"                                              . . X o X . o # # o .     . . .                                                   ",
"                                      . . . o # # o .   . . # 5 7 5 % % % % @ .   . .                                           ",
"                                    . X # $ $ @ X   X X X X X # 7 t 7 % 5 % X . . X o o . .                                     ",
"                                    X $ 4 % # . . . ! +._ + . O ~ 3.b 4 4 # . . o o $ 4 # X                                     ",
"                            . X @ # 4 8 4 = +.-.&.@.Y.[.*X[.*X*X].'.r.f 5 o X X o o 4 8 4 o   .                                 ",
"                          . . # 4 8 r d M.Q.W.Q.[.3X8XrX3X3X3X<X[.[.C.3.0 o . = = . 5 r e 4 # # @ .                             ",
"                            . . o 3 y.h.>XyX[.].3XiXiXtX3XQ.Y.Q.*X[.(.S.B.! ; +.&.~ e r 8 e 8 5 # .                             ",
"                      .       E Y.`.Z.l.&X:X~.].8X8X].&.&.-.Q.3X8X4XOXv.c.M.%.V.(.S.x.q.; 4 8 4 . .                             ",
"                    X o .   E W.{.XXf.B S R k.L.&X0X!.} *.{.:X7X2XXXoX2XZ.i.Y I T s.I.%.) b q # X X .                           ",
"                  X % 5 4 2.A.I.K.d.+XsXtX7X;X).H.a.R R s.u.l.P.I.L.P.H.a.Y c.H.G.u.c.[ q.m V $ X X . .   .                     ",
"                X $ 5 t C d.d.d.d.G.:XhXpXpXyX8X5XOXf.J.,X#XU.+XI.D.C.(.(.'.{.<X2XF.N y f g a 4 X X . X # # o                   ",
"              . # 5 d a.U.+XU.b.b.m.{.-XuXaXhXaXaXgX&X#XdXsXoXR P.'.~.R.W.<X<X*X<XA.I g M M r r 8 4 5 7 8 7 $ X                 ",
"              # 4 e c.0XfXaXiX$XG.Z.| | {.-XuXhXhXdX,XqXgXsX#XJ. X[.Q.[.{.1X<X-X].V.K B 9.2.r i i u u u r e 4 @                 ",
"            o $ 7 x.5XhXaXiX6X1XOX@Xn.| | O.{.yXaXhXwX>X6X-X).S.(.W.W.].<X[.<X^.;. .>.B >.G u a C k y e 4 4 4 $ .               ",
"          . o 4 r.2XhXpXiXyX6X6X7X$XN.| | | | !._.tX$XL.;X-X/.C.{.Q.Y.Y.&.@...|  .6.J D 1.c 8 y f a w # o o # % $ X             ",
"            . 3 C.0X8X6XyXiXyX6X4X#Xu.>.4.| | | 6.F.v.G.XXOXk.P.5X-XW.R...W | | / 0.>.4.X.! 2 w.N p % X X o o $ % # .           ",
"            . ;. X|.;.-.<XtX6X<X2X+Xa.>.>.1.<.5.>.M p.D.R j j K.wXpX-X_.X.| | ( <.D 1.( o.{ @.~.e.a 5 > - X o % 5 # .           ",
"          . &.1X0X/.V.-.<XiXpXgXwX+X}.o.| 4.D j B F M M S.@X,X#XJ.@X_.X.| | 4.>.J J 4.| $.@.@.R.M.p e % . O * 5 7 #             ",
"          : W.<XOXL.}.<XyXyXrXeX,X>XrXO.| | >.M D J B >.( O.*X:XOXt.J <.<.J M M M >.( | @.@.@.R.%.l 7 8 8 7 7 e 5 o .           ",
"        . &.*X'.C.u.L.=X8X8X<X5X,X,XfX!.| ( >.g i i B <.| | | O. .>.j j F <.9.1.D >.| X.+.@.@.) > 7 u e 8 r u e % o o .         ",
"        . W.:XI.a.h p.q.E.<X1XOXk.J.>X!.8.>.M j M j g J 4.| | | ( t.D 9.| | | 7.>.1./ ..{ ' E O @ 8 8 $ X 4 t r 5 o X . .       ",
"    X # q c.D.G.U.G.v.B.{.4XXXd.R R T Y Z M >.6.( 6.1.B t.4.( 4.>.D 9.| | | | 4.J 1.| Y.-.{ :   $ 8 8 # ; ; # 5 5 4 $ # X       ",
"  . o 5 n S.wXsX6X}.v.v.+XJ.d.D.).(.j.B H 1.( |  .| ( 9.D B F D J D >.7.| 7.9.t.B D 5.{.W.$.&.} l r e % . @ $ $ 4 8 5 # X       ",
"    o 5 x.7XhXhXuX Xc.S T k f.%X:X-XB.j J 4.| | ( ( | ( >.M t.6.| <.F B J F F >.5.J 1.'.$.) %.x.S i u e 7 8 t 8 7 8 5 % @ .     ",
"    o q N.eXiXtX8X@Xh.G.&XP.XX1X].&.x y J 8.| ( / ( ( | <.F <.| | 5.D j M B F >.>.B A Y m z U U N.z.q r u u 9 0 * o o o X .     ",
"  . o l x.2X<X].}.P.I.;X7X+X$X<XW.@.z.u.u.p.( | ( ( | ( >.D 9.| 7.1.B D <.6.>.B >.5.q.G a a I A.^.;.~ w u 7 , - o @ @ @ X       ",
"  . $ n y.B.|.@X+XqXfXtX&XoXeXhXtX<X/.a.R H <.( | | 6.>.s j D >.J M >.6.| 4.>.5.| | < * 8 t 2.-.~.*._ 7 e 7 o o @ o o X X X     ",
"  X % P C N T b.qXhXdX#Xb.oXeXfX9X(.g.H i.t.D J <.>.t.D 1.<.D j s v 6.| 6.>.<.( | | ^ W 6 7 # E { ; o 7 u 8 # X X . X @ # o     ",
"  X 4 3.e.x.a.D.0XwXU.d.R K.qX7XB.d z :.7.| 4.t.B g D 4.| | 5.M D 6.| ( 9.<.7.( | | | ^ :.6 # . O O $ e u u e 7 4 4 5 7 4 o     ",
"  o # ~ { { N.T i.D.XX+XP.b.b.h.V z :./  .|  . .<.M >.( / ( 5.D <.| 6.>.D 5.| | ( ( ( / <.B q & 3 b e 8 8 e p n V r t 7 4 @     ",
"  o o $.`.E.B.a.XX'.*X4X=XV.P f V <.| | | ( | | 4.D t.( | | <.D <.4.t.M J 7.| | ( | | 9.F j a i g V l @ . @ b y.G w # $ % @     ",
". X X E.8X8X XF.}.<X<X=X&.E % z F 5.| | | | ( | 7.J J 6.| 9.B g j j g g J 6.| | / ( <.F >.4.5.B M x - O o o 1 U N 4 X # $ @     ",
"      E.8X8X).F. X<X].;.*.) W 9.J 5.| | | | | | 6.J B J D M j j M >.5.1.D 1.6.7.5.D B <.| | 6.t.>.Q < - + @ # 8 r e e 8 4 o .   ",
"      -.3X<XB.v. X[.+.{ Y.=.| 7.J D 9.( | ( | | 6.D g j D D j M 1.7.| | >.j M M j i J 6.| | 6.>.<.( X.} ! - # 8 u r e 7 % o     ",
"      { [.;XJ.v.0X<X@...O. .| 7.v i J ( | | | | 4.F F 9.( 5.>.9.( ( | ( 1.s B >.D M >.( | 4.>.D 8./ / o.;.&.~ 7 8 $ X X X .     ",
"  .   = %.C.D.I.U.%X!.X.| ( | 6.D i M >.( | | 7.1.J 9.| 6.J >.6.( ( | ( t.F 5.| 5.F B t.1.J F J 9.( / / X.] x 8 5 o X X .       ",
"      @ m y.Z.|.U.T t.5. .| 5.J F J B s J <.9.D D 4.4.1.D M 1.( ( | 6.t.F 5.| ( 4.D j M B <.4.5.5./ / / / 4.z t 4 o o . .       ",
"    o 4 U D.0X5XU.j k M D J B B <.4.J g i g g M >.9.t.j i M <.( ( 4.>.M J 6.( | 4.t.1.5.<.5./ 4.:.:.Q Q x V a t 7 $ X .         ",
"    o % r.OX4X%Xh.d.L.Z.r.K S S.F.u.L u.p.R j A S j M D B g F t.D M B F 1.( o.o.e.,.Q Q c V c z a i y r u u u u r e 5 # X       ",
"      o w.A.V.a.v.%X4X<X].~.H.A M d.}.1X Xk.Z S a N 0.( ,.M j D 1.>.D B t.o.!.3.m M.} m U w.2 X # % 5 r i U 3 * 8 r 5 # .       ",
"      X & N.L.a.@X9X1X9XtX4X/.i.I.;X3X:XU.f.+X XB.y.8.6.>.B >.7.| / ( >.M i.I r N x.c.C y.M.) o X = [ z y 3._ + 5 7 $ .         ",
"      . % c.h.P. X[.<XuXhXdX$X@X:X-X;XI.D.&XdXdX$Xa.I D M J 4.| ( ( ( <.B f 8 e u t e r z [ #.#.;.^.%.p r 6 + # 5 5 #           ",
"      . # l u.i.Z.;.*.].7X&XqXuX<X{.L.Y .X5XwX@Xf.S L f j >.( ( ( ( | 9.B V 7 8 r e 7 9 V w.@.{ ! 1 q t u r 7 7 8 4 # .         ",
"      . X # , x.a.u.Y g.K.#XsXuX).i.k A h.g.H T c.V.'.m.>.>.4./ ( | 5.B C C a e 7 7 P k a N P 9 t r 8 e r u u r 5 # X .         ",
"            = ~.oXS d.d.f.+X&XoXD.S.XX#XD.d.a.L.~.+...o.( 1.>.5.6.5.D s a C j.M.: ' V.N.N y r 8 4 # # # 5 r r 8 % # .           ",
"            . V.XXl.OXqXU.A d.P. X3XtXhXeXoXP.@X'.;.'.=Xo.<.B M M g B p.H P A.`.^.~.<XA.N r 5 @ . X # o # 8 e $ . .             ",
"              > B.+X5XtX+XR oXsXiX9XtXgXfX&Xb.XX;X].1X6X=.9.D D >.F M I S n 2 +.#.{ *.x.f 8 # X o X o @ $ 7 5 o                 ",
"              o w. XuX9X%XK.qXhXgXsX4X<X{./.F.J.A.'.W.].A.D t.( ( ( ,.f i e 4 { &.$.3.f u 7 # . X X o X $ 4 $ .                 ",
"              . $ M. XtX&XP.qXiXfXhXgX6XV.x.C.x.U x.C.H.h.B ,./ | | ] , 9 u r n 3.U V 7 8 r 7 # . . X $ 5 5 #                   ",
"              . o $ M.2X+XD. XtXgXgXhXgX0Xb.v.N.C.C.S.c.a.k.e./ / | E . # 5 8 i h n # X # 8 r r 8 7 7 8 5 $ X .                 ",
"                  o % x.v.v. XgXhXuXsX&XK.P.0X8X4X<XW.E.C.I.n.| | ` ) = . . $ e e % . X @ 7 r r t 8 5 5 $ X                     ",
"                  . X X [ L.P.0XqX#XK.R #XfXaXyX3X-.E ' V.A.n./ | ' R.&.) < @ 5 8 $ . . @ 7 r 5 # .   . .                       ",
"                      X # 2.H.v.f.U.U.J.eXhXrX[.&.E : { %.n z / X.Q.-X-XW.+.l w P z.2 o 5 t 8 $ X X .                           ",
"                          . 1 x.P.eXeX+XeXhXiX3X-.@.W.Q.*.n z [ T.rXpXrX'.2.w 0 q e e r r r 5 o . . .                           ",
"                            . # b N.L.P.wXaXhXiX<X<X3X[.%.M.q.2.&.3X7X$XS.N d n z t e 7 7 8 4 X                                 ",
"                              . # % l r.|.yXiX8X3X6X6X'.M.~.B.y.N.A.G.v.XX(.[ # o X X . . @ @ X                                 ",
"                              . . . X $ # ) W.-X<X<X XC.N.A.A.S.k.R S.!.@.: X X . . . .                                         ",
"                                    . o # o . . 1 w.U C p r m ~.V.m l X   .   .                                                 ",
"                                        . X X # $ % % # % 5 4 X # $ o X X X                                                     ",
"                                              . .       . @ @ . o o .                                                           ",
"                                                            . . . .                                                             ",
"                                                                                                                                "
};
