/* XPM */
static char *_88bbe4390d6417f8448d6165b27fea5HT1ZHwlde5wdBKjy[] = {
/* columns rows colors chars-per-pixel */
"64 64 151 2 ",
"   c #0D0A0D",
".  c #120A14",
"X  c #160A19",
"o  c #190A1D",
"O  c #1D0A22",
"+  c #200A26",
"@  c #250A2B",
"#  c #280B2F",
"$  c #231526",
"%  c #2A192E",
"&  c #2C0A34",
"*  c #2F0A38",
"=  c #330B3C",
"-  c #2F1136",
";  c #2F1C33",
":  c #37153F",
">  c #38193F",
",  c #37213C",
"<  c #360A40",
"1  c #3A0A45",
"2  c #3E0A4A",
"3  c #3A1144",
"4  c #3E1348",
"5  c #3B2340",
"6  c #410B4D",
"7  c #431D4C",
"8  c #450A52",
"9  c #480A56",
"0  c #4D0A5B",
"q  c #500A5F",
"w  c #491156",
"e  c #4B1E56",
"r  c #45254D",
"t  c #482B4E",
"y  c #4C2B52",
"u  c #542E5C",
"i  c #55325C",
"p  c #540A64",
"a  c #580E67",
"s  c #5B0A6C",
"d  c #561165",
"f  c #5C116C",
"g  c #5D1B6C",
"h  c #5F0A70",
"j  c #5F1470",
"k  c #630A74",
"l  c #670979",
"z  c #690A7C",
"x  c #631174",
"c  c #641C74",
"v  c #67117A",
"b  c #69127B",
"n  c #6A1B7C",
"m  c #5A2366",
"M  c #5C2B67",
"N  c #5E266B",
"B  c #5C3665",
"V  c #5D3866",
"C  c #5F3569",
"Z  c #5F3868",
"A  c #61266E",
"S  c #622E6E",
"D  c #63366C",
"F  c #61386A",
"G  c #642473",
"H  c #682277",
"J  c #652C72",
"K  c #682F76",
"L  c #6B247B",
"P  c #6C2C7C",
"I  c #663671",
"U  c #693675",
"Y  c #6D347B",
"T  c #71367F",
"R  c #6E0B82",
"E  c #710D85",
"W  c #750E8A",
"Q  c #790F8E",
"!  c #6F1382",
"~  c #721385",
"^  c #721B84",
"/  c #75128A",
"(  c #79128E",
")  c #761D8A",
"_  c #7A1F8D",
"`  c #7B0F90",
"'  c #7D1393",
"]  c #7D1D92",
"[  c #722383",
"{  c #742985",
"}  c #762189",
"|  c #7A278C",
" . c #772D89",
".. c #7A2A8D",
"X. c #753584",
"o. c #783487",
"O. c #7B348C",
"+. c #7E2D90",
"@. c #811396",
"#. c #84149B",
"$. c #861A9C",
"%. c #822696",
"&. c #822D95",
"*. c #85249A",
"=. c #86289B",
"-. c #892A9E",
";. c #823294",
":. c #87339A",
">. c #8A319E",
",. c #8C15A3",
"<. c #8B19A3",
"1. c #8F16A8",
"2. c #9217AB",
"3. c #931AAC",
"4. c #9719B1",
"5. c #9A1AB3",
"6. c #9F1BB9",
"7. c #A21CBD",
"8. c #8E25A4",
"9. c #8E2DA4",
"0. c #912BA7",
"q. c #9423AC",
"w. c #952BAC",
"e. c #982EAE",
"r. c #8D31A2",
"t. c #9131A6",
"y. c #9430AA",
"u. c #9A25B3",
"i. c #9B2EB4",
"p. c #9F21B9",
"a. c #9E2AB8",
"s. c #A226BC",
"d. c #A32DBD",
"f. c #A61DC2",
"g. c #A91EC5",
"h. c #AD1ECA",
"j. c #B01FCE",
"k. c #A727C2",
"l. c #A925C4",
"z. c #A62CC1",
"x. c #A92BC5",
"c. c #AE21CA",
"v. c #AD2BC9",
"b. c #B121CE",
"n. c #B12ACD",
"m. c #B521D3",
"M. c #B823D7",
"N. c #B528D2",
"B. c #BD24DC",
"V. c #C023DF",
"C. c #C224E2",
/* pixels */
"                                                      O o + X @ X           . & o + + o * o                                     ",
"                                              . & @ & @ 1 = 2 1 X           * @ + 6 * X @ 2 O                                   ",
"                                        . + @ * = < 6 p 0 @ 1 @         .   r : @ = q 6 X O X .                                 ",
"                                      O 1 1 6 1 * 1 8 q 2 2 1 . X . . O X   V i 6 @ & = = o = 6 X                               ",
"                                    + = 9 8 9 q p 6 p 0 6 6 = @ & 1 < * # y V y 6 9 = z k 9 * # 9 # 1 .                         ",
"                          . X   . = 0 q p s 8 8 b s 1 = d x p 1 < x $.' G V B 8 l z s s j g q p p p 6 9 o                       ",
"                          3 9 . 8 s s 0 0 p 9 9 2.<.v 6 = p a s 0 / 3.*.B C p p k z h d F V l k k k p q *                       ",
"                      o O & 1 0 l k h 6 8 s 8 f 3.5.0 1 & 8 6 1 d b g B C p l l s E k V F A z l l l k 0 2 *                     ",
"                  . @ 1 * 0 0 k ~ ( a 9 = v z 3.l.3.8 + + + 9 8 @ c V Z z l z z z R B B c z z z l l k s q q X                   ",
"                . = 6 = = 9 p 8 f ! x e V V W M.M.3.' k p + p s w V Z z R R E z z S V ] E z z z l l l k k q <                   ",
"            X . . 2 9 2 0 a 9 v ' ' x ( B V Y M.B.j.3./ a p R $.Z B x z z z R z S B 0.B.m.,.z z c n l l s p 8 #                 ",
"            9 * 6 0 8 8 p q 9 p x ^ 6 b 5.+.B I B.M.c.6./ k #.Z V x h z E W ` K F S 2.B.V.m.2.E B B l l k p 6 6 .               ",
"          = 0 8 q p p 0 p 9 V V - = = 1 ,.3.s.Z D x.B.M.3.! D V ) z ( @.W Q | V K R z W 1.1.( n B B l l z 8 & 6 *               ",
"        # 8 0 p q k s s 9 p r V B r 9 2 s ` M.m.I B 9.B.f.D B g ' 3.j.B.m.$.B I #.' R z W 4.q.V Z R h k k p .   9 #             ",
"        o 0 p p k h k 0 0 9 * = B V M E k 1.h.M.m.O.B o.U B L z W ,.h.B.u.V D ,.#.` z z ` 4.F F 5.2.R h k k q @ q q X           ",
"        O s k k k k k s = = 6 j ( P V U $.7.6.g.M.C.r.V B =.<.#.#.<.g.m.V I g.,.W R z R z D F 4.h.g.1.R A M k h k q o           ",
"        9 k k l k g B B k a h <.7.7.+.B D 5.@.7.B.C.;.V V V 8.<.,.$.p.D Z V.B.4.E R R W Z B ~ ` #.5.4.W V V l h p 8 &           ",
"        & p l k h A V V F $./ ' 4.c.h.w.B D u.3.l.:.V >.m.D Z &.1.$.I Z V.C.C.h.2.,.W C B [ #.1.,.` Q M V z k l 0 . X # .       ",
"        6 p l k k z k c V D ] ~ h.B.m.j.m.D V | { V r.C.B.c.o.V Y U Z v.C.C.C.B.m.g.P V G R ` #.,.,.J V c z h l p X . O O       ",
"    X X 0 l l l z k k z c Z B ) h.f.6.1.7.5.I V Z X.C.C.V.M.M.9.V V z.C.C.C.C.C.M.e.B Y Q #.1.4.7...V S z k h l 0 # . O 2 .     ",
"    .   e F A E z z z R E E F B *.Q ~ k b $.8.B Z X.C.C.C.C.C.:.V Z F n.C.C.C.C.k.B U ,.2.f.f.6.8.V U z z h = p d q # # 9 < X   ",
"    X   : F F 8.h.' E W ,.,.( D V P v z ' &.V U O.V I B.C.C.:.V y.B.I Z y.C.C.l.B I f.6.f.f.,.#.F D ,.s k k s B B h h s s < O   ",
"      X q j V V _ E Q Q ,.g.g.7.U V K ,.q.V U M.N.d.V F B.y.V t.C.C.C.o.Z :.B.D C 6.6.5.1.#.` Z F l.6.E k l G B B z l h p 0 2 . ",
"    X o 9 k s B B H @.,.7.b.B.B.m.O.V I V I B.B.C.C.B.F Z V O.C.C.B.C.C.r.V Z C j.f.1.#.#.#.D Z q.3.` E z b V C z l l l q s 2 O ",
"    . . . 6 s k D F P 7.h.m.M.j.B.V.w.B V M.C.C.C.C.C.v.V V i.C.C.C.C.C.B.D V Z N.B.6.6.f.o.Z 0.f.6.4.7.p.B M z z l l l l s 2 X ",
"    o X   6 q s z S F o.M.B.M.M.V.B.D V F D B.C.C.C.N.F U O.V O.C.C.C.B.Y V e.I Z i.c.m.>.B r.m.f.7.j.M.U Z ( z z z z l h s 2   ",
"  $ B r   6 9 k E l A V Y j.7.b.B.I Z c.n.F F N.C.N.F F B.C.y.V X.C.C.:.V i.V.B.X.V ;.x.V o.V.j.7.2.g.o.V *.R R z l z l l s @   ",
"  > V V i = s v h s k { V D ( 1.I V k.B.C.B.D V n.I F N.C.C.C.x.Z D y.V y.C.V.B.B.r.V Z U B.M.h.j.5.+.V &.#.z R z z l l k p X   ",
"      t i i 6 6 p s p @.u.V F Y V q.B.B.C.C.C.U Z Z N.C.C.C.C.C.N.Z B X.C.C.C.C.C.B.F Z D N.m.b.m.s.B U @.h R 2.l R l h h 1 . X ",
"        5 F i : s l E 5.b.u.V V 0.m.C.C.C.C.C.X.Z Z t.C.C.C.C.C.N.Z Z V d.C.C.C.C.Y Z N.D V e.B.B.Z D a h @ R ,.l l k q q < X & ",
"          , F V 9 z 1.j.j.o.F F Z n.C.B.C.C.O.V d.:.Z o.C.C.C.B.Z D B.o.V :.C.C.o.Z x.C.C.o.V ;.U F b.f s * k l h l h 8 s 9 9 2 ",
"        - o % i V 4 / ,.P F t.B.I V x.C.C.t.Z y.C.C.e.Z T B.B.F F B.C.C.y.V o.y.V i.C.C.C.C.r.V V z.b.v 9 # k l p l l l p s 0 . ",
"    # -     & ; B B 4 M B ;.V.C.C.T V i.y.V :.C.C.C.C.z.Z F U Z N.C.C.C.C.d.Z Z O.C.C.C.C.C.y.V V F d._ s @ k z l s l l 2 q O   ",
"  X d d O . =   : B V V D ,.h.C.C.C.O.V V ;.C.C.C.C.C.C.N.V V d.C.C.C.C.C.N.Z V Z N.C.C.C.v.F O.N.F Z -.4.,.E l z k l 0 = @ =   ",
"  . 2 6 @ $ & & ~ P B V c 2.h.V.C.C.v.V V t.C.C.C.C.C.C.O.F F F v.C.C.C.V.Z F B.F Z i.C.V.Z U V.C.V.T Z X.,.2.z k h s q # X #   ",
"    O 1 # < = 4 c B C D B %.h.M.N.N.V U :.V ;.N.B.C.C.y.Z y.C.U Z z.C.C.U Z N.C.V.o.V r.U F B.C.C.C.B.r.V D / l h 6 9 1 1 o     ",
"      X . 3 1 7 V B ! <.D V *.f.q.F F B.C.t.V U B.C.v.F O.C.C.C.T F y.X.V v.C.C.C.C.r.V Z v.C.C.C.C.C.C.i.V V g p 0 & & = * o   ",
"          o X i V 1 x R ,.Y V ;.F Z N.C.C.V.d.V U v.Z U C.C.C.C.C.O.Z V z.C.C.C.C.C.t.V Z D V.C.C.C.C.C.C.c.V V d 9 2 * < < *   ",
"    = : . # = d ) f a / 7.M.O.V V k.m.c.V.C.C.v.F V F C.C.C.C.C.C.d.Z V U C.C.C.V.n.F :.n.F F N.C.C.C.C.C.V.s.V u 8 0 2 * @     ",
"    . X o o q ' f f R 7.m.h.U B V :.m.B.C.C.C.C.F V F N.C.C.C.C.N.V X.n.Z F V.C.B.Z U C.C.M.F F d.C.C.C.C.B.g.h < 1 2 = O       ",
"        @ @ 9 ! d f 6 ~ 1.U B 8.:.V o.C.C.C.C.U Z v.F F v.C.C.C.F F C.C.N.F F n.D F C.C.C.C.C.o.V y.C.C.C.B.$.s 0 # O X .       ",
"          8 f ! 2 p k R S B | 7.b.0.V X.C.C.o.Z n.C.C.U Z d.V.F F B.C.C.C.B.D F F N.C.C.C.C.C.C.>.V o.C.C.V.4.q s 6 O           ",
"        O p z ~ 6 z b V V J @.5.g.B.e.V Y :.V a.C.C.C.C.X.V U V N.C.C.C.V.B.>.V V w.V.C.C.C.C.C.C.i.V U B.C.7.s 9 1           . ",
"        : 0 z 3.x R b B D E ` ,.h.m.g.k.Z Z r.C.C.C.C.C.C.U V X.C.C.C.C.V.z.V O.U V r.C.C.C.C.C.C.C.v.V F b.4.s 6 1             ",
"          9 l / z z R z z z #.5.f.5.3.a.Z Z D N.C.C.C.C.i.Z X.Z O.C.C.C.N.F U 7.E Y B :.C.C.C.C.C.C.C.n.D V H p p 8 O           ",
"          2 Q l E W W R z R Q ' 3.#.[ V D q.V F N.C.C.N.Z o.V.y.Z X.C.V.F F 3.1.#.4.t.B Y V.C.C.C.C.C.b._ B V p 8 2 &           ",
"            R z ,.#.W W z z z @.3.| Z Z ~ ,.u.F Z V.B.Z D B.C.C.d.Z U X.F x.<.6.5.g.B.l.F D B.C.B.C.B.f.l N f 2     .           ",
"          O h s ~ ,.E ' s 1 p / ) D Z <.' 3.B.B.F V Z F B.V.C.C.C.v.Z V y.B.3.6.g.m.V.C.n.F F s.g.M.M.6.8 < o .                 ",
"          < 9 = X 9 0 ! 1 a a p B V g x ' l.C.C.B.F V d.V.V.C.C.C.z.V V F N.h.2.f.M.m.B.V.B.D B u.B.M.,.9 6 +   .   X o         ",
"              # 8 O O 1 * = h V V L E l Q h.B.C.:.V D F d.C.C.C.M.F U M.D B a.h.j.B.g.j.B.V.M.U V d.B.@.2 2 1 O + . = +         ",
"              . = O X p s 9 z Z ../ / ~ E j.V.e.V y.C.X.V e.C.C.D D B.B.B.Y V i.j.g.7.j.M.B.C.C.U I B.( * X O 6 * O + X         ",
"              o O = = l z k z f ' ! l k z 7.s.F T B.V.V.o.F y.X.F x.V.V.C.C.T B 8.m.3.3.f.b.V.C.C.B.l.q + O * * O               ",
"                  0 a a 9 0 z 9 8 k l z k n V I 7.m.V.V.V.;.V V w.7.g.V.C.C.C.X.F  .E f.M.V.B.l.@.b 8 6 @ + X   o X             ",
"              + o + 8 .   = f 6 1 k z k g B V s ( f.M.B.B.d.V V O.m.B.B.C.C.M.m. .V Y 7.B.V.g.k p = = = * = * .                 ",
"              .     .     * @ . O s k m V V a h v 3.M.M.b.F U y.V o.j.m.M.V.V.V.B.V F j.B.B.s.d 1 1 = < X .                     ",
"                                1 k z g B m s s l 5.M.B.D V 3.7.0.V U ,.5.h.B.V.V.m.b.B.M.j.b . .     X                         ",
"                                s k k k h 9 = k E ,.7.B V ( ` $.W [ V F b <.7.M.M.V.B.c.$.~ *                                   ",
"                                k l p p h k k h R Q E D } @.#.3.E s g V V c x ( $.3.3.b #                                       ",
"                          #   < s h l k s k k l k z z v ' ' ,.5.E s 2 g D x 8 = q 9 * .                                         ",
"                          .   . o 0 2 8 q q k k p s k l E E ' ~ x b $.( 0 z q 8 *                                               ",
"                                      & 1 8 8 1 s h h k 6 6 a 8 2 0 #.! h 6 < +                                                 ",
"                                        X 2 = 6 # O @ < 2 & @ < @ = = 0 = O X                                                   ",
"                                              # = * = O X       . @ & o                                                         ",
"                                                                                                                                "
};
