/* XPM */
static char *_894b2b005cb4c59ed1dd4cc939e566bnqokfmLQ738nByjY[] = {
/* columns rows colors chars-per-pixel */
"71 64 161 2 ",
"   c None",
".  c #0D0A0D",
"X  c #161416",
"o  c #1C1B1C",
"O  c #222022",
"+  c #262526",
"@  c #2A292A",
"#  c #2E2D2E",
"$  c #323132",
"%  c #353435",
"&  c #383738",
"*  c #3A3A3A",
"=  c gray24",
"-  c #403F40",
";  c #424142",
":  c #474647",
">  c #494849",
",  c #4B4B4B",
"<  c gray31",
"1  c #535253",
"2  c #555455",
"3  c #5A595A",
"4  c #5B5B5B",
"5  c #5D5D5D",
"6  c #5F5E5F",
"7  c #626162",
"8  c gray39",
"9  c #656465",
"0  c gray40",
"q  c #676767",
"w  c DimGray",
"e  c #6A6A6A",
"r  c #6C6B6C",
"t  c #6D6D6D",
"y  c gray43",
"u  c #6F6F6F",
"i  c #727272",
"p  c #747474",
"a  c #767576",
"s  c #777777",
"d  c gray47",
"f  c #797979",
"g  c gray48",
"h  c #7C7C7C",
"j  c #7E7D7E",
"k  c #808080",
"l  c gray51",
"z  c #838383",
"x  c #848484",
"c  c #868686",
"v  c gray53",
"b  c #898989",
"n  c gray54",
"m  c #8B8B8B",
"M  c gray55",
"N  c #8D8D8D",
"B  c #8E8E8E",
"V  c gray56",
"C  c gray57",
"Z  c #939393",
"A  c gray58",
"S  c gray59",
"D  c #989898",
"F  c #999899",
"G  c gray60",
"H  c #9A9A9A",
"J  c gray61",
"K  c #9D9D9D",
"L  c #9E9D9E",
"P  c #9F9F9F",
"I  c #A0A0A0",
"U  c gray63",
"Y  c #A2A1A2",
"T  c #A4A4A4",
"R  c #A5A5A5",
"E  c gray65",
"W  c #A7A7A7",
"Q  c #AAAAAA",
"!  c gray67",
"~  c #ACABAC",
"^  c #ACACAC",
"/  c gray68",
"(  c #AEAEAE",
")  c #AFAFAF",
"_  c gray69",
"`  c #B1B1B1",
"'  c #B2B2B2",
"]  c gray70",
"[  c #B4B4B4",
"{  c gray71",
"}  c #B6B6B6",
"|  c #B7B7B7",
" . c #B8B7B8",
".. c gray72",
"X. c #B9B9B9",
"o. c #BAB9BA",
"O. c #BBBBBB",
"+. c #BCBBBC",
"@. c #BCBCBC",
"#. c gray74",
"$. c gray",
"%. c gray75",
"&. c #C0C0C0",
"*. c #C1C1C1",
"=. c gray76",
"-. c #C3C3C3",
";. c gray77",
":. c #C6C6C6",
">. c gray78",
",. c #C8C7C8",
"<. c #C8C8C8",
"1. c gray79",
"2. c #CACACA",
"3. c #CDCDCD",
"4. c #CECECE",
"5. c gray81",
"6. c #D0D0D0",
"7. c gray82",
"8. c LightGray",
"9. c gray83",
"0. c #D5D5D5",
"q. c gray84",
"w. c #D7D7D7",
"e. c gray85",
"r. c #DADADA",
"t. c gray86",
"y. c gainsboro",
"u. c #DDDDDD",
"i. c gray87",
"p. c #DFDFDF",
"a. c gray88",
"s. c #E1E1E1",
"d. c gray89",
"f. c #E4E4E4",
"g. c gray90",
"h. c #E6E6E6",
"j. c #E7E7E7",
"k. c gray91",
"l. c #EAEAEA",
"z. c gray92",
"x. c #ECECEC",
"c. c gray93",
"v. c #EEEEEE",
"b. c #EFEFEF",
"n. c #F0EFF0",
"m. c gray94",
"M. c #F1F1F1",
"N. c gray95",
"B. c #F3F3F3",
"V. c #F4F4F4",
"C. c gray96",
"Z. c #F6F6F6",
"A. c gray97",
"S. c #F8F8F8",
"D. c #F9F9F9",
"F. c gray98",
"G. c #FBFBFB",
"H. c gray99",
"J. c #FDFDFD",
"K. c #FEFEFE",
"L. c white",
/* pixels */
"L.L.L.L.L.L.L.L.L.L.L.L.L.L.L.L.L.L.L.L.L.L.L.L.L.L.L.L.L.L.L.L.L.L.L.L.L.L.L.L.L.L.L.L.L.L.L.L.L.L.L.L.L.L.L.L.L.L.L.L.L.L.L.L.              ",
"L.L.L.L.L.L.L.L.L.L.L.L.L.L.L.L.L.L.L.L.L.L.L.L.L.L.L.L.L.L.L.L.L.L.L.L.L.L.L.L.L.L.L.L.L.L.L.L.L.L.L.L.L.L.L.L.L.L.L.L.L.L.L.L.              ",
"L.L.L.L.L.L.L.L.L.L.L.L.L.L.L.L.L.L.L.L.L.L.L.L.L.L.L.L.L.L.L.L.L.L.L.L.L.L.L.L.L.L.L.L.L.L.L.L.L.L.L.L.L.L.L.L.L.L.L.L.L.L.L.L.              ",
"L.L.L.L.L.L.L.L.L.L.L.L.L.L.L.L.L.L.L.L.L.L.L.L.L.L.L.L.L.L.L.L.L.L.L.L.L.L.L.L.L.L.L.L.L.L.L.L.L.L.L.L.L.L.L.L.L.L.L.L.L.L.L.L.              ",
"L.L.L.L.L.L.L.L.L.L.L.L.L.L.L.L.L.L.L.L.L.L.L.L.L.L.L.L.L.L.L.L.L.L.L.L.L.L.L.L.L.L.L.L.L.L.L.L.L.L.L.L.L.L.L.L.L.L.L.L.L.L.L.L.              ",
"L.L.L.L.L.L.L.L.L.L.L.L.L.L.L.L.L.L.L.L.L.L.L.L.L.L.L.L.L.L.L.L.L.L.L.L.L.L.L.L.L.L.L.L.L.L.L.L.L.L.L.L.L.L.L.L.L.L.L.L.L.L.L.L.              ",
"L.L.L.L.L.L.L.L.L.L.L.L.L.L.L.L.L.L.L.L.L.L.L.L.L.L.L.L.L.L.L.L.L.L.L.L.L.L.L.L.L.L.L.L.L.L.L.L.L.L.L.L.L.L.L.L.L.L.L.L.L.L.L.L.              ",
"L.L.L.L.L.L.L.L.L.L.L.L.L.L.L.L.L.L.L.L.L.L.L.L.L.L.L.L.L.L.L.L.L.L.L.L.L.L.L.L.L.L.L.L.L.L.L.L.L.L.L.L.L.L.L.L.L.L.L.L.L.L.L.L.              ",
"L.L.L.L.L.L.L.L.L.L.L.L.L.L.L.L.L.L.L.L.L.L.L.L.L.L.L.L.L.L.L.L.L.L.L.L.L.L.L.L.L.L.L.L.L.L.L.L.L.L.L.L.L.L.L.L.L.L.L.L.L.L.L.L.              ",
"L.L.L.L.L.L.L.L.L.L.L.L.L.L.L.L.L.L.L.L.L.l.f.m.L.L.L.L.L.L.L.L.L.L.L.L.L.L.L.L.L.L.L.L.L.L.L.L.L.L.L.L.L.L.L.L.L.L.L.L.L.L.L.L.              ",
"c.. >.L.L.L.L.; r L.L.L.L.| * L.L.L.L.X.: . . . d i.L.L.L.L.&.. . . $ y +.G.L.L.. . . . . . . . . e L.>.. m.L.L.L.L.V.. &.L.L.L.              ",
"L.4 H L.L.L.f.. . V.L.L.L.z B L.L.L.H + @.V.L.f.B O e.L.L.L.>.. m.L.V.0.% A L.L.L.L.L.L.y A L.L.L.L.L.1.. m.L.L.L.L.V.. &.L.L.L.              ",
"L.Y 1 L.L.L.&.d % 0.L.L.G.# &.L.L.0.. 1.L.L.L.L.G.d 2 L.L.L.>.. V.L.L.L.' . B.L.L.L.L.L.y A L.L.L.L.L.>.. V.L.L.L.L.G.. &.L.L.L.              ",
"L.3.. c.L.L.H | n ( L.L.a.. f.L.L.B 4 L.L.L.L.L.L.e.. 7.L.L.>.. m.L.L.L.&.. c.L.L.L.L.L.y A L.L.L.L.L.>.. m.L.L.L.L.V.. &.L.L.L.              ",
"L.m.. 1.L.L.< e.+.d L.L.@.= L.L.L.* P L.L.L.L.L.L.G.X ( L.L.>.. m.L.L.L.P 4 L.L.L.L.L.L.y A L.L.L.L.L.>.. m.L.L.L.L.V.. &.L.L.L.              ",
"L.L.9 P L.l.o G.a.o V.L.B C L.L.V.. ' L.L.L.L.L.L.L.: P L.L.>.. V.L.V.&.@ e.L.L.L.L.L.L.y A L.L.L.L.L.>.. . . . . . . . &.L.L.L.              ",
"L.L.E 4 L.1.s L.G.# e.L.* &.L.L.G.. ] L.L.L.L.L.L.L.: P L.L.>.. . . . % f.L.L.L.L.L.L.L.y C L.L.L.L.L.&.. m.L.L.L.L.V.. &.L.L.L.              ",
"L.L.7.. c.Y ( L.L.v | a.. f.L.L.L.% Y L.L.L.L.L.L.G.X ( L.L.&.. m.L.0.. ' L.L.L.L.L.L.L.y S L.L.L.L.L.>.. V.L.L.L.L.G.. &.L.L.L.              ",
"L.L.m.. 3.5 0.L.L.X.z &.; L.L.L.L.B 4 L.L.L.L.L.L.e.. 0.L.L.>.. V.L.L.' . 3.L.L.L.L.L.L.y S L.L.L.L.L.>.. m.L.L.L.L.V.. &.L.L.L.              ",
"L.L.L.y v . V.L.L.i.@ n S L.L.L.L.7.. 1.L.L.L.L.L.j 2 G.L.L.>.. m.L.L.L.B $ f.L.L.L.L.L.y C L.L.L.L.L.>.. m.L.L.L.L.V.. &.L.L.L.              ",
"L.L.L.~ . e L.L.L.G.+ . &.L.L.L.L.L.F O @.B.L.f.m + e.L.L.L.>.. m.L.L.L.V.5 6 V.L.L.L.L.y C L.L.L.L.L.>.. m.L.L.L.L.V.. &.L.L.L.              ",
"L.L.L.0.. E L.L.L.L.z . l.L.L.L.L.L.L.X.: . . . p i.L.L.L.L.>.. V.L.L.L.L.a.@ v L.L.L.L.y S L.L.L.L.L.>.. m.L.L.L.L.V.. &.L.L.L.              ",
"L.L.L.L.L.L.L.L.L.L.L.L.L.L.L.L.L.L.L.L.L.l.f.m.L.L.L.L.L.L.L.L.L.L.L.L.L.L.L.L.L.L.L.L.L.L.L.L.L.L.L.L.L.L.L.L.L.L.L.L.L.L.L.L.              ",
"L.L.L.L.L.L.L.L.L.L.L.L.L.L.L.L.L.L.L.L.L.L.L.L.L.L.L.L.L.L.L.L.L.L.L.L.L.L.L.L.L.L.L.L.L.L.L.L.L.L.L.L.L.L.L.L.L.L.L.L.L.L.L.L.              ",
"L.L.L.L.L.L.L.L.L.L.L.L.L.L.L.L.L.L.L.L.L.L.L.L.L.L.L.L.L.L.L.L.L.L.L.L.L.L.L.L.L.L.L.L.L.L.L.L.L.L.L.L.L.L.L.L.L.L.L.L.L.L.L.L.              ",
"L.L.L.L.L.L.L.L.L.L.L.L.L.L.L.L.L.L.L.L.L.L.L.L.L.L.L.L.L.L.L.L.L.L.L.L.L.L.L.L.L.L.L.L.L.L.L.L.L.L.L.L.L.L.L.L.L.L.L.L.L.L.L.L.              ",
"L.L.L.L.L.L.L.L.L.L.L.L.L.L.L.L.L.L.L.L.L.L.L.L.L.L.L.L.L.L.L.L.L.L.L.L.L.L.L.L.L.L.L.L.L.L.L.L.L.L.L.L.L.L.L.L.L.L.L.L.L.L.L.L.              ",
"L.L.L.L.L.L.L.L.L.L.L.L.L.L.L.L.L.L.L.L.L.L.L.L.L.L.L.L.L.L.L.L.L.L.L.L.L.L.L.L.L.L.L.L.L.L.L.L.L.L.L.L.L.L.L.L.L.L.L.L.L.L.L.L.              ",
"L.L.L.L.L.L.L.L.L.L.L.L.L.L.L.L.L.L.L.L.L.L.L.L.L.L.L.L.L.L.L.L.L.L.L.L.L.L.L.L.L.L.L.L.L.L.L.L.L.L.L.L.L.L.L.L.L.L.L.L.L.L.L.L.              ",
"L.L.L.L.L.L.L.L.L.L.L.L.L.L.L.L.L.L.L.L.L.L.L.L.L.L.L.L.L.L.L.L.L.L.L.L.L.L.L.L.L.L.L.L.L.L.L.L.L.L.L.L.L.L.L.L.L.L.L.L.L.L.L.L.              ",
"L.L.L.L.L.L.L.L.L.L.L.L.L.L.L.L.L.L.L.L.L.L.L.L.L.L.L.L.L.L.L.L.L.L.L.L.L.L.L.L.L.L.L.L.L.L.L.L.L.L.L.L.L.L.L.L.L.L.L.L.L.L.L.L.              ",
"L.L.L.L.L.L.L.L.L.L.L.L.L.L.L.L.L.L.L.L.L.L.L.L.L.L.L.L.L.L.L.L.L.L.L.L.L.L.L.L.L.L.L.L.L.L.L.L.L.L.L.L.L.L.L.L.L.L.L.L.L.L.L.L.              ",
"L.L.L.L.L.L.L.L.L.L.L.L.L.L.L.L.L.L.L.L.L.L.L.L.L.L.L.L.L.L.L.L.L.L.L.L.L.L.L.L.L.L.L.L.L.L.L.L.L.L.L.L.L.L.L.L.L.L.L.L.L.L.L.L.              ",
"L.L.L.L.L.L.L.L.L.L.L.L.L.L.L.L.L.L.L.L.L.L.L.L.L.L.L.L.L.L.L.L.L.L.L.L.L.L.L.L.L.L.L.L.L.L.L.L.L.L.L.L.L.L.L.L.L.L.L.L.L.L.L.L.              ",
"L.L.L.L.L.L.L.L.L.L.L.L.L.L.L.L.L.L.L.L.L.L.L.L.L.L.L.L.L.L.L.L.L.L.L.L.L.L.L.L.L.L.L.L.L.L.L.L.L.L.L.L.L.L.L.L.L.L.L.L.L.L.L.L.              ",
"L.L.L.L.L.L.L.L.L.L.L.L.L.L.L.L.L.L.L.L.L.L.L.L.L.L.L.L.L.L.L.L.L.L.L.L.L.L.L.L.L.L.L.L.L.L.L.L.L.L.L.L.L.L.L.L.L.L.L.L.L.L.L.L.              ",
"L.L.L.L.L.L.L.L.L.L.L.L.L.L.L.L.L.L.L.L.L.L.L.L.L.L.L.L.L.L.L.L.L.L.L.L.L.L.L.L.L.L.L.L.L.L.L.L.L.L.L.L.L.L.L.L.L.L.L.L.L.L.L.L.              ",
"L.L.L.L.L.L.L.L.L.L.L.L.L.L.L.L.L.L.L.L.L.L.L.L.L.L.L.L.L.L.L.L.L.L.L.L.L.L.L.L.L.L.L.L.L.L.L.L.L.L.L.L.L.L.L.L.L.L.L.L.L.L.L.L.              ",
"L.L.L.L.L.L.L.L.L.L.L.L.L.L.L.L.L.L.L.L.L.L.L.L.L.L.L.L.L.L.L.L.L.L.L.L.L.L.L.L.L.L.L.L.L.L.L.L.L.L.L.L.L.L.L.L.L.L.L.L.L.L.L.L.              ",
"L.L.L.L.L.V.@ E L.L.L.L.L.L.L.e.E y & $ y ' G.L.L.L.L.L.' . . . . . . . . f.L.L.L.m.H ; * B l.L.L.L.L.L.@.+ c.L.L.L.L.L.L.L.L.L.              ",
"L.L.L.G.f.C . E L.L.L.L.L.L.G.. . . . . . . y V.L.L.L.L.' . . . . . . . . f.L.L.L.y p m.m.z 4 G.L.L.L.G.> E L.L.L.L.L.L.L.L.L.L.              ",
"L.L.e.. . . . E L.L.L.L.L.L.V.i &.l.G.V.0.1 . X.L.L.L.L.' . 0.L.L.L.L.L.L.L.L.L.e.. 7.L.L.e.. 3.L.L.L.@.@ m.L.L.L.L.L.L.L.L.L.L.              ",
"L.L.i.. . . . E L.L.L.L.L.L.L.L.L.L.L.L.L.3.. n L.L.L.L.| . 7.L.L.L.L.L.L.L.L.L.@.. d.L.L.c.. ( L.L.V.> ! L.L.L.L.L.L.L.L.L.L.L.              ",
"L.L.L.L.L.a.. E L.L.L.L.L.L.L.L.L.L.L.L.L.f.. C L.L.L.L.' . 0.L.L.L.L.L.L.L.L.L.| . l.L.L.m.. E L.L.X.# m.L.L.L.L.L.L.L.L.L.L.L.              ",
"L.L.L.L.L.a.. E L.L.L.L.L.L.L.L.L.L.L.L.L.1.. | L.L.L.L.| . 7.L.L.L.L.L.L.L.L.L.@.. f.L.L.c.. ( L.V.; ( L.L.L.L.L.L.L.L.L.L.L.L.              ",
"L.L.L.L.L.a.. E L.L.L.L.L.L.L.L.L.L.L.L.G.9 + b.L.L.L.L.' . * + # 7 P l.L.L.L.L.i.. 7.L.L.e.. 3.L.' $ V.L.&.9 @ 9 >.L.L.L.L.L.L.              ",
"L.L.L.L.L.a.. E L.L.L.L.L.L.L.L.L.L.L.L.H . &.L.L.L.L.L.' . . . . . . + 0.L.L.L.G.r p m.m.z 4 G.V.= ' L.,.. 3.G.1.. 3.L.L.L.L.L.              ",
"L.L.L.L.L.i.. E L.L.L.L.L.L.L.L.L.L.L.Y . ( L.L.L.L.L.L.L.L.L.L.V.i.B . 1 G.L.L.L.m.S = * B z.L.| * m.L.r d L.L.L.9 d L.L.L.L.L.              ",
"L.L.L.L.L.a.. E L.L.L.L.L.L.L.L.L.G.H . ( L.L.L.L.L.L.L.L.L.L.L.L.L.L.e . f.L.L.L.L.L.L.L.L.L.V.* ' L.G.. P L.L.L.B + L.L.L.L.L.              ",
"L.L.L.L.L.a.. E L.L.L.L.L.L.L.L.V.z . @.L.L.L.L.L.L.L.L.L.L.L.L.L.L.L.B . i.L.L.L.L.L.L.L.L.L.' * B.L.m.. Y L.L.L.H . G.L.L.L.L.              ",
"L.L.L.L.L.a.. E L.L.L.L.L.L.L.l.q @ 3.L.L.L.L.L.L.L.L.L.L.L.L.L.L.L.V.> . m.L.L.L.L.L.L.L.L.B.% | L.L.G.. P L.L.L.V + L.L.L.L.L.              ",
"L.L.L.L.L.a.. E L.L.L.L.L.L.a.- > a.L.L.L.L.L.L.L.L.L.l.v 3.c.L.V.i.d . C L.L.L.L.L.L.L.L.L.( = V.L.L.L.y d L.L.L.e h L.L.L.L.L.              ",
"L.L.e.. . . . . . . ! L.L.L.1.. . . . . . . . . 1.L.L.l.. . . . . . . 7 m.L.L.L.L.L.L.L.L.m.$ | L.L.L.L.,.. 7.G.1.. 3.L.L.L.L.L.              ",
"L.L.i.. . . . . . . ! L.L.L.>.. . . . . . . . . >.L.L.L.3.S y ; % p | G.L.L.L.L.L.L.L.L.L.! ; G.L.L.L.L.L.&.7 @ e 1.L.L.L.L.L.L.              ",
"L.L.L.L.L.L.L.L.L.L.L.L.L.L.L.L.L.L.L.L.L.L.L.L.L.L.L.L.L.L.L.L.L.L.L.L.L.L.L.L.L.L.L.L.L.L.L.L.L.L.L.L.L.L.L.L.L.L.L.L.L.L.L.L.              ",
"L.L.L.L.L.L.L.L.L.L.L.L.L.L.L.L.L.L.L.L.L.L.L.L.L.L.L.L.L.L.L.L.L.L.L.L.L.L.L.L.L.L.L.L.L.L.L.L.L.L.L.L.L.L.L.L.L.L.L.L.L.L.L.L.              ",
"L.L.L.L.L.L.L.L.L.L.L.L.L.L.L.L.L.L.L.L.L.L.L.L.L.L.L.L.L.L.L.L.L.L.L.L.L.L.L.L.L.L.L.L.L.L.L.L.L.L.L.L.L.L.L.L.L.L.L.L.L.L.L.L.              ",
"L.L.L.L.L.L.L.L.L.L.L.L.L.L.L.L.L.L.L.L.L.L.L.L.L.L.L.L.L.L.L.L.L.L.L.L.L.L.L.L.L.L.L.L.L.L.L.L.L.L.L.L.L.L.L.L.L.L.L.L.L.L.L.L.              ",
"L.L.L.L.L.L.L.L.L.L.L.L.L.L.L.L.L.L.L.L.L.L.L.L.L.L.L.L.L.L.L.L.L.L.L.L.L.L.L.L.L.L.L.L.L.L.L.L.L.L.L.L.L.L.L.L.L.L.L.L.L.L.L.L.              ",
"L.L.L.L.L.L.L.L.L.L.L.L.L.L.L.L.L.L.L.L.L.L.L.L.L.L.L.L.L.L.L.L.L.L.L.L.L.L.L.L.L.L.L.L.L.L.L.L.L.L.L.L.L.L.L.L.L.L.L.L.L.L.L.L.              ",
"L.L.L.L.L.L.L.L.L.L.L.L.L.L.L.L.L.L.L.L.L.L.L.L.L.L.L.L.L.L.L.L.L.L.L.L.L.L.L.L.L.L.L.L.L.L.L.L.L.L.L.L.L.L.L.L.L.L.L.L.L.L.L.L.              ",
"L.L.L.L.L.L.L.L.L.L.L.L.L.L.L.L.L.L.L.L.L.L.L.L.L.L.L.L.L.L.L.L.L.L.L.L.L.L.L.L.L.L.L.L.L.L.L.L.L.L.L.L.L.L.L.L.L.L.L.L.L.L.L.L.              ",
"L.L.L.L.L.L.L.L.L.L.L.L.L.L.L.L.L.L.L.L.L.L.L.L.L.L.L.L.L.L.L.L.L.L.L.L.L.L.L.L.L.L.L.L.L.L.L.L.L.L.L.L.L.L.L.L.L.L.L.L.L.L.L.L.              ",
"L.L.L.L.L.L.L.L.L.L.L.L.L.L.L.L.L.L.L.L.L.L.L.L.L.L.L.L.L.L.L.L.L.L.L.L.L.L.L.L.L.L.L.L.L.L.L.L.L.L.L.L.L.L.L.L.L.L.L.L.L.L.L.L.              "
};
