/* XPM */
static char *_6187a067948485aa182b668e8af5e258AaCHrValepeojBK[] = {
/* columns rows colors chars-per-pixel */
"64 64 59 1 ",
"  c black",
". c #000600",
"X c #010800",
"o c #010E00",
"O c #011000",
"+ c #021501",
"@ c #021A01",
"# c #031B01",
"$ c #031C01",
"% c #031F01",
"& c #042001",
"* c #042301",
"= c #052602",
"- c #052902",
"; c #072E02",
": c #072F02",
"> c #073003",
", c #083203",
"< c #083403",
"1 c #093503",
"2 c #0A3903",
"3 c #0A3A04",
"4 c #0B3B04",
"5 c #0B3D04",
"6 c #0C3E04",
"7 c #0C3F04",
"8 c #0D4205",
"9 c #0E4505",
"0 c #0F4806",
"q c #0F4906",
"w c #104A06",
"e c #114D06",
"r c #114F07",
"t c #125007",
"y c #135307",
"u c #135408",
"i c #135508",
"p c #145608",
"a c #145708",
"s c #145808",
"d c #165B09",
"f c #165E0A",
"g c #175F0A",
"h c #17600A",
"j c #18620B",
"k c #18630B",
"l c #19640B",
"z c #19650B",
"x c #1A670C",
"c c #1A690C",
"v c #246940",
"b c #256940",
"n c #33676B",
"m c #5EEF45",
"M c #3D6588",
"N c #46639E",
"B c #4E61B1",
"V c #555EC1",
"C c #F55FE5",
/* pixels */
"                                                                ",
"                                                                ",
"                                                                ",
"                                                                ",
"                                                                ",
"                                                                ",
"     .. ..                                                      ",
"       . ...     o=                                             ",
"     . X$+58.     Xo.                                           ",
"      +8fmmm<      -O                                           ",
"      >mmmmmN+    en8OX                                         ",
"       fmmmmmw    mmV0;                                         ",
"       2Vmmmmm   +mmmmp                                         ",
"       okmmmmm. .>mmmmz      .      .                           ",
"        wmmmmm$  dmmmmc  .  .     . X                           ",
"        @Vmmmm8X$mmmmmf   .  +X .  o$oX                         ",
"     .. *mmmmmttmmmmmm0   .o;w2X  =9p98                         ",
"   XOo.ofmmmmmmmmmmmmVO   *wmmN;.ofmmmm                         ",
"   Ooo=zmmmmmmmmmmmmm0    wmmmmk+7mmmmm                         ",
"   Xo>mmmmmmmmmmmmmme     emmmmmtzmmmmm                         ",
"   X;mmmm8hmmmmmmmh>      ,cmmmmmmmmmmk            ... .O.      ",
"   .mmmm,CCC,mmmme.       .fmmfNmmmtmm8             . . XX      ",
"    mmm-CCC=mmmmmxX        8Vm0;mmd,mm2 . . . . . ..X.*8e9=     ",
"    mmdCC$9mmmwmmm9X. . .  ocmfkmmmfmm-XX#+X .o+O...Oummmmz@    ",
"    mmB=9cmmmm99mmme@ X.O. .fmNmmmmmmz,,<72,53442<<2hmmmmmmt    ",
"    Bmmmmmmmmmm+pmmmfee0eeeebmmmNzmmmmmmmmmmmmmmmmmmmmmz3mmm    ",
"    <mmmmmm0xmme emmmmmmmmmmmmmm,Mmmmmmmmmmmmmmmmmmmmme+ummm    ",
"    ohmmmmm7wmmmX 3Mmmmmmmmmmmmy<VmmmVNMckkkgkgkkzhd3o-0mmmf    ",
"   O=bmmmmmm+mmm<   o*;;@.+xmmc@7mmmp                X8mmmc$    ",
"   =2mmmmmmm.fmmh       ..9mmm<.8mmm@                 Nmmuo     ",
"   Xtmmmmmmmo2mmV       o@bmmt.Odmmf                 .mmm       ",
"    fmmmmmmm.+mmm       .9mmN  @mmm@                  mmmo      ",
"    2kf*dmmd =mmm        Mmm=  =mmd                   Bmm<      ",
"        -dd+.8mmn        fBe   ;mmO                   zmmf      ",
"           ..dmmh..             ;<          .. ..  .  5mmm.     ",
"           . zmme  .                       .  . .   .  mmm$     ",
"          .  Vmm-. oX   ..              . . . @2<X. .XXmmm8     ",
"         . .@mmm2 $5; . .  .. .        . . .@wmmm; o<94fmmko    ",
"        . X@fmmm>.dmu.@=-3<:-*$o. .. .   @,pmmmmmp emmmummm3    ",
"      oo .@zmmmm@ mmx;pNmmmmmbkdututuuttfmmmmmmmmN,mmmmcmmmB$   ",
"     X;O.-mmmcmm;wmmB;VmmmmmmmmmmmmmmmmmmmmmmuVmmmnmnmmmmmmmp   ",
"    .+; >mmc;fmmmmmmm BmmzcMVmmmmmmmmmmmmmmm9;mmmmmmwmmmmmpmm=  ",
"    .. -mmk$ zmmmfmmm-cmm<.       zmme   kmmttmmnmmyemmmmm;Nmf  ",
"    o.*cmc$@tmmm3tmmmkmmmm@       Nmm5   ummfhmfBmm9fmmNmmewmm; ",
"   ..Ofmm3,zmmmm;kmmmmmmmmuX      Nmm8 . emmfBm8Bmmefmmnmmmxmmk ",
"   @o7mmmtmmmkmm5bmmmmmmhmm2      zmmf@  pmmdmm9mmmpfmmVmmmmmmm ",
"   7,zmmmmmzoemmenmmmnmmtcmc@     8mmmhiummmemmMmmmzdmmmmzmmNmm ",
"   X9mmmmmz+ 2mmfxmmmhmmnmmme    X8mmmmmmmmmdmmmmmmmimmmm;mmmmm ",
"    dmmmmh=  oMmmmmmmmmmmmmmm-    pmmmmmmmmmnmmmmfmmmmmmM 9mmd5 ",
"    +8Vmz$    zmmmmmmmmmmmmmmt    =kmmf9mmmmmmmmm-mmmmmmh  =;o  ",
"              wmmmmmmmmkNmmmz8         @ecf-kmmmB nmmmmm8       ",
"              ommmmmmmmf@mmd                 X<w7 wmmmmm        ",
"               cmmmmmmmd =,+                      ommmmz        ",
"                                                                ",
"                                                                ",
"                                                                ",
"                                                                ",
"                                                                ",
"                                                                ",
"                                                                ",
"                                                                ",
"                                                                ",
"                                                                ",
"                                                                "
};
