/* XPM */
static char *e8e3852e4cee4314f309c2c72a0051abrJsPDuFjEF2s1uu2[] = {
/* columns rows colors chars-per-pixel */
"64 64 53 1 ",
"  c #000300",
". c #021701",
"X c #021A01",
"o c #031E01",
"O c #042001",
"+ c #042301",
"@ c #052702",
"# c #052802",
"$ c #072E02",
"% c #072F02",
"& c #073103",
"* c #083203",
"= c #083303",
"- c #083403",
"; c #093603",
": c #0A3803",
"> c #0A3904",
", c #0B3C04",
"< c #0C3E04",
"1 c #0C3F04",
"2 c #0C4004",
"3 c #0E4405",
"4 c #0F4805",
"5 c #0F4906",
"6 c #104A06",
"7 c #114C06",
"8 c #124F07",
"9 c #125007",
"0 c #135307",
"q c #135408",
"w c #135508",
"e c #145608",
"r c #155908",
"t c #175F0A",
"y c #17600A",
"u c #18630B",
"i c #19670B",
"p c #1A670C",
"a c #1A680C",
"s c #246940",
"d c #256940",
"f c #33676B",
"g c #7C7D7C",
"h c #F1FE7C",
"j c #3D6588",
"k c #46639E",
"l c #4E61B1",
"z c #555EC1",
"x c #F55FE5",
"c c #9C9D9C",
"v c #CBCCCB",
"b c #EFF0EF",
"n c white",
/* pixels */
"nnnnnnnnnnnnnnnnnnnnnnnnnnnnnnnnnnnnnnnnnnnnnnnnnnnnnnnnnnnnnnnn",
"nnnnnnnnnnnnnnnnnnnnnnnnnnnnnnnnnnnnnnnnnnnnnnnnnnnnnnnnnnnnnnnn",
"nnnnnnnnnnnnnnnnnnnnnnnnnnnnnnnnnnnnnnnnnnnnnnnnnnnnnnnnnnnnnnnn",
"nnnnnnnnnnnnnnnnn>onnnnnnnnnnnnnnn@bnnnnnnnnnbnnnnnnnnnnnnnnnnnn",
"nnnnnnnnnnnnnnce3;nnnnnnnnnnnnn:t9:+n;lhhhh%nnnnnnnnnnnnnnnnnnnn",
"nnnnnnnnnnnnnn2hhi<gnn.nnnnnnnnyhhhdthhhhhhh&nnnnnnnnnnnnnnnnnnn",
"nnnnnnnnnnnnnnzhhhhron@%nnnnnnnthhhhhhhlrhhhh@nnnnnnn%gnnnnnnnnn",
"nnnnnnnnnnnnnnhhhhhha@nbnnnnnnn+hhhhhhh@x@hhhinnnnn;th2nnnnnnnnn",
"nnnnnnnnnnnnnnihhhhhhh&nnnnnnn%rhhhhhhh3xx=hhht+X4pzhhtXnnnnnnnn",
"nnnnnnnnnnnnnnouhh7>phh@nnnnnnrhhhhhhhhaoxx2hhhhzhhhhhhcnnnnnnnn",
"nnnnnnnnnnnnnnn+uhh=ouhhXnnnnnrhhhhhhhhh2xxuhhhhhhhhhhh,nnnnnnnn",
"nnnnnnnnnnnnnnnn.ihiX+phiXnnnn.rhhhh23hhh@xhhhhhhhhhhhh2nnnnnnnn",
"nnnnnnnnnnnnnnnnnnhh7n%hhrXnnnnnnbng4ahhhh=hhhhhhhhhhk;nnnnnnnnn",
"nnnnnnnnnnnnnnnn>7thhutphhhzir,#c:yhhhhhhhhhhhhhhhhh6cnnnnnnnnnn",
"nnnnnnnnnnnnn6ijhhhhhhhhhhhhhhhhhhhhhhh46hhhhhhw<onnnnnnnnnnnnnn",
"nnnnnnnnnnnphhhhhhhhhhhhhhhhhhhhhhhhh7X2hhhhhhh9nnnnnnnnnnnnnnnn",
"nnnnnnnnnnnhhhhht7,%>hh%X=:#6yfhhzt;nnehhhhhhhhhonnnnnnnnnnnnnnn",
"nnnnnnnnnnnhhhhhpfdu9th4nnnnnnnnnnnnn7hhha7hhhhhhw;cnnnnnnnnnnnn",
"nnnnnnnnnnnhhhhhhhhhhhhhhronnnnnnnnn>hhh2nnyhhhhhhhhh7nn+nnnnnnn",
"nnnnnnnnnnnhhhhhhhhhhhhhhh,nnnnnnnnnjhh7nnn&hhhhhhhhhf#nnnnnnnnn",
"nnnnnnnnnnnhhhhhhhhhhhhlpw#nnnnnnnnnhhtXnnnn7hhhhhhhz2bnnnnnnnnn",
"nnnnnnnnnnnhhhhhtfhhu# %%nnnnnnnnnn+hh7nnnnnn4zhhhhh7vnnnnnnnnnn",
"nnnnnnnnnnnhhhhhhhhhhalzwXnnnnnnnnn%hh6nnnnnnnb3tpie#nnnnnnnnnnn",
"nnnnnnnnnnnrtyhhhhhhhhhhk@nnnnnnnnn%hh6nnnnnnnnnnnnnnnnnnnnnnnnn",
"nnnnnnnnnnnnXkhhf7uhhhhhh#nnnnnnnnnXhh4bnnnnnnnnnnnnnnnnnnnnnnnn",
"nnnnnnnnnnn@hhhhhahhh;ihh:nnnntj2.nnhh7nnnnnnnnnnnnnnnnnnnnnnnnn",
"nnnnnnnnnnn&hhhhhhhwXnahh=nnnnlhhd3ghh9nnnn=44+nnnnnnnnnnnnnnnnn",
"nnnnnnnnnnn.rhhhha:nnnjhh%nnnn7hhhhahh7nn<tphh3nnnnnnnnnnnnnnnnn",
"nnnnnnnnnnnnnihh7Xnnnnzhh#nnnnn@khhhhhdrpzhhhhh=nnnnnnnnnnnnnnnn",
"nnnnnnnnnnnnn<9#nnnnnnhhd+nnnnnnn9hhhhhhhhhhhhh4vnnnnnnnnnnnnnnn",
"nnnnnnnnnnnnnnnnnnnnnnhhuonnnnnnnn-phhhkt6thhhk;nnnnnnnnnnnnnnnn",
"nnnnnnnnnnnnnnnnnnnnnnhhrbnnnn#@Xvno9hhht%khhi%nnnnnnnnnnnnnnnnn",
"nnnnnnnnnnnnnnnnnnnnnnhh9nnnn$hhhr2,::khhhhh9cnnnnnnnnnnnnnnnnnn",
"nnnnnnnnnnnnnnnnnnnnnnhh9nnnn;hhhhhhzjphhhhhi2nnnnnnnnnnnnnnnnnn",
"nnnnnnnnnnnnnn+e<<ikkihh9nnnnnbrhhhhhhhhhrhhhht+nnnnnnnnnnnnnnnn",
"nnnnnnnnnnnnnnyhhhhhhhhh9nnnnnnnXthhhhhht&9hhhh3nnnnnnnnnnnnnnnn",
"nnnnnnnnnnnnnnhhhhhhhhhhwnnnnnnnnnXwhhhhhhhhhhhrXnnnnnnnnnnnnnnn",
"nnnnnnnnnnnnnnhhhhy2,7hh9nnnnnnnnnnnzhhyhhhhhhh3nnnnnnnnnnnnnnnn",
"nnnnnnnnnnnnnnthhuXnnnhh9nnnnnnnnnnnkhh&#;2uhhh2nnnnnnnnnnnnnnnn",
"nnnnnnnnnnnnnX2hh9nnnnhh9nnnnnnnnnnnjhh%nnnnnnnnnnnnnnnnnnnnnnnn",
"nnnnnnnnnnnnn7hhhwnnnnhhrnnnnnnnnnnnahh;nnnnnnnnnnnnnnnnnnnnnnnn",
"nnnnnnnnnnnnnahhhhe7wuhhhXnnnnnnnnnnuhh<Xnnnnnnnnnnnnnnnnnnnnnnn",
"nnnnnnnnnnnnnthhhhhhhhhhh=nnnnnnnnnnyhh:vnnnnnnnnnnnnnnnnnnnnnnn",
"nnnnnnnnnnnnn#hhhhhhhhhhhwnnnnnnnnnnihh:nnnnnnnnnnnnnnnnnnnnnnnn",
"nnnnnnnnnnnnnuhfr7rtre3hhhonnnnnnnnnyhh:nnnnnnnnnnnnnnnnnnnnnnnn",
"nnnnnnnnnnnnnhhhhhhlu7%whh6nnnnnnnnnyhh:nnnnnnnnnnnnnnnnnnnnnnnn",
"nnnnnnnnnnnn;hhhhhhhhhhzhhhXnnnnnnnnyhh<nnnnnnnnnnnnnnnnnnnnnnnn",
"nnnnnnnnnnnn6hhhhj4,thhhhhh:nnnnnnnnyhh>.nnnnnnnnnnnnnnnnnnnnnnn",
"nnnnnnnnnnnn,lhhhhhllfhhhhh>nnnnnnnnuhh:bnnnnnnnnnnnnnnnnnnnnnnn",
"nnnnnnnnnnnnnn#thhhhhhhhke@nnnnnnnnnuhh;nnnnnnnnnnnnnnnnnnnnnnnn",
"nnnnnnnnnnnn6fhhhhhhhhhf&nnnnnnnnnnnuhh;nnnnnnnnnnnnnnnnnnnnnnnn",
"nnnnnnnnnnnhhhhhhpw62rhhh7nnnnnnnnnnrhh:nnnnnnnnnnnnnnnnnnnnnnnn",
"nnnnnnnnnnnhhhhheeutr76fhh=nnnnnnnnn>hhyvnnnnnnnnnnnnnnnnnnnnnnn",
"nnnnnnnnnnnhhhhhhhhhhhhhhh3nnnnnnnnnnhhh9nnnnnnnnnnnnnnnnnnnnnnn",
"nnnnnnnnnnnhhhhhhhhhhhhhhh<nn>ulhhk<#7hhh+nnnnnnnnnnnnnnnnnnnnnn",
"nnnnnnnnnnnihhhhhhzfkhhhawrhhhhhhhhh6.uhh2nnnnnnnnnnnnnnnnnnnnnn",
"nnnnnnnnnnnnn2tjhhhhhhhhhhhhhhhhhhhhhe>hh6nbnnnnnnnnnnnnnnnnnnnn",
"nnnnnnnnnnnnnnnn%ihhhhhhhhhhhht;nnwhhhhhh2nnnnnnnnnnnnnnnnnnnnnn",
"nnnnnnnnnnnnnnn3hhhh7%ehhhy2onnnnnnahhhhi@nnnnnnnnnnnnnnnnnnnnnn",
"nnnnnnnnnnnnnn#hhhhp6khhl,nnnnnnnnnothh7.nnnnnnnnnnnnnnnnnnnnnnn",
"nnnnnnnnnnnnnn%hhkhhhhhwXnnnnnnnnnnnnnnnnnnnnnnnnnnnnnnnnnnnnnnn",
"nnnnnnnnnnnnnnnrhhhhhr+nnnnnnnnnnnnnnnnnnnnnnnnnnnnnnnnnnnnnnnnn",
"nnnnnnnnnnnnnnn,hhhu%nnnnnnnnnnnnnnnnnnnnnnnnnnnnnnnnnnnnnnnnnnn",
"nnnnnnnnnnnnnnnnnnnnnnnnnnnnnnnnnnnnnnnnnnnnnnnnnnnnnnnnnnnnnnnn"
};
