/* XPM */
static char *_11b5d1e8f7b481d81deb9fb7b241a63ChhYPPlVBioTTJfu[] = {
/* columns rows colors chars-per-pixel */
"64 64 54 1 ",
"  c black",
". c #140000",
"X c #2C0000",
"o c #350000",
"O c #3A0000",
"+ c #3D0000",
"@ c #420000",
"# c #440000",
"$ c #480000",
"% c #510000",
"& c #540101",
"* c #590101",
"= c #600101",
"- c #650101",
"; c #6B0101",
": c #720101",
"> c #750101",
", c #7B0101",
"< c #7D0101",
"1 c #800101",
"2 c #860101",
"3 c #880101",
"4 c #890101",
"5 c #8E0101",
"6 c #900202",
"7 c #920202",
"8 c #970202",
"9 c #9B0202",
"0 c #9C0202",
"q c #A00202",
"w c #A10202",
"e c #A60202",
"r c #AB0202",
"t c #AE0202",
"y c #B70303",
"u c #BA0303",
"i c #BE0303",
"p c #C30303",
"a c #C60303",
"s c #C90303",
"d c #CA0303",
"f c #CD0303",
"g c #D10404",
"h c #D40404",
"j c #D90404",
"k c #DC0404",
"l c #E30404",
"z c #E60404",
"x c #E80404",
"c c #EB0505",
"v c #EC0505",
"b c #EF0505",
"n c #F30505",
"m c #F50505",
/* pixels */
"sxnnmmmmmmmmmmmmmmmmmmmmmmmmmmmmmmmmmmmmmmmmmmmmmmmmmmmmmmmmmmmm",
"mmmmmmmmmmmmmmmmmmmmmmmmmmmmmmmmmmmmmmmmmmmmmmmmmmmmmmmmmmmmmmmm",
"mmmmmmmmmmmmmmmmmmmmmmmmmmmmmmmxxmnllnnnxnmmmmmmmmmmmmmmmmmmmmmm",
"mmmmmmnmnmm>lyxnkerkb                                           ",
"keq                                                             ",
"                                                                ",
"            ,                                           <   fz4,",
"thbbnnnmmmmmmmmmmmmmmmmmmmmmmmmmmmmmmmmmmmmmmmmmmmmmmmmmmmmmmmmm",
"mmmmmmmmmmmmmmmmmmmmmmmmmmmmmmmmmnmmnmmmmmmmmmmmmmmmmmmmmmmmmmmm",
"mmmmmmmmmmmnmmmmmnmmmnnnmmnnnmnkjbzhhxnzkznmnnmmnnnmmnmbmmmmmmmn",
"mmmmmmzmxmm h6jbh52al                                           ",
"f66                                                             ",
"                                                                ",
"                                                                ",
"                                                                ",
"                    X4i$:hhu+0t2nnnnmnmmnnmmmmmmmmmmmmmmmmmmm> $",
"    @q*fknhnnmmmmmmmmmmmmmmmmmmmmmmnmmmmmmmmmmmmmmmmmmmmmmmmmmmm",
"mmmmmmmmmmmmmmmnmmmmmmmmmmmmmmmmmnnnnnnx    -jnmmznmmnznnbmmmqmm",
"mmmmmmmmmmmnmmmbnmmnnlnbrjxnkamnbmmmmmnmmmmmmmmmmmnmmmmmmnmmm   ",
"mnnnl  ;j1kqbxj $r;af:zz9hbbd0zk                                ",
"                                                                ",
"                                                                ",
"                     ;tOOupt 40 lxbbnbbnbznnnnmmmmmmmmmmmmmmm-  ",
"     6 ypzuznmnmmmmmmmmmmmnmmmmmmmmmmmmmnmmmmmmmmmmmmmmmmmmmmmmm",
"mmmmmmmmmmmmmmmmmmmmnmmmmmmmmmmmmnxxnnzk     plnnhzmmzfnnlnnm bn",
"mmmmmmmmmmmznnbkbnmxmszz4plxs9xxjnnmnnbmmnmmmmmmnmmmmnbmmxmmm   ",
"mxbbh   sOf;lkf  9Otp hj,ullu;hh                                ",
"                                                                ",
"                                                                ",
"                                        &hbnnnhxnblnmxxbxf    .5",
"           <nnmmmmmmmmmmmmmmmmmmmmmmmmmmnmmmmmmmmnnmnmmmmmmmmmmm",
"mmmmmmmmmmmmnnmmmmmmmmmmmmmmmmmmmmxmnkknbhfkl .1lnxxbx;htmmmmmmm",
"mmmmmmmmmmmnmnnmnmmmmmmzmfmbzznman4b9 +08               &fxzbmmm",
"nmnmmnmmmnnnnlfb%i# .;i                                         ",
"#t                                                              ",
"                                                                ",
"                                         ykbbkikblfzbljkki     O",
"            jbnbmmmmmmmmmmmmmmmmmmmnmmmmmmmmmmmmmnmmmmmmmmmmmmmm",
"mmmmmmmmmmmmmmmmmmmmmmmmmnmmmnnmzmhnzddzziydh  Ofzkjkl d nmmnmmm",
"mmmmmmmmmmnmmnnmjmmmnmmdn7nxhhzn2b z2  44                thhknnn",
"lmbnnnbnmmxzxhtz tO  Ot                                         ",
" 9                                                              ",
"                                                                ",
"                                                                ",
"                                                                ",
"                                                                ",
"                                                     0n  X19  =k",
"a  @w2bmmmmmmmmmmmmmmmmmmmmmmmmmmmmmmm             $lmmXxmmmmmmm",
"m  lmmmmmmmmmmmmmmmmmmmmmmmmmmmmmmmmmmm      <bnmmmmmmmmmmmmmmmm",
"mmnn   kmmmmmmmmmmmmmmmmmmmmmmmmmmmmmmmmmmm  7nmmmmmmmmmnmmmmmmm",
"mmmm   dmmmmmmmmmmmmmmmmmmmmmmmmmmmmmmmmmmmmmmnkbmmmmamm lmmmmmm",
"                                         o70hbbf4               ",
"                                                                ",
"                                                      b   ;4   i",
"y   7Ojmmmmmmmmmmmmmmmmmmmmmmmmmmmmmmn              9mm ;nmmmmmm",
"m   mmmmmmmmmmmmmmmmmmmmmmmmmmmmmmmmmmn       klmmmmmmmmjmmmmmmm",
"mmnb    mmmmmmmmmmmmmmmmmmmmmmmmmmmmmmmmmnm   zmhmmmmnmmhmmmmmmm",
"mmnm    mmmmnmmmnmmnmmmmnnnmmnmmnnmmmmmmmmmnnmbhfmmmm mm  mmmmmm",
"                                          ,<ullu,               ",
"                                                                ",
"                                                                ",
"                                                                ",
"575175577575577574$$%<<<<<<<<<4 X<<<<<<<<<>                     ",
"mmmmmmmmmmmmmmmmmmmmmmmmmmmmmmmmmmmmmmmmmmmmmmmmmmmmmmmmmmmmmmmm"
};
