/* XPM */
static char *_fe92cc7447e47b59eb3bb323902d455hgDf9fAAZAy1o1T6[] = {
/* columns rows colors chars-per-pixel */
"64 64 55 1 ",
"  c black",
". c #140000",
"X c #2C0000",
"o c #350000",
"O c #3A0000",
"+ c #3D0000",
"@ c #420000",
"# c #440000",
"$ c #480000",
"% c #510000",
"& c #540101",
"* c #590101",
"= c #600101",
"- c #650101",
"; c #6B0101",
": c #720101",
"> c #750101",
", c #7B0101",
"< c #7D0101",
"1 c #810101",
"2 c #860101",
"3 c #890101",
"4 c #8E0101",
"5 c #900202",
"6 c #970202",
"7 c #9A0202",
"8 c #9C0202",
"9 c #A00202",
"0 c #A60202",
"q c #AB0202",
"w c #AE0202",
"e c #B50303",
"r c #BA0303",
"t c #BE0303",
"y c #C30303",
"u c #C40303",
"i c #C90303",
"p c #CD0303",
"a c #D10303",
"s c #D10404",
"d c #D40404",
"f c #DA0404",
"g c #DC0404",
"h c #EC0505",
"j c #F50505",
"k c #D83F45",
"l c #C96C75",
"z c #CB6C75",
"x c #18DFF2",
"c c #7FC3D3",
"v c #5ED2E3",
"b c #BB8894",
"n c #BC8894",
"m c #AC9FAC",
"M c #98B2C1",
/* pixels */
"ixxxxxxxxxxxxxxxxxxxxxxxxxxxxxxxxxxxxxxxxxxxxxxxxxxxxxxxxxxxxxxx",
"xxxxxxxxxxxxxxxxxxxxxxxxxxxxxxxxxxxxxxxxxxxxxxxxxxxxxxxxxxxxxxxx",
"xxxxxxxxxxxxxxxxxxxxxxxxxxxxxxxxxxxncxxxxxxxxxxxxxxxxxxxxxxxxxxx",
"xxxxxxxxxxx>Mxxxg0qgx                                           ",
"g09                                                             ",
"                                                                ",
"            ,                                           ,   px3,",
"wdxxxxxxxxxxxxxxxxxxxxxxxxxxxxxxxxxxxxxxxxxxxxxxxxxxxxxxxxxxxxxx",
"xxxxxxxxxxxxxxxxxxxxxxxxxxxxxxxxxxxxxxxxxxxxxxxxxxxxxxxxxxxxxxxx",
"xxxxxxxxxxxxxxxxxxxxxxxxxxxxxxxgfxxsaxxxgMxxxxxxxxxxxxxxxxxxxxxx",
"xxxxxxxxxxx d5fxa43uM                                           ",
"p55                                                             ",
"                                                                ",
"                                                                ",
"                                                                ",
"                    X3t$:adr+8w2xxxxxxxxxxxxxxxxxxxxxxxxxxxxx> $",
"    @9*pgxfxxxxxxxxxxxxxxxxxxxxxxxxxxxxxxxxxxxxxxxxxxxxxxxxxxxxx",
"xxxxxxxxxxxxxxxxxxxxxxxxxxxxxxxxxxxxxxxx    -gxxxxxxxxxxxxxxx9xx",
"xxxxxxxxxxxxxxxxxxxxxmxxqgxxfuxxxxxxxxxxxxxxxxxxxxxxxxxxxxxxx   ",
"xxxxn  ;f<f0xxf $w;up>xx8dxxp7xn                                ",
"                                                                ",
"                                                                ",
"                     ;wOOru0 37 Mxxxxxxxxxxxxxxxxxxxxxxxxxxxx;  ",
"     5 euxrxxxxxxxxxxxxxxxxxxxxxxxxxxxxxxxxxxxxxxxxxxxxxxxxxxxxx",
"xxxxxxxxxxxxxxxxxxxxxxxxxxxxxxxxxxxxxxxk     ynxxdxxxxaxxkxxx xx",
"xxxxxxxxxxxxxxxgxxxxxixv3unxi7xxfxxxxxxxxxxxxxxxxxxxxxxxxxxxx   ",
"xxxxd   iOp;ngp  7Owt df,rMMr;dd                                ",
"                                                                ",
"                                                                ",
"                                        *sxxxxdxxxmxxxxxxp    .3",
"           <xxxxxxxxxxxxxxxxxxxxxxxxxxxxxxxxxxxxxxxxxxxxxxxxxxxx",
"xxxxxxxxxxxxxxxxxxxxxxxxxxxxxxxxxxxxxgnxxauhz .1Mxxxxx;fwxxxxxxx",
"xxxxxxxxxxxxxxxxxxxxxxxxxxxxcxxxux3x7 +86               &pxMxxxx",
"xxxxxxxxxxxxxkpx&t# .;t                                         ",
"$w                                                              ",
"                                                                ",
"                                         enxxztgxvpvxvfngt     O",
"            gxxxxxxxxxxxxxxxxxxxxxxxxxxxxxxxxxxxxxxxxxxxxxxxxxxx",
"xxxxxxxxxxxxxxxxxxxxxxxxxxxxxxxxxxaxxiixxteis  Opxgfbb i xxxxxxx",
"xxxxxxxxxxxxxxxxfxxxxxxpx5xxddxx3x x3  33                wfabxxx",
"vxxxxxxxxxxxxawx wO  Ow                                         ",
" 7                                                              ",
"                                                                ",
"                                                                ",
"                                                                ",
"                                                                ",
"                                                     8x  X17  =g",
"u  @93xxxxxxxxxxxxxxxxxxxxxxxxxxxxxxxx             $zxxXxxxxxxxx",
"x  Mxxxxxxxxxxxxxxxxxxxxxxxxxxxxxxxxxxx      1xxxxxxxxxxxxxxxxxx",
"xxxx   kxxxxxxxxxxxxxxxxxxxxxxxxxxxxxxxxxxx  5xxxxxxxxxxxxxxxxxx",
"xxxx   ixxxxxxxxxxxxxxxxxxxxxxxxxxxxxxxxxxxxxxxnxxxxxuxx nxxxxxx",
"                                         o58dxxp3               ",
"                                                                ",
"                                                      x   ;3   y",
"e   5Ogxxxxxxxxxxxxxxxxxxxxxxxxxxxxxxx              8xx ;jjjjjjj",
"j   xxxxxxxxxxxxxxxxxxxxxxxxxxxxxxxxxxx       gMxxxxxxxxfjjjjjjj",
"jjjh    xxxxxxxxxxxxxxxxxxxxxxxxxxxxxxxxxxx   xxdxxxxxxxsjjjjjjj",
"jjjj    xxxxxxxxxxxxxxxxxxxxxxxxxxxxxxxxxxxxxxxapxxxx xx  jjjjjj",
"                                          ,<rMMr<               ",
"                                                                ",
"                                                                ",
"                                                                ",
"544155555555555553$$%<<<<<<<<13 X<<<<<<<<<>                     ",
"jjjjjjjjjjjjjjjjjjjjjjjjjjjjjjjjjjjjjjjjjjjjjjjjjjjjjjjjjjjjjjjj"
};
